<svg width="587" height="69" viewBox="0 0 587 69" fill="none" xmlns="http://www.w3.org/2000/svg">
<path d="M21.377 28L18.109 19.602H7.35499L4.12499 28H0.666992L11.269 0.754H14.347L24.911 28H21.377ZM14.043 8.354C13.967 8.15133 13.8403 7.784 13.663 7.252C13.4857 6.72 13.3083 6.17533 13.131 5.618C12.979 5.03533 12.8523 4.592 12.751 4.288C12.6243 4.79467 12.485 5.314 12.333 5.846C12.2063 6.35267 12.067 6.82133 11.915 7.252C11.7883 7.68267 11.6743 8.05 11.573 8.354L8.49499 16.562H17.083L14.043 8.354ZM49.5083 3.49C48.0643 3.49 46.7597 3.74333 45.5943 4.25C44.429 4.73133 43.441 5.45333 42.6303 6.416C41.8197 7.35333 41.199 8.506 40.7683 9.874C40.3377 11.2167 40.1223 12.7367 40.1223 14.434C40.1223 16.6633 40.4643 18.6013 41.1483 20.248C41.8577 21.8947 42.8963 23.1613 44.2643 24.048C45.6577 24.9347 47.393 25.378 49.4703 25.378C50.661 25.378 51.7883 25.2767 52.8523 25.074C53.9163 24.8713 54.955 24.618 55.9683 24.314V27.278C54.955 27.658 53.9037 27.9367 52.8143 28.114C51.7503 28.2913 50.471 28.38 48.9763 28.38C46.215 28.38 43.9097 27.81 42.0603 26.67C40.211 25.53 38.8177 23.9087 37.8803 21.806C36.9683 19.7033 36.5123 17.2333 36.5123 14.396C36.5123 12.344 36.791 10.4693 37.3483 8.772C37.931 7.07467 38.767 5.60533 39.8563 4.364C40.971 3.12267 42.339 2.17267 43.9603 1.514C45.5817 0.829999 47.4437 0.487999 49.5463 0.487999C50.9397 0.487999 52.2823 0.627332 53.5743 0.905998C54.8663 1.18467 56.019 1.57733 57.0323 2.084L55.6643 4.972C54.8283 4.592 53.891 4.25 52.8523 3.946C51.839 3.642 50.7243 3.49 49.5083 3.49ZM94.8219 14.396C94.8219 16.4987 94.5559 18.4113 94.0239 20.134C93.4919 21.8313 92.6939 23.3007 91.6299 24.542C90.5912 25.7833 89.2866 26.7333 87.7159 27.392C86.1706 28.0507 84.3719 28.38 82.3199 28.38C80.1919 28.38 78.3426 28.0507 76.7719 27.392C75.2012 26.708 73.8966 25.758 72.8579 24.542C71.8192 23.3007 71.0466 21.8187 70.5399 20.096C70.0332 18.3733 69.7799 16.4607 69.7799 14.358C69.7799 11.5713 70.2359 9.13933 71.1479 7.062C72.0599 4.98467 73.4406 3.36333 75.2899 2.198C77.1646 1.03267 79.5206 0.449999 82.3579 0.449999C85.0686 0.449999 87.3486 1.03267 89.1979 2.198C91.0472 3.338 92.4406 4.95933 93.3779 7.062C94.3406 9.13933 94.8219 11.584 94.8219 14.396ZM73.3899 14.396C73.3899 16.676 73.7066 18.6393 74.3399 20.286C74.9732 21.9327 75.9486 23.1993 77.2659 24.086C78.6086 24.9727 80.2932 25.416 82.3199 25.416C84.3719 25.416 86.0439 24.9727 87.3359 24.086C88.6532 23.1993 89.6286 21.9327 90.2619 20.286C90.8952 18.6393 91.2119 16.676 91.2119 14.396C91.2119 10.976 90.5026 8.30333 89.0839 6.378C87.6652 4.42733 85.4232 3.452 82.3579 3.452C80.3059 3.452 78.6086 3.89533 77.2659 4.782C75.9486 5.64333 74.9732 6.89733 74.3399 8.544C73.7066 10.1653 73.3899 12.116 73.3899 14.396ZM118.321 0.867998C120.576 0.867998 122.425 1.15933 123.869 1.742C125.339 2.29933 126.428 3.148 127.137 4.288C127.847 5.428 128.201 6.85933 128.201 8.582C128.201 10.026 127.935 11.2293 127.403 12.192C126.871 13.1547 126.187 13.9273 125.351 14.51C124.541 15.0673 123.679 15.5107 122.767 15.84L130.215 28H126.225L119.651 16.79H114.255V28H110.835V0.867998H118.321ZM118.131 3.832H114.255V13.902H118.321C119.791 13.902 120.994 13.712 121.931 13.332C122.869 12.9267 123.553 12.344 123.983 11.584C124.439 10.824 124.667 9.874 124.667 8.734C124.667 7.54333 124.427 6.59333 123.945 5.884C123.489 5.17467 122.78 4.65533 121.817 4.326C120.855 3.99667 119.626 3.832 118.131 3.832ZM165.982 28H161.992L147.476 5.466H147.324C147.349 5.922 147.375 6.42867 147.4 6.986C147.451 7.54333 147.489 8.15133 147.514 8.81C147.539 9.44333 147.565 10.102 147.59 10.786C147.615 11.47 147.628 12.154 147.628 12.838V28H144.474V0.867998H148.426L162.904 23.326H163.056C163.031 23.022 163.005 22.604 162.98 22.072C162.955 21.5147 162.929 20.9067 162.904 20.248C162.879 19.564 162.853 18.8673 162.828 18.158C162.803 17.4487 162.79 16.79 162.79 16.182V0.867998H165.982V28ZM198.735 20.742C198.735 22.3633 198.343 23.744 197.557 24.884C196.772 25.9987 195.645 26.86 194.175 27.468C192.731 28.076 191.021 28.38 189.045 28.38C188.032 28.38 187.057 28.3293 186.119 28.228C185.207 28.1267 184.371 27.9873 183.611 27.81C182.851 27.6073 182.18 27.3667 181.597 27.088V23.82C182.509 24.2253 183.637 24.5927 184.979 24.922C186.347 25.2513 187.753 25.416 189.197 25.416C190.54 25.416 191.667 25.2387 192.579 24.884C193.491 24.5293 194.175 24.0227 194.631 23.364C195.087 22.7053 195.315 21.9327 195.315 21.046C195.315 20.1593 195.125 19.412 194.745 18.804C194.365 18.196 193.707 17.6387 192.769 17.132C191.857 16.6 190.578 16.0427 188.931 15.46C187.766 15.0293 186.74 14.5733 185.853 14.092C184.992 13.5853 184.27 13.0153 183.687 12.382C183.105 11.7487 182.661 11.0267 182.357 10.216C182.079 9.40533 181.939 8.468 181.939 7.404C181.939 5.96 182.307 4.73133 183.041 3.718C183.776 2.67933 184.789 1.88133 186.081 1.324C187.399 0.766665 188.906 0.487999 190.603 0.487999C192.098 0.487999 193.466 0.627332 194.707 0.905998C195.949 1.18467 197.076 1.552 198.089 2.008L197.025 4.934C196.088 4.52867 195.062 4.18667 193.947 3.908C192.858 3.62933 191.718 3.49 190.527 3.49C189.387 3.49 188.437 3.65467 187.677 3.984C186.917 4.31333 186.347 4.782 185.967 5.39C185.587 5.97267 185.397 6.65667 185.397 7.442C185.397 8.354 185.587 9.114 185.967 9.722C186.347 10.33 186.968 10.8747 187.829 11.356C188.691 11.8373 189.856 12.3567 191.325 12.914C192.921 13.4967 194.264 14.13 195.353 14.814C196.468 15.4727 197.304 16.2707 197.861 17.208C198.444 18.1453 198.735 19.3233 198.735 20.742ZM252.351 28H237.189V0.867998H252.351V3.87H240.609V12.344H251.667V15.308H240.609V24.998H252.351V28ZM285.328 28L282.06 19.602H271.306L268.076 28H264.618L275.22 0.754H278.298L288.862 28H285.328ZM277.994 8.354C277.918 8.15133 277.791 7.784 277.614 7.252C277.437 6.72 277.259 6.17533 277.082 5.618C276.93 5.03533 276.803 4.592 276.702 4.288C276.575 4.79467 276.436 5.314 276.284 5.846C276.157 6.35267 276.018 6.82133 275.866 7.252C275.739 7.68267 275.625 8.05 275.524 8.354L272.446 16.562H281.034L277.994 8.354ZM317.964 20.742C317.964 22.3633 317.571 23.744 316.786 24.884C316 25.9987 314.873 26.86 313.404 27.468C311.96 28.076 310.25 28.38 308.274 28.38C307.26 28.38 306.285 28.3293 305.348 28.228C304.436 28.1267 303.6 27.9873 302.84 27.81C302.08 27.6073 301.408 27.3667 300.826 27.088V23.82C301.738 24.2253 302.865 24.5927 304.208 24.922C305.576 25.2513 306.982 25.416 308.426 25.416C309.768 25.416 310.896 25.2387 311.808 24.884C312.72 24.5293 313.404 24.0227 313.86 23.364C314.316 22.7053 314.544 21.9327 314.544 21.046C314.544 20.1593 314.354 19.412 313.974 18.804C313.594 18.196 312.935 17.6387 311.998 17.132C311.086 16.6 309.806 16.0427 308.16 15.46C306.994 15.0293 305.968 14.5733 305.082 14.092C304.22 13.5853 303.498 13.0153 302.916 12.382C302.333 11.7487 301.89 11.0267 301.586 10.216C301.307 9.40533 301.168 8.468 301.168 7.404C301.168 5.96 301.535 4.73133 302.27 3.718C303.004 2.67933 304.018 1.88133 305.31 1.324C306.627 0.766665 308.134 0.487999 309.832 0.487999C311.326 0.487999 312.694 0.627332 313.936 0.905998C315.177 1.18467 316.304 1.552 317.318 2.008L316.254 4.934C315.316 4.52867 314.29 4.18667 313.176 3.908C312.086 3.62933 310.946 3.49 309.756 3.49C308.616 3.49 307.666 3.65467 306.906 3.984C306.146 4.31333 305.576 4.782 305.196 5.39C304.816 5.97267 304.626 6.65667 304.626 7.442C304.626 8.354 304.816 9.114 305.196 9.722C305.576 10.33 306.196 10.8747 307.058 11.356C307.919 11.8373 309.084 12.3567 310.554 12.914C312.15 13.4967 313.492 14.13 314.582 14.814C315.696 15.4727 316.532 16.2707 317.09 17.208C317.672 18.1453 317.964 19.3233 317.964 20.742ZM342.017 28H338.597V3.87H330.123V0.867998H350.453V3.87H342.017V28ZM411.207 14.396C411.207 16.4987 410.941 18.4113 410.409 20.134C409.877 21.8313 409.079 23.3007 408.015 24.542C406.976 25.7833 405.671 26.7333 404.101 27.392C402.555 28.0507 400.757 28.38 398.705 28.38C396.577 28.38 394.727 28.0507 393.157 27.392C391.586 26.708 390.281 25.758 389.243 24.542C388.204 23.3007 387.431 21.8187 386.925 20.096C386.418 18.3733 386.165 16.4607 386.165 14.358C386.165 11.5713 386.621 9.13933 387.533 7.062C388.445 4.98467 389.825 3.36333 391.675 2.198C393.549 1.03267 395.905 0.449999 398.743 0.449999C401.453 0.449999 403.733 1.03267 405.583 2.198C407.432 3.338 408.825 4.95933 409.763 7.062C410.725 9.13933 411.207 11.584 411.207 14.396ZM389.775 14.396C389.775 16.676 390.091 18.6393 390.725 20.286C391.358 21.9327 392.333 23.1993 393.651 24.086C394.993 24.9727 396.678 25.416 398.705 25.416C400.757 25.416 402.429 24.9727 403.721 24.086C405.038 23.1993 406.013 21.9327 406.647 20.286C407.28 18.6393 407.597 16.676 407.597 14.396C407.597 10.976 406.887 8.30333 405.469 6.378C404.05 4.42733 401.808 3.452 398.743 3.452C396.691 3.452 394.993 3.89533 393.651 4.782C392.333 5.64333 391.358 6.89733 390.725 8.544C390.091 10.1653 389.775 12.116 389.775 14.396ZM434.706 0.867998C436.961 0.867998 438.81 1.15933 440.254 1.742C441.724 2.29933 442.813 3.148 443.522 4.288C444.232 5.428 444.586 6.85933 444.586 8.582C444.586 10.026 444.32 11.2293 443.788 12.192C443.256 13.1547 442.572 13.9273 441.736 14.51C440.926 15.0673 440.064 15.5107 439.152 15.84L446.6 28H442.61L436.036 16.79H430.64V28H427.22V0.867998H434.706ZM434.516 3.832H430.64V13.902H434.706C436.176 13.902 437.379 13.712 438.316 13.332C439.254 12.9267 439.938 12.344 440.368 11.584C440.824 10.824 441.052 9.874 441.052 8.734C441.052 7.54333 440.812 6.59333 440.33 5.884C439.874 5.17467 439.165 4.65533 438.202 4.326C437.24 3.99667 436.011 3.832 434.516 3.832ZM482.367 28H478.377L463.861 5.466H463.709C463.734 5.922 463.76 6.42867 463.785 6.986C463.836 7.54333 463.874 8.15133 463.899 8.81C463.924 9.44333 463.95 10.102 463.975 10.786C464 11.47 464.013 12.154 464.013 12.838V28H460.859V0.867998H464.811L479.289 23.326H479.441C479.416 23.022 479.39 22.604 479.365 22.072C479.34 21.5147 479.314 20.9067 479.289 20.248C479.264 19.564 479.238 18.8673 479.213 18.158C479.188 17.4487 479.175 16.79 479.175 16.182V0.867998H482.367V28ZM516.754 28L513.486 19.602H502.732L499.502 28H496.044L506.646 0.754H509.724L520.288 28H516.754ZM509.42 8.354C509.344 8.15133 509.217 7.784 509.04 7.252C508.863 6.72 508.685 6.17533 508.508 5.618C508.356 5.03533 508.229 4.592 508.128 4.288C508.001 4.79467 507.862 5.314 507.71 5.846C507.583 6.35267 507.444 6.82133 507.292 7.252C507.165 7.68267 507.051 8.05 506.95 8.354L503.872 16.562H512.46L509.42 8.354ZM545.037 13.674H554.423V26.974C552.954 27.4553 551.472 27.81 549.977 28.038C548.483 28.266 546.785 28.38 544.885 28.38C542.073 28.38 539.705 27.8227 537.779 26.708C535.854 25.568 534.385 23.9593 533.371 21.882C532.383 19.7793 531.889 17.2967 531.889 14.434C531.889 11.5967 532.447 9.13933 533.561 7.062C534.676 4.98467 536.272 3.376 538.349 2.236C540.452 1.07067 542.985 0.487999 545.949 0.487999C547.469 0.487999 548.901 0.627332 550.243 0.905998C551.611 1.18467 552.878 1.57733 554.043 2.084L552.751 5.048C551.789 4.61733 550.699 4.25 549.483 3.946C548.293 3.642 547.051 3.49 545.759 3.49C543.606 3.49 541.757 3.93333 540.211 4.82C538.666 5.70667 537.488 6.97333 536.677 8.62C535.867 10.2413 535.461 12.1793 535.461 14.434C535.461 16.5873 535.803 18.5 536.487 20.172C537.197 21.8187 538.299 23.1107 539.793 24.048C541.288 24.96 543.251 25.416 545.683 25.416C546.494 25.416 547.203 25.3907 547.811 25.34C548.445 25.264 549.015 25.1753 549.521 25.074C550.053 24.9727 550.547 24.8713 551.003 24.77V16.714H545.037V13.674ZM586.066 28H570.904V0.867998H586.066V3.87H574.324V12.344H585.382V15.308H574.324V24.998H586.066V28ZM237.853 68H234.433V40.868H249.595V43.87H237.853V53.484H248.873V56.486H237.853V68ZM287.812 54.396C287.812 56.4987 287.546 58.4113 287.014 60.134C286.482 61.8313 285.684 63.3007 284.62 64.542C283.581 65.7833 282.277 66.7333 280.706 67.392C279.161 68.0507 277.362 68.38 275.31 68.38C273.182 68.38 271.333 68.0507 269.762 67.392C268.191 66.708 266.887 65.758 265.848 64.542C264.809 63.3007 264.037 61.8187 263.53 60.096C263.023 58.3733 262.77 56.4607 262.77 54.358C262.77 51.5713 263.226 49.1393 264.138 47.062C265.05 44.9847 266.431 43.3633 268.28 42.198C270.155 41.0327 272.511 40.45 275.348 40.45C278.059 40.45 280.339 41.0327 282.188 42.198C284.037 43.338 285.431 44.9593 286.368 47.062C287.331 49.1393 287.812 51.584 287.812 54.396ZM266.38 54.396C266.38 56.676 266.697 58.6393 267.33 60.286C267.963 61.9327 268.939 63.1993 270.256 64.086C271.599 64.9727 273.283 65.416 275.31 65.416C277.362 65.416 279.034 64.9727 280.326 64.086C281.643 63.1993 282.619 61.9327 283.252 60.286C283.885 58.6393 284.202 56.676 284.202 54.396C284.202 50.976 283.493 48.3033 282.074 46.378C280.655 44.4273 278.413 43.452 275.348 43.452C273.296 43.452 271.599 43.8953 270.256 44.782C268.939 45.6433 267.963 46.8973 267.33 48.544C266.697 50.1653 266.38 52.116 266.38 54.396ZM311.312 40.868C313.566 40.868 315.416 41.1593 316.86 41.742C318.329 42.2993 319.418 43.148 320.128 44.288C320.837 45.428 321.192 46.8593 321.192 48.582C321.192 50.026 320.926 51.2293 320.394 52.192C319.862 53.1547 319.178 53.9273 318.342 54.51C317.531 55.0673 316.67 55.5107 315.758 55.84L323.206 68H319.216L312.642 56.79H307.246V68H303.826V40.868H311.312ZM311.122 43.832H307.246V53.902H311.312C312.781 53.902 313.984 53.712 314.922 53.332C315.859 52.9267 316.543 52.344 316.974 51.584C317.43 50.824 317.658 49.874 317.658 48.734C317.658 47.5433 317.417 46.5933 316.936 45.884C316.48 45.1747 315.77 44.6553 314.808 44.326C313.845 43.9967 312.616 43.832 311.122 43.832ZM349.434 68L340.504 44.212H340.352C340.403 44.7187 340.441 45.3647 340.466 46.15C340.517 46.9353 340.555 47.7967 340.58 48.734C340.606 49.646 340.618 50.5833 340.618 51.546V68H337.464V40.868H342.518L350.878 63.098H351.03L359.542 40.868H364.558V68H361.176V51.318C361.176 50.4313 361.189 49.5573 361.214 48.696C361.24 47.8093 361.278 46.986 361.328 46.226C361.379 45.4407 361.417 44.782 361.442 44.25H361.29L352.246 68H349.434Z" fill="url(#paint0_linear_412_534)"/>
<defs>
<linearGradient id="paint0_linear_412_534" x1="78.5103" y1="78.9997" x2="502.551" y2="78.9997" gradientUnits="userSpaceOnUse">
<stop stop-color="#CF94FE"/>
<stop offset="1" stop-color="#7193C7"/>
</linearGradient>
</defs>
</svg>
