<svg width="507" height="69" viewBox="0 0 507 69" fill="none" xmlns="http://www.w3.org/2000/svg">
<path d="M8.04835 0.867998C10.303 0.867998 12.1904 1.08333 13.7104 1.514C15.2557 1.94467 16.4084 2.654 17.1684 3.642C17.9537 4.63 18.3464 5.94733 18.3464 7.594C18.3464 8.658 18.1437 9.608 17.7384 10.444C17.3584 11.2547 16.7757 11.9387 15.9904 12.496C15.2304 13.028 14.293 13.3953 13.1784 13.598V13.788C14.3184 13.9653 15.3444 14.2947 16.2564 14.776C17.1937 15.2573 17.9284 15.9413 18.4604 16.828C18.9924 17.7147 19.2584 18.8673 19.2584 20.286C19.2584 21.9327 18.8784 23.3387 18.1184 24.504C17.3584 25.644 16.269 26.518 14.8504 27.126C13.457 27.7087 11.785 28 9.83435 28H0.296352V0.867998H8.04835ZM8.73235 12.42C11.063 12.42 12.659 12.0527 13.5204 11.318C14.3817 10.558 14.8124 9.44333 14.8124 7.974C14.8124 6.47933 14.2804 5.41533 13.2164 4.782C12.1777 4.12333 10.5057 3.794 8.20035 3.794H3.71635V12.42H8.73235ZM3.71635 15.27V25.112H9.18835C11.595 25.112 13.267 24.6433 14.2044 23.706C15.1417 22.7687 15.6104 21.54 15.6104 20.02C15.6104 19.0573 15.395 18.2213 14.9644 17.512C14.559 16.8027 13.8624 16.258 12.8744 15.878C11.9117 15.4727 10.5944 15.27 8.92235 15.27H3.71635ZM42.6492 28H32.8452V26.024L36.0372 25.302V3.604L32.8452 2.844V0.867998H42.6492V2.844L39.4572 3.604V25.302L42.6492 26.024V28ZM69.6681 13.674H79.0542V26.974C77.5848 27.4553 76.1028 27.81 74.6081 28.038C73.1135 28.266 71.4161 28.38 69.5161 28.38C66.7041 28.38 64.3355 27.8227 62.4101 26.708C60.4848 25.568 59.0155 23.9593 58.0021 21.882C57.0141 19.7793 56.5201 17.2967 56.5201 14.434C56.5201 11.5967 57.0775 9.13933 58.1921 7.062C59.3068 4.98467 60.9028 3.376 62.9801 2.236C65.0828 1.07067 67.6161 0.487999 70.5801 0.487999C72.1001 0.487999 73.5315 0.627332 74.8741 0.905998C76.2422 1.18467 77.5088 1.57733 78.6742 2.084L77.3821 5.048C76.4195 4.61733 75.3301 4.25 74.1142 3.946C72.9235 3.642 71.6821 3.49 70.3901 3.49C68.2368 3.49 66.3875 3.93333 64.8421 4.82C63.2968 5.70667 62.1188 6.97333 61.3081 8.62C60.4975 10.2413 60.0921 12.1793 60.0921 14.434C60.0921 16.5873 60.4341 18.5 61.1181 20.172C61.8275 21.8187 62.9295 23.1107 64.4241 24.048C65.9188 24.96 67.8821 25.416 70.3141 25.416C71.1248 25.416 71.8341 25.3907 72.4421 25.34C73.0755 25.264 73.6455 25.1753 74.1521 25.074C74.6841 24.9727 75.1781 24.8713 75.6341 24.77V16.714H69.6681V13.674ZM130.151 3.49C128.707 3.49 127.402 3.74333 126.237 4.25C125.072 4.73133 124.084 5.45333 123.273 6.416C122.462 7.35333 121.842 8.506 121.411 9.874C120.98 11.2167 120.765 12.7367 120.765 14.434C120.765 16.6633 121.107 18.6013 121.791 20.248C122.5 21.8947 123.539 23.1613 124.907 24.048C126.3 24.9347 128.036 25.378 130.113 25.378C131.304 25.378 132.431 25.2767 133.495 25.074C134.559 24.8713 135.598 24.618 136.611 24.314V27.278C135.598 27.658 134.546 27.9367 133.457 28.114C132.393 28.2913 131.114 28.38 129.619 28.38C126.858 28.38 124.552 27.81 122.703 26.67C120.854 25.53 119.46 23.9087 118.523 21.806C117.611 19.7033 117.155 17.2333 117.155 14.396C117.155 12.344 117.434 10.4693 117.991 8.772C118.574 7.07467 119.41 5.60533 120.499 4.364C121.614 3.12267 122.982 2.17267 124.603 1.514C126.224 0.829999 128.086 0.487999 130.189 0.487999C131.582 0.487999 132.925 0.627332 134.217 0.905998C135.509 1.18467 136.662 1.57733 137.675 2.084L136.307 4.972C135.471 4.592 134.534 4.25 133.495 3.946C132.482 3.642 131.367 3.49 130.151 3.49ZM173.281 28H169.861V15.346H155.953V28H152.533V0.867998H155.953V12.344H169.861V0.867998H173.281V28ZM198.337 28H188.533V26.024L191.725 25.302V3.604L188.533 2.844V0.867998H198.337V2.844L195.145 3.604V25.302L198.337 26.024V28ZM225.204 3.49C223.76 3.49 222.455 3.74333 221.29 4.25C220.124 4.73133 219.136 5.45333 218.326 6.416C217.515 7.35333 216.894 8.506 216.464 9.874C216.033 11.2167 215.818 12.7367 215.818 14.434C215.818 16.6633 216.16 18.6013 216.844 20.248C217.553 21.8947 218.592 23.1613 219.96 24.048C221.353 24.9347 223.088 25.378 225.166 25.378C226.356 25.378 227.484 25.2767 228.548 25.074C229.612 24.8713 230.65 24.618 231.664 24.314V27.278C230.65 27.658 229.599 27.9367 228.51 28.114C227.446 28.2913 226.166 28.38 224.672 28.38C221.91 28.38 219.605 27.81 217.756 26.67C215.906 25.53 214.513 23.9087 213.576 21.806C212.664 19.7033 212.208 17.2333 212.208 14.396C212.208 12.344 212.486 10.4693 213.044 8.772C213.626 7.07467 214.462 5.60533 215.552 4.364C216.666 3.12267 218.034 2.17267 219.656 1.514C221.277 0.829999 223.139 0.487999 225.242 0.487999C226.635 0.487999 227.978 0.627332 229.27 0.905998C230.562 1.18467 231.714 1.57733 232.728 2.084L231.36 4.972C230.524 4.592 229.586 4.25 228.548 3.946C227.534 3.642 226.42 3.49 225.204 3.49ZM267.421 28H263.393L253.779 15.042L251.005 17.474V28H247.585V0.867998H251.005V14.244C251.765 13.3827 252.538 12.5213 253.323 11.66C254.109 10.7987 254.894 9.93733 255.679 9.076L263.013 0.867998H267.003L256.249 12.686L267.421 28ZM296.275 28H281.113V0.867998H296.275V3.87H284.533V12.344H295.591V15.308H284.533V24.998H296.275V28ZM333.736 28H329.746L315.23 5.466H315.078C315.103 5.922 315.129 6.42867 315.154 6.986C315.205 7.54333 315.243 8.15133 315.268 8.81C315.293 9.44333 315.319 10.102 315.344 10.786C315.369 11.47 315.382 12.154 315.382 12.838V28H312.228V0.867998H316.18L330.658 23.326H330.81C330.785 23.022 330.759 22.604 330.734 22.072C330.709 21.5147 330.683 20.9067 330.658 20.248C330.633 19.564 330.607 18.8673 330.582 18.158C330.557 17.4487 330.544 16.79 330.544 16.182V0.867998H333.736V28ZM389.477 20.742C389.477 22.3633 389.085 23.744 388.299 24.884C387.514 25.9987 386.387 26.86 384.917 27.468C383.473 28.076 381.763 28.38 379.787 28.38C378.774 28.38 377.799 28.3293 376.861 28.228C375.949 28.1267 375.113 27.9873 374.353 27.81C373.593 27.6073 372.922 27.3667 372.339 27.088V23.82C373.251 24.2253 374.379 24.5927 375.721 24.922C377.089 25.2513 378.495 25.416 379.939 25.416C381.282 25.416 382.409 25.2387 383.321 24.884C384.233 24.5293 384.917 24.0227 385.373 23.364C385.829 22.7053 386.057 21.9327 386.057 21.046C386.057 20.1593 385.867 19.412 385.487 18.804C385.107 18.196 384.449 17.6387 383.511 17.132C382.599 16.6 381.32 16.0427 379.673 15.46C378.508 15.0293 377.482 14.5733 376.595 14.092C375.734 13.5853 375.012 13.0153 374.429 12.382C373.847 11.7487 373.403 11.0267 373.099 10.216C372.821 9.40533 372.681 8.468 372.681 7.404C372.681 5.96 373.049 4.73133 373.783 3.718C374.518 2.67933 375.531 1.88133 376.823 1.324C378.141 0.766665 379.648 0.487999 381.345 0.487999C382.84 0.487999 384.208 0.627332 385.449 0.905998C386.691 1.18467 387.818 1.552 388.831 2.008L387.767 4.934C386.83 4.52867 385.804 4.18667 384.689 3.908C383.6 3.62933 382.46 3.49 381.269 3.49C380.129 3.49 379.179 3.65467 378.419 3.984C377.659 4.31333 377.089 4.782 376.709 5.39C376.329 5.97267 376.139 6.65667 376.139 7.442C376.139 8.354 376.329 9.114 376.709 9.722C377.089 10.33 377.71 10.8747 378.571 11.356C379.433 11.8373 380.598 12.3567 382.067 12.914C383.663 13.4967 385.006 14.13 386.095 14.814C387.21 15.4727 388.046 16.2707 388.603 17.208C389.186 18.1453 389.477 19.3233 389.477 20.742ZM428.617 14.396C428.617 16.4987 428.351 18.4113 427.819 20.134C427.287 21.8313 426.489 23.3007 425.425 24.542C424.386 25.7833 423.082 26.7333 421.511 27.392C419.966 28.0507 418.167 28.38 416.115 28.38C413.987 28.38 412.138 28.0507 410.567 27.392C408.996 26.708 407.692 25.758 406.653 24.542C405.614 23.3007 404.842 21.8187 404.335 20.096C403.828 18.3733 403.575 16.4607 403.575 14.358C403.575 11.5713 404.031 9.13933 404.943 7.062C405.855 4.98467 407.236 3.36333 409.085 2.198C410.96 1.03267 413.316 0.449999 416.153 0.449999C418.864 0.449999 421.144 1.03267 422.993 2.198C424.842 3.338 426.236 4.95933 427.173 7.062C428.136 9.13933 428.617 11.584 428.617 14.396ZM407.185 14.396C407.185 16.676 407.502 18.6393 408.135 20.286C408.768 21.9327 409.744 23.1993 411.061 24.086C412.404 24.9727 414.088 25.416 416.115 25.416C418.167 25.416 419.839 24.9727 421.131 24.086C422.448 23.1993 423.424 21.9327 424.057 20.286C424.69 18.6393 425.007 16.676 425.007 14.396C425.007 10.976 424.298 8.30333 422.879 6.378C421.46 4.42733 419.218 3.452 416.153 3.452C414.101 3.452 412.404 3.89533 411.061 4.782C409.744 5.64333 408.768 6.89733 408.135 8.544C407.502 10.1653 407.185 12.116 407.185 14.396ZM466.366 14.168C466.366 17.208 465.796 19.754 464.656 21.806C463.542 23.858 461.933 25.4033 459.83 26.442C457.728 27.4807 455.182 28 452.192 28H444.63V0.867998H452.99C455.726 0.867998 458.095 1.37467 460.096 2.388C462.098 3.40133 463.643 4.896 464.732 6.872C465.822 8.82267 466.366 11.2547 466.366 14.168ZM462.756 14.282C462.756 11.8753 462.351 9.89933 461.54 8.354C460.755 6.80867 459.59 5.66867 458.044 4.934C456.524 4.174 454.675 3.794 452.496 3.794H448.05V25.074H451.736C455.41 25.074 458.158 24.1747 459.982 22.376C461.832 20.552 462.756 17.854 462.756 14.282ZM506.062 14.396C506.062 16.4987 505.796 18.4113 505.264 20.134C504.732 21.8313 503.934 23.3007 502.87 24.542C501.831 25.7833 500.527 26.7333 498.956 27.392C497.411 28.0507 495.612 28.38 493.56 28.38C491.432 28.38 489.583 28.0507 488.012 27.392C486.441 26.708 485.137 25.758 484.098 24.542C483.059 23.3007 482.287 21.8187 481.78 20.096C481.273 18.3733 481.02 16.4607 481.02 14.358C481.02 11.5713 481.476 9.13933 482.388 7.062C483.3 4.98467 484.681 3.36333 486.53 2.198C488.405 1.03267 490.761 0.449999 493.598 0.449999C496.309 0.449999 498.589 1.03267 500.438 2.198C502.287 3.338 503.681 4.95933 504.618 7.062C505.581 9.13933 506.062 11.584 506.062 14.396ZM484.63 14.396C484.63 16.676 484.947 18.6393 485.58 20.286C486.213 21.9327 487.189 23.1993 488.506 24.086C489.849 24.9727 491.533 25.416 493.56 25.416C495.612 25.416 497.284 24.9727 498.576 24.086C499.893 23.1993 500.869 21.9327 501.502 20.286C502.135 18.6393 502.452 16.676 502.452 14.396C502.452 10.976 501.743 8.30333 500.324 6.378C498.905 4.42733 496.663 3.452 493.598 3.452C491.546 3.452 489.849 3.89533 488.506 4.782C487.189 5.64333 486.213 6.89733 485.58 8.544C484.947 10.1653 484.63 12.116 484.63 14.396ZM195.853 68H192.433V40.868H207.595V43.87H195.853V53.484H206.873V56.486H195.853V68ZM245.812 54.396C245.812 56.4987 245.546 58.4113 245.014 60.134C244.482 61.8313 243.684 63.3007 242.62 64.542C241.581 65.7833 240.277 66.7333 238.706 67.392C237.161 68.0507 235.362 68.38 233.31 68.38C231.182 68.38 229.333 68.0507 227.762 67.392C226.191 66.708 224.887 65.758 223.848 64.542C222.809 63.3007 222.037 61.8187 221.53 60.096C221.023 58.3733 220.77 56.4607 220.77 54.358C220.77 51.5713 221.226 49.1393 222.138 47.062C223.05 44.9847 224.431 43.3633 226.28 42.198C228.155 41.0327 230.511 40.45 233.348 40.45C236.059 40.45 238.339 41.0327 240.188 42.198C242.037 43.338 243.431 44.9593 244.368 47.062C245.331 49.1393 245.812 51.584 245.812 54.396ZM224.38 54.396C224.38 56.676 224.697 58.6393 225.33 60.286C225.963 61.9327 226.939 63.1993 228.256 64.086C229.599 64.9727 231.283 65.416 233.31 65.416C235.362 65.416 237.034 64.9727 238.326 64.086C239.643 63.1993 240.619 61.9327 241.252 60.286C241.885 58.6393 242.202 56.676 242.202 54.396C242.202 50.976 241.493 48.3033 240.074 46.378C238.655 44.4273 236.413 43.452 233.348 43.452C231.296 43.452 229.599 43.8953 228.256 44.782C226.939 45.6433 225.963 46.8973 225.33 48.544C224.697 50.1653 224.38 52.116 224.38 54.396ZM269.312 40.868C271.566 40.868 273.416 41.1593 274.86 41.742C276.329 42.2993 277.418 43.148 278.128 44.288C278.837 45.428 279.192 46.8593 279.192 48.582C279.192 50.026 278.926 51.2293 278.394 52.192C277.862 53.1547 277.178 53.9273 276.342 54.51C275.531 55.0673 274.67 55.5107 273.758 55.84L281.206 68H277.216L270.642 56.79H265.246V68H261.826V40.868H269.312ZM269.122 43.832H265.246V53.902H269.312C270.781 53.902 271.984 53.712 272.922 53.332C273.859 52.9267 274.543 52.344 274.974 51.584C275.43 50.824 275.658 49.874 275.658 48.734C275.658 47.5433 275.417 46.5933 274.936 45.884C274.48 45.1747 273.77 44.6553 272.808 44.326C271.845 43.9967 270.616 43.832 269.122 43.832ZM307.434 68L298.504 44.212H298.352C298.403 44.7187 298.441 45.3647 298.466 46.15C298.517 46.9353 298.555 47.7967 298.58 48.734C298.606 49.646 298.618 50.5833 298.618 51.546V68H295.464V40.868H300.518L308.878 63.098H309.03L317.542 40.868H322.558V68H319.176V51.318C319.176 50.4313 319.189 49.5573 319.214 48.696C319.24 47.8093 319.278 46.986 319.328 46.226C319.379 45.4407 319.417 44.782 319.442 44.25H319.29L310.246 68H307.434Z" fill="url(#paint0_linear_432_534)"/>
<defs>
<linearGradient id="paint0_linear_432_534" x1="36.5103" y1="78.9997" x2="460.551" y2="78.9997" gradientUnits="userSpaceOnUse">
<stop stop-color="#CF94FE"/>
<stop offset="1" stop-color="#7193C7"/>
</linearGradient>
</defs>
</svg>
