<svg width="322" height="29" viewBox="0 0 322 29" fill="none" xmlns="http://www.w3.org/2000/svg">
<path d="M13.0669 3.49C11.6229 3.49 10.3183 3.74333 9.15293 4.25C7.9876 4.73133 6.9996 5.45333 6.18893 6.416C5.37826 7.35333 4.7576 8.506 4.32693 9.874C3.89626 11.2167 3.68093 12.7367 3.68093 14.434C3.68093 16.6633 4.02293 18.6013 4.70693 20.248C5.41626 21.8947 6.45493 23.1613 7.82293 24.048C9.21626 24.9347 10.9516 25.378 13.0289 25.378C14.2196 25.378 15.3469 25.2767 16.4109 25.074C17.4749 24.8713 18.5136 24.618 19.5269 24.314V27.278C18.5136 27.658 17.4623 27.9367 16.3729 28.114C15.3089 28.2913 14.0296 28.38 12.5349 28.38C9.7736 28.38 7.46826 27.81 5.61893 26.67C3.7696 25.53 2.37626 23.9087 1.43893 21.806C0.52693 19.7033 0.0709299 17.2333 0.0709299 14.396C0.0709299 12.344 0.349597 10.4693 0.90693 8.772C1.4896 7.07467 2.3256 5.60533 3.41493 4.364C4.5296 3.12267 5.8976 2.17267 7.51893 1.514C9.14026 0.829999 11.0023 0.487999 13.1049 0.487999C14.4983 0.487999 15.8409 0.627332 17.1329 0.905998C18.4249 1.18467 19.5776 1.57733 20.5909 2.084L19.2229 4.972C18.3869 4.592 17.4496 4.25 16.4109 3.946C15.3976 3.642 14.2829 3.49 13.0669 3.49ZM52.4727 28L49.2047 19.602H38.4507L35.2207 28H31.7627L42.3647 0.754H45.4427L56.0067 28H52.4727ZM45.1387 8.354C45.0627 8.15133 44.936 7.784 44.7587 7.252C44.5814 6.72 44.404 6.17533 44.2267 5.618C44.0747 5.03533 43.948 4.592 43.8467 4.288C43.72 4.79467 43.5807 5.314 43.4287 5.846C43.302 6.35267 43.1627 6.82133 43.0107 7.252C42.884 7.68267 42.77 8.05 42.6687 8.354L39.5907 16.562H48.1787L45.1387 8.354ZM69.7182 28V0.867998H73.1382V24.96H84.9942V28H69.7182ZM110.532 3.49C109.088 3.49 107.783 3.74333 106.618 4.25C105.452 4.73133 104.464 5.45333 103.654 6.416C102.843 7.35333 102.222 8.506 101.792 9.874C101.361 11.2167 101.146 12.7367 101.146 14.434C101.146 16.6633 101.488 18.6013 102.172 20.248C102.881 21.8947 103.92 23.1613 105.288 24.048C106.681 24.9347 108.416 25.378 110.494 25.378C111.684 25.378 112.812 25.2767 113.876 25.074C114.94 24.8713 115.978 24.618 116.992 24.314V27.278C115.978 27.658 114.927 27.9367 113.838 28.114C112.774 28.2913 111.494 28.38 110 28.38C107.238 28.38 104.933 27.81 103.084 26.67C101.234 25.53 99.8411 23.9087 98.9038 21.806C97.9918 19.7033 97.5358 17.2333 97.5358 14.396C97.5358 12.344 97.8144 10.4693 98.3718 8.772C98.9544 7.07467 99.7904 5.60533 100.88 4.364C101.994 3.12267 103.362 2.17267 104.984 1.514C106.605 0.829999 108.467 0.487999 110.57 0.487999C111.963 0.487999 113.306 0.627332 114.598 0.905998C115.89 1.18467 117.042 1.57733 118.056 2.084L116.688 4.972C115.852 4.592 114.914 4.25 113.876 3.946C112.862 3.642 111.748 3.49 110.532 3.49ZM153.548 18.424C153.548 20.2987 153.168 21.996 152.408 23.516C151.648 25.0107 150.482 26.2013 148.912 27.088C147.366 27.9493 145.39 28.38 142.984 28.38C139.614 28.38 137.043 27.468 135.27 25.644C133.522 23.7947 132.648 21.3627 132.648 18.348V0.867998H136.068V18.462C136.068 20.666 136.65 22.376 137.816 23.592C139.006 24.808 140.792 25.416 143.174 25.416C144.82 25.416 146.15 25.1247 147.164 24.542C148.202 23.934 148.962 23.1107 149.444 22.072C149.925 21.008 150.166 19.792 150.166 18.424V0.867998H153.548V18.424ZM170.708 28V0.867998H174.128V24.96H185.984V28H170.708ZM217.66 28L214.392 19.602H203.638L200.408 28H196.95L207.552 0.754H210.63L221.194 28H217.66ZM210.326 8.354C210.25 8.15133 210.124 7.784 209.946 7.252C209.769 6.72 209.592 6.17533 209.414 5.618C209.262 5.03533 209.136 4.592 209.034 4.288C208.908 4.79467 208.768 5.314 208.616 5.846C208.49 6.35267 208.35 6.82133 208.198 7.252C208.072 7.68267 207.958 8.05 207.856 8.354L204.778 16.562H213.366L210.326 8.354ZM240.822 28H237.402V3.87H228.928V0.867998H249.258V3.87H240.822V28ZM286.281 14.396C286.281 16.4987 286.015 18.4113 285.483 20.134C284.951 21.8313 284.153 23.3007 283.089 24.542C282.05 25.7833 280.746 26.7333 279.175 27.392C277.63 28.0507 275.831 28.38 273.779 28.38C271.651 28.38 269.802 28.0507 268.231 27.392C266.66 26.708 265.356 25.758 264.317 24.542C263.278 23.3007 262.506 21.8187 261.999 20.096C261.492 18.3733 261.239 16.4607 261.239 14.358C261.239 11.5713 261.695 9.13933 262.607 7.062C263.519 4.98467 264.9 3.36333 266.749 2.198C268.624 1.03267 270.98 0.449999 273.817 0.449999C276.528 0.449999 278.808 1.03267 280.657 2.198C282.506 3.338 283.9 4.95933 284.837 7.062C285.8 9.13933 286.281 11.584 286.281 14.396ZM264.849 14.396C264.849 16.676 265.166 18.6393 265.799 20.286C266.432 21.9327 267.408 23.1993 268.725 24.086C270.068 24.9727 271.752 25.416 273.779 25.416C275.831 25.416 277.503 24.9727 278.795 24.086C280.112 23.1993 281.088 21.9327 281.721 20.286C282.354 18.6393 282.671 16.676 282.671 14.396C282.671 10.976 281.962 8.30333 280.543 6.378C279.124 4.42733 276.882 3.452 273.817 3.452C271.765 3.452 270.068 3.89533 268.725 4.782C267.408 5.64333 266.432 6.89733 265.799 8.544C265.166 10.1653 264.849 12.116 264.849 14.396ZM309.78 0.867998C312.035 0.867998 313.884 1.15933 315.328 1.742C316.798 2.29933 317.887 3.148 318.596 4.288C319.306 5.428 319.66 6.85933 319.66 8.582C319.66 10.026 319.394 11.2293 318.862 12.192C318.33 13.1547 317.646 13.9273 316.81 14.51C316 15.0673 315.138 15.5107 314.226 15.84L321.674 28H317.684L311.11 16.79H305.714V28H302.294V0.867998H309.78ZM309.59 3.832H305.714V13.902H309.78C311.25 13.902 312.453 13.712 313.39 13.332C314.328 12.9267 315.012 12.344 315.442 11.584C315.898 10.824 316.126 9.874 316.126 8.734C316.126 7.54333 315.886 6.59333 315.404 5.884C314.948 5.17467 314.239 4.65533 313.276 4.326C312.314 3.99667 311.085 3.832 309.59 3.832Z" fill="url(#paint0_linear_438_840)"/>
<defs>
<linearGradient id="paint0_linear_438_840" x1="-60.9897" y1="38.4998" x2="363.051" y2="38.4999" gradientUnits="userSpaceOnUse">
<stop stop-color="#CF94FE"/>
<stop offset="1" stop-color="#7193C7"/>
</linearGradient>
</defs>
</svg>
