<svg width="24" height="24" viewBox="0 0 24 24" fill="none" xmlns="http://www.w3.org/2000/svg">
<g clip-path="url(#clip0_291_214)">
<path d="M19.9999 0H3.99988C3.20423 0 2.44117 0.31607 1.87856 0.87868C1.31595 1.44129 0.999878 2.20435 0.999878 3V24H22.9999V3C22.9999 2.20435 22.6838 1.44129 22.1212 0.87868C21.5586 0.31607 20.7955 0 19.9999 0V0ZM6.99988 19H4.99988V17H6.99988V19ZM6.99988 15H4.99988V13H6.99988V15ZM10.9999 19H8.99988V17H10.9999V19ZM10.9999 15H8.99988V13H10.9999V15ZM18.9999 19H12.9999V17H18.9999V19ZM12.9999 15V13H14.9999V15H12.9999ZM18.9999 15H16.9999V13H18.9999V15ZM18.9999 10H4.99988V4H18.9999V10ZM16.9999 8H6.99988V6H16.9999V8Z" fill="white"/>
</g>
<defs>
<clipPath id="clip0_291_214">
<rect width="24" height="24" fill="white"/>
</clipPath>
</defs>
</svg>
