<svg width="32" height="31" viewBox="0 0 32 31" fill="none" xmlns="http://www.w3.org/2000/svg">
<g clip-path="url(#clip0_98_109)">
<path d="M22.6091 4.81194C22.359 4.4732 22.0084 4.22203 21.6072 4.09422C21.206 3.9664 20.7747 3.96847 20.3748 4.10013C19.9748 4.23178 19.6266 4.4863 19.3798 4.82743C19.133 5.16856 19.0001 5.57888 19.0001 5.99994V27.9999H21.0001V23.6659C25.8001 18.4139 28.4001 12.1559 22.6091 4.81194ZM16.0001 3.99994V12.9999C16.0001 13.7956 15.6841 14.5587 15.1214 15.1213C14.5588 15.6839 13.7958 15.9999 13.0001 15.9999H12.0001V27.9999H10.0001V15.9999H9.00012C8.20447 15.9999 7.44141 15.6839 6.8788 15.1213C6.31619 14.5587 6.00012 13.7956 6.00012 12.9999V3.99994H8.00012V12.9999C8.00012 13.2652 8.10548 13.5195 8.29302 13.707C8.48055 13.8946 8.73491 13.9999 9.00012 13.9999H10.0001V3.99994H12.0001V13.9999H13.0001C13.2653 13.9999 13.5197 13.8946 13.7072 13.707C13.8948 13.5195 14.0001 13.2652 14.0001 12.9999V3.99994H16.0001Z" fill="#333333"/>
</g>
<defs>
<clipPath id="clip0_98_109">
<rect width="24" height="24" fill="white" transform="translate(4 4)"/>
</clipPath>
</defs>
</svg>
