<svg width="164" height="195" viewBox="0 0 164 195" fill="none" xmlns="http://www.w3.org/2000/svg">
<path d="M114.89 32.8814C114.908 33.2336 114.696 33.4654 114.469 33.6928C113.326 34.8341 112.195 35.9866 111.036 37.11C110.749 37.3887 110.773 37.5358 111.045 37.8011C112.202 38.929 113.339 40.077 114.476 41.2228C115.058 41.809 115.064 42.217 114.489 42.7921C103.95 53.3336 93.4105 63.873 82.8689 74.4123C82.2871 74.9941 81.8658 74.9606 81.2127 74.3075C74.9265 68.0191 68.6382 61.733 62.352 55.4446C58.1925 51.2828 54.0307 47.121 49.8711 42.9615C49.0798 42.1679 49.0753 41.8558 49.8578 41.0734C50.9344 39.9968 51.9955 38.9045 53.0945 37.8546C53.4444 37.5202 53.3998 37.3508 53.0789 37.0387C51.9576 35.9576 50.8653 34.843 49.7641 33.7374C49.1043 33.0753 49.0999 32.7053 49.7552 32.0499C60.2678 21.5351 70.7804 11.0225 81.2952 0.509973C81.8569 -0.0517676 82.3183 -0.0584549 82.8712 0.494369C93.4105 11.0359 103.948 21.5775 114.487 32.119C114.701 32.333 114.897 32.5537 114.89 32.8814ZM112.73 32.897C112.626 32.7788 112.534 32.6674 112.434 32.5671C102.436 22.565 92.4363 12.5651 82.4432 2.55631C82.1712 2.28436 82.0285 2.27098 81.7477 2.54963C71.7545 12.5562 61.7546 22.5583 51.7481 32.5492C51.4605 32.8368 51.5006 32.9839 51.7659 33.2447C53.5113 34.9634 55.2456 36.6932 56.9776 38.4252C65.2075 46.6529 73.4375 54.8784 81.6563 63.1173C81.9973 63.4583 82.1601 63.4851 82.5145 63.1262C85.5171 60.0923 88.5398 57.0786 91.5603 54.0626C98.4795 47.15 105.399 40.2375 112.318 33.325C112.452 33.1957 112.574 33.0597 112.73 32.897ZM112.719 41.9874C112.623 41.8848 112.539 41.7867 112.447 41.6954C111.609 40.855 110.744 40.0369 109.937 39.1653C109.569 38.7685 109.371 38.7863 108.992 39.1653C100.356 47.8255 91.7052 56.47 83.0584 65.119C82.2626 65.9148 81.9149 65.9171 81.1257 65.128C75.943 59.9452 70.7581 54.7603 65.5753 49.5775C62.0845 46.0867 58.5893 42.6004 55.1096 39.0984C54.802 38.7886 54.6326 38.7752 54.3272 39.0962C53.5224 39.9455 52.7044 40.7814 51.8439 41.5727C51.4471 41.9383 51.5296 42.13 51.8662 42.4666C61.7947 52.3796 71.7166 62.2992 81.6251 72.2322C82.0129 72.62 82.189 72.5911 82.5591 72.221C92.4676 62.288 102.389 52.3684 112.309 42.4466C112.4 42.3552 112.494 42.2638 112.583 42.1679C112.637 42.1189 112.672 42.0542 112.719 41.9874Z" fill="white"/>
<path d="M93.3079 183.825C93.3035 183.528 93.299 183.229 93.2968 182.933C93.4462 183.227 93.435 183.526 93.3079 183.825Z" fill="white"/>
<path d="M93.1029 183.93C93.1634 183.905 93.2239 183.878 93.2821 183.854C93.2216 183.878 93.1611 183.905 93.1029 183.93Z" fill="white"/>
<path d="M66.7746 160.321C64.3672 160.312 61.9597 160.285 59.5522 160.303C59.0195 160.307 58.8701 160.169 58.8746 159.63C58.9013 156.906 58.888 154.182 58.8857 151.458C58.8857 151.255 58.8634 151.052 58.8523 150.849C58.8634 150.646 58.8835 150.443 58.8835 150.241C58.8857 132.512 58.8857 114.786 58.8835 97.058C58.8835 96.873 58.8701 96.688 58.8612 96.5029C58.9348 96.5052 59.0106 96.5052 59.0841 96.5074C60.5286 98.5069 61.9664 100.511 63.4198 102.504C71.9551 114.218 80.4949 125.927 89.0347 137.639C89.1751 137.833 89.32 138.023 89.5162 138.288C99.6988 124.322 109.848 110.404 119.995 96.4896C120.202 96.581 120.129 96.7303 120.129 96.8418C120.133 117.818 120.131 138.792 120.142 159.768C120.142 160.185 120.031 160.303 119.612 160.301C115.789 160.285 111.964 160.283 108.141 160.303C107.643 160.305 107.525 160.167 107.525 159.681C107.541 151.551 107.536 143.422 107.536 135.29C107.536 135.074 107.536 134.857 107.536 134.574C107.271 134.69 107.189 134.88 107.079 135.033C101.351 142.936 95.624 150.842 89.8951 158.745C89.514 159.271 89.5117 159.271 89.135 158.751C83.4061 150.847 77.6795 142.942 71.9507 135.038C71.8437 134.891 71.7322 134.746 71.5985 134.568C71.4134 134.793 71.487 135.02 71.487 135.221C71.4825 143.332 71.4848 151.444 71.4848 159.556C71.4848 160.292 71.4848 160.289 70.7246 160.292C69.4094 160.298 68.092 160.31 66.7746 160.321Z" fill="white"/>
<path d="M30.5758 110.005C26.7395 110.205 23.3133 111.485 20.2884 113.861C13.3246 119.334 10.8057 128.33 14.3366 136.451C17.0472 142.684 21.8666 146.64 28.6922 147.731C34.9092 148.723 40.4107 147.089 45.0005 142.679C45.2591 142.432 45.3884 142.468 45.6202 142.699C48.3955 145.49 51.1752 148.277 53.9727 151.043C54.3026 151.368 54.1399 151.502 53.9059 151.723C49.5056 155.842 44.4209 158.742 38.5048 159.953C30.6739 161.556 23.0792 160.738 16.16 156.58C6.85119 150.985 1.11341 142.847 0.210612 131.852C-0.776892 119.842 3.87084 110.25 13.4561 103.019C16.3896 100.805 19.6642 99.2737 23.1952 98.2818C23.2821 98.2573 23.3623 98.2105 23.447 98.1748C24.7399 97.9452 26.0128 97.6175 27.319 97.4548C28.6654 97.2876 30.0185 97.1516 31.3671 97.1895C39.8735 97.4258 47.3634 100.248 53.6607 106.055C53.7699 106.155 53.868 106.269 53.9861 106.36C54.1957 106.523 54.2001 106.659 53.9973 106.844C53.6807 107.131 53.3909 107.444 53.0878 107.744C50.6068 110.225 48.1213 112.7 45.6536 115.192C45.3482 115.502 45.1877 115.502 44.8712 115.201C40.861 111.402 36.0929 109.67 30.5758 110.005Z" fill="white"/>
<path d="M132.367 141.522C134.297 141.522 136.228 141.534 138.158 141.513C138.566 141.509 138.686 141.62 138.713 142.035C138.911 145.082 141.473 147.735 144.4 147.838C148.742 147.987 151.901 144.509 151.243 140.214C150.938 138.23 149.89 136.906 147.991 136.23C145.044 135.183 142.086 134.164 139.172 133.032C135.198 131.487 131.919 128.955 129.186 125.7C126.52 122.528 125.637 118.794 125.98 114.771C126.656 106.855 130.947 101.496 138.071 98.3174C140.485 97.2408 143.109 96.9354 145.75 97.0758C153.697 97.4971 159.154 101.614 162.571 108.618C163.653 110.834 164.052 113.233 163.882 115.714C163.86 116.043 163.755 116.106 163.456 116.106C159.578 116.097 155.697 116.095 151.818 116.11C151.457 116.113 151.41 115.983 151.386 115.667C151.163 112.744 149.041 110.395 146.201 109.902C141.963 109.167 138.466 112.624 138.771 116.71C138.923 118.718 139.899 120.19 141.549 121.351C143.793 122.934 146.321 123.747 148.92 124.465C153.974 125.861 158.135 128.647 161.408 132.744C162.707 134.371 163.479 136.248 163.829 138.299C163.862 138.497 163.867 138.705 163.867 138.908C163.869 140.225 163.824 141.545 163.878 142.862C164.007 146.05 162.993 148.908 161.303 151.525C158.804 155.394 155.463 158.323 151.011 159.703C138.397 163.615 127.654 154.804 126.156 144.449C126.038 143.64 125.996 142.826 125.958 142.008C125.94 141.612 126.074 141.509 126.46 141.511C128.43 141.531 130.398 141.522 132.367 141.522Z" fill="white"/>
<path d="M146.198 186.464C147.474 187.092 147.928 187.886 147.645 188.943C147.42 189.785 146.629 190.436 145.623 190.499C144.663 190.559 143.697 190.53 142.734 190.55C142.48 190.554 142.373 190.474 142.376 190.202C142.384 187.886 142.384 185.57 142.376 183.254C142.376 182.986 142.471 182.899 142.73 182.904C143.655 182.922 144.585 182.879 145.507 182.942C147.048 183.047 147.868 184.538 147.108 185.764C146.896 186.112 146.54 186.259 146.198 186.464ZM143.428 188.301C143.428 188.635 143.43 188.967 143.425 189.302C143.423 189.487 143.45 189.634 143.688 189.627C144.281 189.614 144.879 189.654 145.465 189.587C146.172 189.504 146.611 188.956 146.6 188.298C146.589 187.614 146.116 187.13 145.369 187.041C145.186 187.019 145.001 186.99 144.816 186.981C143.428 186.916 143.428 186.916 143.428 188.301ZM143.43 184.921C143.43 185.198 143.434 185.476 143.428 185.753C143.423 185.949 143.477 186.069 143.704 186.065C144.221 186.051 144.743 186.087 145.256 186.036C145.9 185.971 146.301 185.467 146.268 184.866C146.232 184.248 145.806 183.856 145.126 183.825C144.923 183.816 144.721 183.82 144.518 183.82C143.428 183.818 143.428 183.818 143.43 184.921Z" fill="white"/>
<path d="M127.291 185.664C127.291 184.886 127.32 184.105 127.28 183.328C127.255 182.835 127.55 182.911 127.842 182.904C128.131 182.897 128.368 182.866 128.357 183.314C128.325 184.797 128.33 186.281 128.348 187.763C128.363 189.032 129.215 189.812 130.454 189.736C131.451 189.674 132.159 188.847 132.168 187.703C132.179 186.277 132.195 184.848 132.155 183.421C132.142 182.926 132.358 182.915 132.737 182.893C133.185 182.866 133.247 183.047 133.241 183.437C133.218 184.901 133.247 186.366 133.227 187.83C133.207 189.299 132.249 190.423 130.831 190.688C129.344 190.967 128.02 190.249 127.465 188.865C127.331 188.533 127.282 188.187 127.284 187.83C127.289 187.108 127.287 186.384 127.287 185.661C127.289 185.664 127.291 185.664 127.291 185.664Z" fill="white"/>
<path d="M118.134 186.776C118.134 187.891 118.109 189.005 118.145 190.117C118.161 190.606 117.884 190.545 117.583 190.552C117.276 190.561 117.059 190.55 117.077 190.122C117.113 189.25 117.077 188.376 117.093 187.505C117.099 187.193 117.055 187.037 116.678 187.046C115.622 187.072 114.563 187.064 113.504 187.05C113.21 187.046 113.12 187.146 113.125 187.434C113.14 188.305 113.103 189.179 113.141 190.051C113.161 190.503 112.973 190.565 112.59 190.561C112.231 190.559 112.066 190.503 112.071 190.082C112.091 187.837 112.091 185.59 112.071 183.345C112.066 182.94 112.238 182.882 112.565 182.908C112.848 182.931 113.165 182.824 113.138 183.327C113.1 184.105 113.141 184.886 113.123 185.666C113.114 185.987 113.227 186.076 113.54 186.072C114.596 186.056 115.655 186.056 116.714 186.072C117.008 186.076 117.099 185.976 117.093 185.686C117.077 184.944 117.113 184.199 117.079 183.459C117.059 183.029 117.177 182.891 117.626 182.895C118.056 182.9 118.152 183.035 118.143 183.439C118.116 184.547 118.134 185.661 118.134 186.776Z" fill="white"/>
<path d="M90.9451 183.936C90.74 184.092 90.8447 184.313 90.8447 184.5C90.8358 186.352 90.8225 188.207 90.8514 190.059C90.8581 190.525 90.6553 190.55 90.2897 190.559C89.9063 190.568 89.7859 190.458 89.7904 190.064C89.8104 188.174 89.7859 186.283 89.8082 184.395C89.8127 183.974 89.6834 183.842 89.271 183.867C88.7538 183.898 88.2322 183.854 87.7151 183.88C87.2982 183.903 87.3406 183.648 87.3361 183.381C87.3316 183.102 87.3183 182.895 87.7262 182.9C89.5786 182.924 91.431 182.917 93.2834 182.92L93.2968 182.931C93.3012 183.227 93.3035 183.526 93.3079 183.822H93.279V183.851C93.2188 183.876 93.1586 183.903 93.1006 183.927C92.3828 183.845 91.6628 183.829 90.9451 183.936Z" fill="white"/>
<path d="M61.6209 182.71C63.9369 182.706 65.6244 184.389 65.6311 186.709C65.6378 189.016 63.9392 190.728 61.6432 190.735C59.3472 190.742 57.633 189.027 57.6352 186.729C57.6374 184.393 59.3048 182.714 61.6209 182.71ZM61.6075 183.698C59.9044 183.702 58.7364 184.986 58.7475 186.843C58.7565 188.495 59.9958 189.745 61.6253 189.747C63.3418 189.75 64.5165 188.481 64.5143 186.629C64.5143 184.946 63.2749 183.695 61.6075 183.698Z" fill="white"/>
<path d="M19.7846 187.104C20.4957 188.252 21.1778 189.351 21.8644 190.456C20.8568 190.713 20.6629 190.632 20.1658 189.77C19.7311 189.016 19.2964 188.261 18.8595 187.507C18.6968 187.226 17.901 187.021 17.6335 187.188C17.4752 187.286 17.5332 187.454 17.5309 187.594C17.5265 188.428 17.4997 189.264 17.5399 190.095C17.5622 190.552 17.3281 190.548 17.0004 190.552C16.6616 190.557 16.461 190.534 16.4654 190.093C16.4877 187.85 16.4833 185.608 16.4676 183.365C16.4654 183.002 16.5657 182.886 16.9335 182.9C17.7851 182.928 18.6388 182.897 19.4903 182.929C20.7119 182.971 21.4676 183.617 21.6214 184.71C21.7707 185.762 21.1756 186.622 20.0454 186.999C19.9741 187.021 19.9072 187.052 19.7846 187.104ZM17.5287 184.993C17.5287 185.307 17.5376 185.624 17.5265 185.938C17.5198 186.159 17.5666 186.286 17.8274 186.274C18.4204 186.252 19.0133 186.31 19.6018 186.179C20.1502 186.056 20.489 185.681 20.5247 185.149C20.5648 184.547 20.2616 184.103 19.7021 183.918C19.3767 183.811 19.0445 183.816 18.7124 183.813C17.5265 183.813 17.5265 183.813 17.5287 184.993Z" fill="white"/>
<path d="M79.8529 190.49C78.968 190.699 78.4129 190.501 78.0562 189.676C77.7263 188.916 77.2426 188.22 76.8213 187.498C76.6586 187.222 75.8427 187.03 75.5953 187.206C75.4459 187.313 75.4994 187.476 75.4994 187.616C75.4927 188.452 75.4705 189.288 75.5061 190.122C75.524 190.552 75.3055 190.561 75.0001 190.55C74.7059 190.539 74.4272 190.619 74.4339 190.124C74.4607 187.859 74.4495 185.595 74.4406 183.33C74.4384 183.033 74.5008 182.895 74.8352 182.904C75.7067 182.928 76.5806 182.9 77.4522 182.929C78.6559 182.969 79.4361 183.617 79.5743 184.652C79.7281 185.795 79.1753 186.624 78.0094 186.999C77.9403 187.021 77.8735 187.052 77.7509 187.101C78.4508 188.227 79.1396 189.339 79.8529 190.49ZM75.495 185.035C75.495 185.349 75.5017 185.666 75.4927 185.98C75.4883 186.187 75.5618 186.283 75.7825 186.277C76.3732 186.257 76.9684 186.315 77.5547 186.185C78.1454 186.054 78.4664 185.693 78.4865 185.113C78.5088 184.493 78.2212 184.099 77.6327 183.914C77.3251 183.816 77.0108 183.822 76.6965 183.82C75.4927 183.813 75.4927 183.813 75.495 185.035Z" fill="white"/>
<path d="M30.4265 186.774C30.4265 185.641 30.4376 184.509 30.4198 183.379C30.4153 183.038 30.4822 182.891 30.8723 182.9C32.2075 182.924 33.545 182.924 34.8803 182.9C35.2748 182.893 35.3751 183.015 35.3796 183.401C35.3863 183.82 35.2146 183.887 34.8535 183.88C33.8705 183.86 32.8874 183.885 31.9021 183.867C31.5633 183.86 31.4407 183.974 31.4585 184.315C31.4831 184.796 31.4831 185.28 31.4585 185.762C31.4429 186.089 31.5745 186.17 31.8798 186.163C32.7693 186.147 33.6609 186.165 34.5526 186.152C34.9003 186.147 35.1255 186.143 35.1277 186.629C35.1299 187.133 34.9003 187.153 34.5214 187.146C33.6498 187.13 32.776 187.153 31.9044 187.135C31.5722 187.128 31.4385 187.217 31.4585 187.57C31.4853 188.087 31.4875 188.611 31.4585 189.128C31.4362 189.509 31.5901 189.598 31.9423 189.591C32.981 189.574 34.0198 189.598 35.0586 189.578C35.4197 189.571 35.5869 189.638 35.5824 190.055C35.578 190.441 35.4732 190.561 35.0831 190.554C33.6721 190.532 32.2633 190.534 30.8522 190.554C30.5022 190.559 30.4131 190.452 30.4198 190.113C30.4398 189.001 30.4265 187.888 30.4265 186.774Z" fill="white"/>
<path d="M44.3652 186.716C44.3652 185.603 44.3763 184.491 44.3585 183.379C44.3518 183.031 44.4343 182.886 44.8132 182.9C45.7027 182.931 46.5921 182.895 47.4815 182.933C48.7521 182.989 49.5145 183.796 49.5145 185.031C49.5145 186.252 48.741 187.081 47.4904 187.157C46.9554 187.191 46.4138 187.191 45.8788 187.164C45.5132 187.144 45.3928 187.26 45.4017 187.627C45.4263 188.423 45.3772 189.224 45.4196 190.017C45.4441 190.492 45.2457 190.541 44.8445 190.561C44.3696 190.583 44.3518 190.356 44.3563 189.995C44.3741 188.903 44.3652 187.808 44.3652 186.716ZM45.4107 185.048C45.4107 185.345 45.4173 185.641 45.4084 185.938C45.4017 186.158 45.4552 186.286 45.7138 186.277C46.3045 186.257 46.8997 186.312 47.486 186.181C48.0455 186.054 48.3709 185.697 48.4021 185.153C48.44 184.529 48.1592 184.114 47.5885 183.923C47.2831 183.82 46.9688 183.82 46.6545 183.818C45.4107 183.811 45.4107 183.811 45.4107 185.048Z" fill="white"/>
<path d="M105.223 32.8502C105.24 33.2581 105 33.4922 104.759 33.7307C102.106 36.3811 99.4581 39.0315 96.8054 41.682C92.2 46.2874 87.5924 50.8927 82.9871 55.4981C82.3005 56.1847 81.8836 56.1892 81.2104 55.5137C73.968 48.2691 66.7256 41.0266 59.4854 33.7819C58.7698 33.0664 58.7676 32.7209 59.4742 32.0143C66.7278 24.754 73.9836 17.4959 81.2394 10.2401C81.8792 9.60037 82.3027 9.59814 82.9358 10.2312C90.205 17.5004 97.4719 24.7718 104.741 32.0432C104.975 32.2773 105.234 32.5024 105.223 32.8502ZM82.0887 11.9253C81.9349 12.0702 81.7989 12.1951 81.6696 12.3244C74.9511 19.043 68.2369 25.7638 61.505 32.469C61.1371 32.8346 61.1973 32.9995 61.525 33.325C68.2525 40.0347 74.9689 46.7532 81.6763 53.483C81.9862 53.7951 82.1467 53.8508 82.4922 53.5053C89.2242 46.7488 95.9695 40.0057 102.724 33.2715C103.04 32.9549 103.014 32.7989 102.713 32.5002C98.805 28.6148 94.9107 24.7139 91.0142 20.8173C88.1653 17.9707 85.3187 15.1241 82.4699 12.2776C82.354 12.1594 82.2292 12.0546 82.0887 11.9253Z" fill="white"/>
<path d="M82.0709 19.4353C82.4588 19.4375 82.7151 19.6716 82.9692 19.9257C85.6955 22.6586 88.4239 25.387 91.1546 28.1177C92.4542 29.4173 93.7515 30.7147 95.0511 32.0165C95.7399 32.7075 95.7466 33.0642 95.0712 33.7396C91.0298 37.781 86.9884 41.8224 82.9447 45.8616C82.3094 46.4947 81.8792 46.4969 81.2506 45.8683C77.2092 41.8269 73.1678 37.7855 69.1264 33.744C68.4621 33.0798 68.4576 32.7075 69.1108 32.0544C73.1633 27.9974 77.2203 23.9448 81.2707 19.8878C81.4958 19.6582 81.7321 19.4598 82.0709 19.4353ZM82.14 44.1474C82.2359 44.0582 82.3451 43.9601 82.4499 43.8576C85.9919 40.3155 89.5296 36.7712 93.0828 33.238C93.3659 32.9549 93.3436 32.8123 93.0739 32.5448C89.5229 29.0116 85.983 25.4695 82.4499 21.9185C82.1824 21.651 82.0352 21.622 81.7499 21.9051C78.2056 25.4695 74.6501 29.025 71.0858 32.5693C70.8138 32.839 70.8517 32.975 71.0991 33.2202C72.5124 34.6134 73.9101 36.0222 75.3144 37.4266C77.4522 39.5643 79.5899 41.7043 81.7276 43.842C81.8413 43.9557 81.9282 44.1095 82.14 44.1474Z" fill="white"/>
<path d="M82.1155 36.6753C81.8346 36.6508 81.5916 36.5416 81.3843 36.3343C80.4838 35.427 79.5721 34.5309 78.6782 33.6192C78.1744 33.1065 78.1722 32.6785 78.6693 32.1725C79.5631 31.2608 80.4682 30.3558 81.3799 29.4619C81.8814 28.9692 82.3228 28.9715 82.831 29.473C83.7428 30.3691 84.6455 31.2719 85.5417 32.1837C86.0209 32.6718 86.0276 33.1043 85.5528 33.588C84.6455 34.5153 83.7205 35.4226 82.8065 36.3432C82.6148 36.5327 82.3874 36.6374 82.1155 36.6753ZM82.0865 34.4774C82.1467 34.444 82.2024 34.4284 82.2403 34.3905C82.6995 33.9357 83.1543 33.4765 83.6112 33.0218C83.7494 32.8858 83.6558 32.79 83.5555 32.703C83.0495 32.2528 82.6616 31.6799 82.0731 31.3187C81.5961 31.7779 81.1213 32.2394 80.6398 32.6964C80.5105 32.819 80.4726 32.917 80.6175 33.0597C81.0544 33.4855 81.4802 33.9201 81.9126 34.3481C81.9639 34.3994 82.0285 34.4351 82.0865 34.4774Z" fill="white"/>
</svg>
