<svg width="71" height="40" viewBox="0 0 71 40" fill="none" xmlns="http://www.w3.org/2000/svg">
<g id="Group 2">
<g id="Group 1">
<path id="Vector" d="M27.9476 25.044C27.0546 25.0405 26.1615 25.0301 25.2685 25.037C25.0709 25.0388 25.0155 24.9846 25.0171 24.7729C25.027 23.7042 25.0221 22.6354 25.0213 21.5666C25.0213 21.4871 25.013 21.4075 25.0089 21.3279C25.013 21.2483 25.0204 21.1687 25.0204 21.0891C25.0213 14.1335 25.0213 7.17868 25.0204 0.223021C25.0204 0.150429 25.0155 0.0778388 25.0122 0.00524736C25.0394 0.00612195 25.0676 0.00612099 25.0948 0.00699559C25.6307 0.791508 26.164 1.57777 26.7031 2.35966C29.8693 6.95566 33.0371 11.5499 36.2049 16.145C36.257 16.2211 36.3108 16.2955 36.3836 16.3995C40.1608 10.9202 43.9256 5.45922 47.6896 0C47.7665 0.0358584 47.7392 0.0944551 47.7392 0.138185C47.7409 8.36813 47.7401 16.5972 47.7442 24.8271C47.7442 24.9907 47.7029 25.037 47.5474 25.0362C46.1293 25.03 44.7103 25.0292 43.2922 25.037C43.1078 25.0379 43.064 24.9837 43.064 24.793C43.0698 21.6034 43.0681 18.4137 43.0681 15.2232C43.0681 15.1384 43.0681 15.0535 43.0681 14.9425C42.9697 14.9879 42.9391 15.0623 42.8986 15.1226C40.7735 18.2231 38.6492 21.3253 36.5241 24.4257C36.3827 24.6321 36.3819 24.6321 36.2422 24.4283C34.117 21.327 31.9928 18.2257 29.8677 15.1244C29.828 15.0667 29.7866 15.0098 29.737 14.9398C29.6684 15.0282 29.6957 15.1174 29.6957 15.1961C29.694 18.3787 29.6948 21.5614 29.6948 24.7441C29.6948 25.0327 29.6948 25.0318 29.4129 25.0327C28.925 25.0353 28.4363 25.0397 27.9476 25.044Z" fill="white"/>
<path id="Vector_2" d="M14.5197 5.30267C13.0966 5.38138 11.8257 5.8834 10.7036 6.81572C8.12037 8.96285 7.18599 12.4927 8.49578 15.6789C9.50128 18.1242 11.289 19.6766 13.821 20.1043C16.1272 20.4935 18.1679 19.8524 19.8705 18.1225C19.9664 18.0254 20.0144 18.0394 20.1004 18.1304C21.1298 19.2253 22.161 20.3186 23.1987 21.404C23.3211 21.5317 23.2607 21.5841 23.1739 21.6707C21.5416 23.287 19.6555 24.4248 17.4609 24.8997C14.5561 25.5286 11.7388 25.2076 9.17218 23.5765C5.71908 21.3812 3.59067 18.1881 3.25578 13.8746C2.88947 9.16226 4.61353 5.39887 8.16916 2.56168C9.25735 1.69321 10.472 1.09236 11.7818 0.703169C11.8141 0.693549 11.8439 0.675184 11.8753 0.66119C12.3549 0.571107 12.827 0.442541 13.3116 0.378695C13.811 0.313101 14.313 0.25975 14.8132 0.274618C17.9686 0.367325 20.747 1.47456 23.083 3.75289C23.1235 3.79224 23.1599 3.83685 23.2037 3.8727C23.2814 3.93655 23.2831 3.9899 23.2078 4.06249C23.0904 4.17531 22.9829 4.29776 22.8704 4.41583C21.9501 5.38925 21.0281 6.36005 20.1128 7.33785C19.9995 7.45942 19.9399 7.45942 19.8225 7.34135C18.335 5.85104 16.5662 5.17148 14.5197 5.30267Z" fill="white"/>
<path id="Vector_3" d="M52.2788 17.6686C52.9949 17.6686 53.711 17.6729 54.427 17.6651C54.5784 17.6633 54.623 17.7071 54.6329 17.8697C54.7065 19.0653 55.6566 20.1061 56.7423 20.1463C58.3531 20.2049 59.5248 18.8405 59.2809 17.1552C59.1676 16.3768 58.779 15.8573 58.0745 15.5923C56.9813 15.1812 55.884 14.7815 54.8033 14.3372C53.3289 13.7311 52.1126 12.7376 51.0988 11.4607C50.1099 10.2161 49.7824 8.75119 49.9097 7.17255C50.1603 4.06686 51.7521 1.96433 54.3948 0.717158C55.2903 0.294728 56.2636 0.174911 57.2434 0.23001C60.1913 0.395309 62.2155 2.01069 63.4831 4.75867C63.8842 5.62801 64.0322 6.56908 63.9694 7.5425C63.9611 7.67194 63.9222 7.69643 63.8114 7.69643C62.3726 7.69293 60.933 7.69206 59.4942 7.69818C59.3603 7.69906 59.3429 7.64833 59.3338 7.52413C59.2511 6.37754 58.4639 5.45572 57.4105 5.26243C55.8385 4.97381 54.5412 6.33031 54.6544 7.93344C54.7107 8.72145 55.0728 9.29869 55.6847 9.75435C56.5174 10.3753 57.4551 10.6945 58.4193 10.9762C60.2938 11.5237 61.8376 12.6169 63.0515 14.2244C63.5336 14.8629 63.8197 15.5993 63.9495 16.4039C63.9619 16.4817 63.9636 16.5631 63.9636 16.6427C63.9644 17.1596 63.9479 17.6773 63.9677 18.1942C64.0157 19.4449 63.6394 20.5661 63.0126 21.5929C62.0857 23.1112 60.8462 24.2604 59.1949 24.8018C54.5155 26.3367 50.5307 22.8794 49.9751 18.8169C49.9312 18.4994 49.9155 18.1802 49.9015 17.8592C49.8949 17.7036 49.9445 17.6633 50.0875 17.6642C50.8185 17.6721 51.5486 17.6686 52.2788 17.6686Z" fill="white"/>
</g>
<path id="Vector_4" d="M69.6176 36.9436C70.3018 37.3004 70.5459 37.7508 70.3939 38.3505C70.2731 38.8288 69.8485 39.1982 69.309 39.2336C68.7934 39.2678 68.2755 39.2513 67.7587 39.2627C67.6223 39.2653 67.5649 39.2197 67.5661 39.0654C67.5709 37.7508 67.5709 36.4363 67.5661 35.1217C67.5661 34.9699 67.6176 34.9205 67.7563 34.9231C68.2527 34.9332 68.7516 34.9092 69.2468 34.9446C70.0733 35.004 70.5135 35.8505 70.1056 36.5463C69.992 36.7437 69.8006 36.8272 69.6176 36.9436ZM68.1307 37.9861C68.1307 38.1759 68.1319 38.3644 68.1295 38.5542C68.1283 38.6592 68.1427 38.7427 68.2707 38.7389C68.5889 38.7314 68.9094 38.7541 69.224 38.7162C69.6032 38.6694 69.8389 38.3581 69.8329 37.9849C69.8269 37.5965 69.5733 37.3219 69.1726 37.2713C69.0745 37.2586 68.9752 37.2422 68.876 37.2371C68.1307 37.2004 68.1307 37.2004 68.1307 37.9861ZM68.1319 36.0681C68.1319 36.225 68.1343 36.3831 68.1307 36.54C68.1283 36.6513 68.157 36.7197 68.279 36.7171C68.5566 36.7095 68.8365 36.7298 69.1116 36.7007C69.4573 36.664 69.6726 36.3781 69.6547 36.0364C69.6355 35.686 69.4071 35.4633 69.0422 35.4456C68.9334 35.4405 68.8245 35.4431 68.7157 35.4431C68.1307 35.4418 68.1307 35.4418 68.1319 36.0681Z" fill="white"/>
<path id="Vector_5" d="M59.4714 36.4894C59.4714 36.0478 59.487 35.605 59.4654 35.1635C59.4523 34.8839 59.6102 34.9269 59.7669 34.9231C59.9224 34.9193 60.0492 34.9016 60.0432 35.1559C60.0264 35.9972 60.0288 36.8399 60.0384 37.6812C60.0468 38.4011 60.5037 38.844 61.1688 38.8009C61.7035 38.7655 62.0839 38.2961 62.0887 37.6471C62.0947 36.8373 62.103 36.0263 62.0815 35.2166C62.0743 34.9357 62.1904 34.9294 62.3937 34.9168C62.6342 34.9016 62.6677 35.0041 62.6641 35.2255C62.6521 36.0567 62.6677 36.888 62.6569 37.7192C62.6461 38.553 62.1318 39.1906 61.371 39.3412C60.5731 39.4993 59.8626 39.0919 59.5647 38.3062C59.4929 38.1177 59.4666 37.9216 59.4678 37.7192C59.4702 37.3093 59.469 36.8981 59.469 36.4881C59.4702 36.4894 59.4714 36.4894 59.4714 36.4894Z" fill="white"/>
<path id="Vector_6" d="M54.5575 37.1207C54.5575 37.7533 54.5443 38.386 54.5635 39.0173C54.5718 39.2944 54.4235 39.2602 54.262 39.264C54.0969 39.2691 53.9809 39.2627 53.9905 39.0198C54.0096 38.5251 53.9905 38.0292 53.9989 37.5345C54.0024 37.3573 53.9785 37.2688 53.7764 37.2738C53.2094 37.289 52.6412 37.284 52.073 37.2764C51.9151 37.2738 51.8672 37.3308 51.8696 37.494C51.878 37.9887 51.8577 38.4846 51.878 38.9793C51.8888 39.2362 51.7883 39.2716 51.5825 39.2691C51.3899 39.2678 51.3014 39.2362 51.3038 38.997C51.3146 37.723 51.3146 36.4477 51.3038 35.1736C51.3014 34.9433 51.3935 34.9104 51.5694 34.9256C51.7213 34.9383 51.8911 34.8775 51.8768 35.1635C51.8565 35.605 51.878 36.0478 51.8684 36.4907C51.8636 36.6729 51.9246 36.7235 52.0921 36.7209C52.6591 36.7121 53.2273 36.7121 53.7955 36.7209C53.9534 36.7235 54.0024 36.6665 53.9989 36.5021C53.9905 36.0807 54.0096 35.6582 53.9917 35.2381C53.9809 34.9939 54.0443 34.9155 54.2847 34.918C54.5156 34.9205 54.567 34.9977 54.5623 35.2267C54.5479 35.8555 54.5575 36.4881 54.5575 37.1207Z" fill="white"/>
<path id="Vector_7" d="M39.9674 35.5089C39.8574 35.5974 39.9136 35.7227 39.9136 35.829C39.9088 36.8804 39.9016 37.933 39.9172 38.9844C39.9208 39.2488 39.8119 39.2628 39.6157 39.2678C39.41 39.2729 39.3454 39.2109 39.3478 38.9869C39.3585 37.914 39.3454 36.8411 39.3573 35.7695C39.3597 35.5304 39.2904 35.4557 39.0691 35.4697C38.7915 35.4874 38.5116 35.4621 38.2341 35.4772C38.0104 35.4899 38.0332 35.3457 38.0308 35.1938C38.0284 35.0357 38.0212 34.918 38.2401 34.9206C39.2341 34.9345 40.2282 34.9307 41.2222 34.9319L41.2294 34.9383C41.2318 35.1065 41.233 35.2761 41.2354 35.4443H41.2198V35.4608C41.1875 35.4747 41.1552 35.4899 41.1241 35.5038C40.739 35.457 40.3526 35.4481 39.9674 35.5089Z" fill="white"/>
<path id="Vector_8" d="M24.2314 34.813C25.4742 34.8105 26.3798 35.7657 26.3834 37.0828C26.3869 38.3923 25.4754 39.364 24.2434 39.3678C23.0113 39.3716 22.0914 38.3986 22.0926 37.0942C22.0938 35.7682 22.9885 34.8155 24.2314 34.813ZM24.2242 35.3735C23.3103 35.376 22.6835 36.1048 22.6895 37.1587C22.6943 38.0962 23.3594 38.806 24.2338 38.8073C25.1549 38.8085 25.7853 38.0886 25.7841 37.0372C25.7841 36.082 25.119 35.3722 24.2242 35.3735Z" fill="white"/>
<path id="Vector_9" d="M1.78118 37.3067C2.16277 37.9583 2.5288 38.5821 2.89723 39.2096C2.35655 39.3551 2.25248 39.3096 1.98573 38.8199C1.75247 38.3923 1.51921 37.9634 1.28476 37.5357C1.19743 37.3763 0.770391 37.2599 0.626848 37.3548C0.541918 37.4105 0.573018 37.5054 0.571822 37.5851C0.569429 38.0583 0.555075 38.5327 0.576607 39.0047C0.588569 39.264 0.462968 39.2615 0.287127 39.264C0.105305 39.2666 -0.00235334 39.2539 3.90526e-05 39.0034C0.012001 37.7306 0.00960889 36.4578 0.00123551 35.185C3.93081e-05 34.9788 0.0538678 34.913 0.25124 34.9206C0.708188 34.937 1.16633 34.9193 1.62328 34.937C2.2788 34.9611 2.68431 35.328 2.76685 35.9479C2.84699 36.5451 2.52761 37.0335 1.92113 37.2473C1.88286 37.2599 1.84697 37.2776 1.78118 37.3067ZM0.570626 36.1086C0.570626 36.287 0.575411 36.4666 0.56943 36.645C0.565841 36.7703 0.590961 36.8424 0.730916 36.8361C1.0491 36.8234 1.36729 36.8563 1.68309 36.7817C1.97735 36.7121 2.15918 36.4995 2.17832 36.1972C2.19985 35.8555 2.03716 35.6038 1.73692 35.4988C1.56227 35.438 1.38404 35.4406 1.20581 35.4393C0.56943 35.4393 0.56943 35.4393 0.570626 36.1086Z" fill="white"/>
<path id="Vector_10" d="M34.0151 39.2286C33.5402 39.3475 33.2424 39.2349 33.051 38.7668C32.874 38.3354 32.6144 37.9406 32.3883 37.5307C32.301 37.3738 31.8632 37.265 31.7304 37.3649C31.6503 37.4257 31.679 37.518 31.679 37.5977C31.6754 38.0722 31.6634 38.5466 31.6826 39.0198C31.6921 39.264 31.5749 39.2691 31.411 39.2627C31.2531 39.2564 31.1036 39.302 31.1072 39.0211C31.1215 37.7356 31.1156 36.4502 31.1108 35.1647C31.1096 34.9965 31.1431 34.918 31.3225 34.9231C31.7902 34.937 32.2591 34.9206 32.7268 34.937C33.3728 34.9598 33.7914 35.328 33.8656 35.915C33.9482 36.5641 33.6515 37.0347 33.0259 37.2473C32.9888 37.2599 32.9529 37.2776 32.8871 37.3055C33.2627 37.9444 33.6324 38.5757 34.0151 39.2286ZM31.6766 36.1326C31.6766 36.311 31.6802 36.4907 31.6754 36.6691C31.673 36.7867 31.7125 36.8411 31.8309 36.8373C32.1479 36.826 32.4673 36.8589 32.7819 36.7855C33.0989 36.7108 33.2711 36.5059 33.2819 36.1769C33.2938 35.8252 33.1395 35.6012 32.8237 35.4962C32.6586 35.4406 32.49 35.4444 32.3213 35.4431C31.6754 35.4393 31.6754 35.4393 31.6766 36.1326Z" fill="white"/>
<path id="Vector_11" d="M7.49181 37.1195C7.49181 36.4767 7.49779 35.834 7.48822 35.1926C7.48583 34.999 7.52171 34.9155 7.73105 34.9205C8.44757 34.9345 9.16529 34.9345 9.88181 34.9205C10.0935 34.9167 10.1474 34.9863 10.1498 35.2052C10.1534 35.4431 10.0612 35.481 9.86746 35.4772C9.33994 35.4658 8.81241 35.4798 8.28369 35.4696C8.10187 35.4658 8.03608 35.5304 8.04565 35.7239C8.05881 35.9972 8.05881 36.2718 8.04565 36.5451C8.03727 36.731 8.10785 36.7766 8.27173 36.7728C8.74901 36.7639 9.22749 36.7741 9.70597 36.7665C9.89258 36.7639 10.0134 36.7614 10.0146 37.0372C10.0158 37.3232 9.89258 37.3346 9.68923 37.3308C9.22151 37.3219 8.7526 37.3346 8.28489 37.3244C8.10665 37.3206 8.03488 37.3712 8.04565 37.5711C8.06 37.8647 8.0612 38.162 8.04565 38.4555C8.03369 38.6719 8.11623 38.7225 8.30522 38.7187C8.86265 38.7086 9.42008 38.7225 9.97751 38.7111C10.1713 38.7073 10.261 38.7453 10.2586 38.9819C10.2562 39.2007 10.2 39.2691 9.99067 39.2653C9.23347 39.2526 8.47748 39.2539 7.72028 39.2653C7.53248 39.2678 7.48463 39.2071 7.48822 39.0148C7.49899 38.3834 7.49181 37.7521 7.49181 37.1195Z" fill="white"/>
<path id="Vector_12" d="M14.9717 37.0866C14.9717 36.4553 14.9776 35.8239 14.9681 35.1926C14.9645 34.9952 15.0087 34.913 15.2121 34.9206C15.6894 34.9383 16.1667 34.918 16.6439 34.9395C17.3258 34.9712 17.7349 35.4292 17.7349 36.1301C17.7349 36.8234 17.3198 37.2941 16.6487 37.3371C16.3616 37.3561 16.071 37.3561 15.7839 37.3409C15.5877 37.3295 15.5231 37.3953 15.5279 37.6041C15.541 38.0557 15.5147 38.51 15.5375 38.9604C15.5506 39.2299 15.4441 39.2577 15.2288 39.2691C14.974 39.2817 14.9645 39.1527 14.9669 38.9477C14.9764 38.3278 14.9717 37.7065 14.9717 37.0866ZM15.5327 36.1402C15.5327 36.3085 15.5363 36.4768 15.5315 36.645C15.5279 36.7703 15.5566 36.8424 15.6954 36.8373C16.0123 36.826 16.3317 36.8576 16.6463 36.7829C16.9466 36.7108 17.1212 36.5084 17.138 36.1997C17.1583 35.8454 17.0076 35.6101 16.7014 35.5013C16.5375 35.4431 16.3688 35.4431 16.2001 35.4418C15.5327 35.438 15.5327 35.438 15.5327 36.1402Z" fill="white"/>
</g>
</svg>
