<svg width="25" height="25" viewBox="0 0 25 25" fill="none" xmlns="http://www.w3.org/2000/svg">
<g id="Layer_2">
<g id="Group">
<path id="Vector" d="M12.4971 24.9996C12.3418 25.002 12.2522 24.9064 12.1553 24.8213C10.0456 22.9675 7.93499 21.1137 5.8253 19.2598C3.96332 17.6237 2.10043 15.9875 0.23846 14.3506C-0.0741543 14.0759 -0.0741544 13.9787 0.233889 13.7072C0.647966 13.3425 1.05839 12.9755 1.47886 12.6164C1.58489 12.5257 1.58489 12.4775 1.47886 12.3867C1.04193 12.014 0.61506 11.6325 0.185443 11.2534C-0.0613572 11.0349 -0.0622713 10.9144 0.185443 10.6959C4.18453 7.18187 8.18361 3.6686 12.1836 0.156133C12.4222 -0.0535068 12.5794 -0.0519013 12.8207 0.160148C16.8143 3.6694 20.8079 7.17865 24.8006 10.6879C25.0611 10.9168 25.063 11.0341 24.807 11.2598C24.3774 11.6389 23.9496 12.0196 23.5127 12.3923C23.4121 12.4783 23.4149 12.5241 23.5136 12.6084C23.9551 12.9867 24.3884 13.3715 24.8235 13.7554C25.0593 13.9634 25.0593 14.0895 24.8207 14.2992C20.8171 17.8173 16.8116 21.3353 12.8079 24.8534C12.722 24.9313 12.6343 25.006 12.4971 24.9996ZM12.4779 0.705532C12.4359 0.753725 12.403 0.800311 12.36 0.838063C8.56113 4.17623 4.76223 7.5152 0.958752 10.8494C0.833524 10.9594 0.848149 11.0084 0.964237 11.108C1.50446 11.569 2.03736 12.0373 2.57027 12.5056C5.82713 15.365 9.08398 18.2253 12.3363 21.0888C12.4606 21.1988 12.5182 21.2221 12.6598 21.0976C16.4396 17.7707 20.2248 14.4486 24.0136 11.1297C24.1489 11.0108 24.1644 10.9554 24.0182 10.8277C20.5255 7.76821 17.0401 4.70314 13.5529 1.63967C13.2412 1.36578 12.9286 1.09107 12.616 0.817178C12.5794 0.783443 12.5401 0.754529 12.4779 0.705532ZM24.1708 14.0221C24.1306 13.9851 24.0949 13.9506 24.0575 13.9176C23.7403 13.6381 23.4149 13.3658 23.1087 13.0775C22.9688 12.9457 22.8929 12.9441 22.743 13.0759C19.4652 15.9642 16.1809 18.8478 12.8975 21.7313C12.8491 21.7739 12.8024 21.8181 12.7513 21.8582C12.5913 21.9835 12.4213 21.9867 12.2613 21.8663C12.2037 21.8229 12.1516 21.7731 12.0977 21.7257C8.80884 18.8365 5.52 15.949 2.2348 13.0566C2.11049 12.9474 2.04468 12.9369 1.91945 13.0542C1.6178 13.3369 1.30793 13.6148 0.982519 13.8759C0.828954 13.9996 0.851805 14.0598 0.987089 14.1787C4.76954 17.4944 8.54742 20.8132 12.3207 24.137C12.4725 24.2703 12.5419 24.255 12.6818 24.1313C16.4505 20.8132 20.2238 17.4992 23.9962 14.1843C24.0337 14.1514 24.0721 14.1184 24.1087 14.0847C24.1324 14.067 24.1489 14.0454 24.1708 14.0221Z" fill="white"/>
<path id="Vector_2" d="M21.3042 10.9819C21.3078 11.1136 21.2082 11.1907 21.1168 11.2711C20.0135 12.2397 18.9102 13.2092 17.8069 14.1779C16.1598 15.6245 14.5135 17.0703 12.8663 18.5169C12.5601 18.786 12.4431 18.7852 12.1314 18.5113C9.39833 16.1096 6.66524 13.708 3.93215 11.3064C3.60674 11.0205 3.60674 10.9337 3.93033 10.6494C6.6689 8.24293 9.40747 5.8365 12.146 3.43006C12.445 3.16741 12.5583 3.16821 12.8627 3.43568C15.6067 5.84694 18.3508 8.25739 21.0949 10.6695C21.1963 10.7578 21.317 10.8381 21.3042 10.9819ZM20.4897 10.9755C20.4386 10.9273 20.3947 10.8823 20.3471 10.8405C17.7859 8.59073 15.2219 6.34172 12.6652 4.0879C12.5263 3.96581 12.4632 3.97866 12.3334 4.09272C9.78133 6.34172 7.22557 8.58752 4.66524 10.8293C4.53362 10.945 4.52448 11.0004 4.66159 11.1209C7.22192 13.3626 9.77767 15.6076 12.3279 17.8582C12.4779 17.99 12.5446 17.9707 12.6799 17.851C14.6396 16.1217 16.6049 14.398 18.5693 12.6727C19.1662 12.1482 19.764 11.6237 20.3609 11.0984C20.4047 11.0614 20.4431 11.0213 20.4897 10.9755Z" fill="white"/>
<path id="Vector_3" d="M12.4981 15.4751C12.382 15.4638 12.2933 15.4181 12.2147 15.349C10.6544 13.9771 9.09315 12.6068 7.53374 11.2341C7.31802 11.0445 7.31802 10.9088 7.53374 10.7192C9.09315 9.34654 10.6544 7.97545 12.2166 6.60516C12.4122 6.43327 12.5959 6.43327 12.7906 6.60356C14.3528 7.97384 15.9131 9.34574 17.4725 10.7184C17.6891 10.9088 17.6891 11.0429 17.4734 11.2333C15.9131 12.6052 14.3509 13.9755 12.7915 15.3474C12.7065 15.4221 12.6123 15.4695 12.4981 15.4751ZM12.5027 14.7562C12.5411 14.7265 12.5703 14.7056 12.5968 14.6815C13.9688 13.4767 15.34 12.2719 16.7138 11.0694C16.7988 10.9947 16.7888 10.9514 16.7092 10.8815C15.3409 9.68309 13.9752 8.48228 12.6114 7.28067C12.531 7.20998 12.4816 7.20035 12.3957 7.27665C11.0319 8.47907 9.66537 9.67907 8.29791 10.8775C8.22021 10.9457 8.2001 10.9891 8.28877 11.067C9.66262 12.2694 11.0337 13.4751 12.4049 14.6799C12.435 14.7072 12.4688 14.7297 12.5027 14.7562Z" fill="white"/>
<path id="Vector_4" d="M13.9413 10.9706C13.9513 11.0614 13.9011 11.1353 13.8289 11.1987C13.4751 11.5112 13.1223 11.8252 12.763 12.1329C12.5875 12.2839 12.4184 12.2831 12.242 12.1321C11.8883 11.8285 11.5391 11.5208 11.1936 11.2108C11.0089 11.0445 11.008 10.9072 11.1936 10.7409C11.5391 10.4301 11.8883 10.1232 12.242 9.81961C12.4148 9.67102 12.5903 9.67102 12.763 9.82042C13.1223 10.1289 13.4751 10.4421 13.8289 10.7546C13.8956 10.8124 13.944 10.8799 13.9413 10.9706ZM12.498 11.5168C12.5226 11.5007 12.5492 11.4887 12.5683 11.471C12.7484 11.3104 13.0181 11.1698 13.0766 10.9803C13.1186 10.8437 12.8005 10.7032 12.6534 10.5554C12.6332 10.5353 12.6077 10.5192 12.5903 10.4983C12.529 10.4252 12.4797 10.4381 12.4139 10.5007C12.2694 10.6365 12.1186 10.7682 11.9651 10.8959C11.8974 10.9521 11.881 10.9891 11.9587 11.0526C12.1195 11.1835 12.2704 11.3232 12.4258 11.4598C12.4459 11.4775 12.4687 11.4943 12.498 11.5168Z" fill="white"/>
</g>
</g>
</svg>
