<svg width="32" height="31" viewBox="0 0 32 31" fill="none" xmlns="http://www.w3.org/2000/svg">
<g clip-path="url(#clip0_98_95)">
<path d="M15.9998 20.919L20.1838 28H11.8158L15.9998 20.919ZM27.5918 23.6L15.9998 3.987L4.4078 23.6C4.14539 24.0426 4.00488 24.5468 4.00053 25.0614C3.99619 25.5759 4.12817 26.0825 4.38306 26.5295C4.63795 26.9765 5.00666 27.348 5.4517 27.6063C5.89673 27.8646 6.40223 28.0004 6.9168 28H9.4918L15.9998 16.987L22.5078 28H25.0828C25.5974 28.0004 26.1029 27.8646 26.5479 27.6063C26.9929 27.348 27.3616 26.9765 27.6165 26.5295C27.8714 26.0825 28.0034 25.5759 27.9991 25.0614C27.9947 24.5468 27.8542 24.0426 27.5918 23.6Z" fill="#333333"/>
</g>
<defs>
<clipPath id="clip0_98_95">
<rect width="24" height="24" fill="white" transform="translate(4 4)"/>
</clipPath>
</defs>
</svg>
