<svg width="608" height="29" viewBox="0 0 608 29" fill="none" xmlns="http://www.w3.org/2000/svg">
<path d="M4.00053 28H0.580531V0.867998H15.7425V3.87H4.00053V13.484H15.0205V16.486H4.00053V28ZM37.9236 28H28.1196V26.024L31.3116 25.302V3.604L28.1196 2.844V0.867998H37.9236V2.844L34.7316 3.604V25.302L37.9236 26.024V28ZM60.6486 0.867998C62.9032 0.867998 64.7526 1.15933 66.1966 1.742C67.6659 2.29933 68.7552 3.148 69.4646 4.288C70.1739 5.428 70.5286 6.85933 70.5286 8.582C70.5286 10.026 70.2626 11.2293 69.7306 12.192C69.1986 13.1547 68.5146 13.9273 67.6786 14.51C66.8679 15.0673 66.0066 15.5107 65.0946 15.84L72.5426 28H68.5526L61.9786 16.79H56.5826V28H53.1626V0.867998H60.6486ZM60.4586 3.832H56.5826V13.902H60.6486C62.1179 13.902 63.3212 13.712 64.2586 13.332C65.1959 12.9267 65.8799 12.344 66.3106 11.584C66.7666 10.824 66.9946 9.874 66.9946 8.734C66.9946 7.54333 66.7539 6.59333 66.2726 5.884C65.8166 5.17467 65.1072 4.65533 64.1446 4.326C63.1819 3.99667 61.9532 3.832 60.4586 3.832ZM101.963 28H86.8012V0.867998H101.963V3.87H90.2212V12.344H101.279V15.308H90.2212V24.998H101.963V28ZM133.306 20.742C133.306 22.3633 132.914 23.744 132.128 24.884C131.343 25.9987 130.216 26.86 128.746 27.468C127.302 28.076 125.592 28.38 123.616 28.38C122.603 28.38 121.628 28.3293 120.69 28.228C119.778 28.1267 118.942 27.9873 118.182 27.81C117.422 27.6073 116.751 27.3667 116.168 27.088V23.82C117.08 24.2253 118.208 24.5927 119.55 24.922C120.918 25.2513 122.324 25.416 123.768 25.416C125.111 25.416 126.238 25.2387 127.15 24.884C128.062 24.5293 128.746 24.0227 129.202 23.364C129.658 22.7053 129.886 21.9327 129.886 21.046C129.886 20.1593 129.696 19.412 129.316 18.804C128.936 18.196 128.278 17.6387 127.34 17.132C126.428 16.6 125.149 16.0427 123.502 15.46C122.337 15.0293 121.311 14.5733 120.424 14.092C119.563 13.5853 118.841 13.0153 118.258 12.382C117.676 11.7487 117.232 11.0267 116.928 10.216C116.65 9.40533 116.51 8.468 116.51 7.404C116.51 5.96 116.878 4.73133 117.612 3.718C118.347 2.67933 119.36 1.88133 120.652 1.324C121.97 0.766665 123.477 0.487999 125.174 0.487999C126.669 0.487999 128.037 0.627332 129.278 0.905998C130.52 1.18467 131.647 1.552 132.66 2.008L131.596 4.934C130.659 4.52867 129.633 4.18667 128.518 3.908C127.429 3.62933 126.289 3.49 125.098 3.49C123.958 3.49 123.008 3.65467 122.248 3.984C121.488 4.31333 120.918 4.782 120.538 5.39C120.158 5.97267 119.968 6.65667 119.968 7.442C119.968 8.354 120.158 9.114 120.538 9.722C120.918 10.33 121.539 10.8747 122.4 11.356C123.262 11.8373 124.427 12.3567 125.896 12.914C127.492 13.4967 128.835 14.13 129.924 14.814C131.039 15.4727 131.875 16.2707 132.432 17.208C133.015 18.1453 133.306 19.3233 133.306 20.742ZM157.36 28H153.94V3.87H145.466V0.867998H165.796V3.87H157.36V28ZM202.819 14.396C202.819 16.4987 202.553 18.4113 202.021 20.134C201.489 21.8313 200.691 23.3007 199.627 24.542C198.588 25.7833 197.284 26.7333 195.713 27.392C194.168 28.0507 192.369 28.38 190.317 28.38C188.189 28.38 186.34 28.0507 184.769 27.392C183.198 26.708 181.894 25.758 180.855 24.542C179.816 23.3007 179.044 21.8187 178.537 20.096C178.03 18.3733 177.777 16.4607 177.777 14.358C177.777 11.5713 178.233 9.13933 179.145 7.062C180.057 4.98467 181.438 3.36333 183.287 2.198C185.162 1.03267 187.518 0.449999 190.355 0.449999C193.066 0.449999 195.346 1.03267 197.195 2.198C199.044 3.338 200.438 4.95933 201.375 7.062C202.338 9.13933 202.819 11.584 202.819 14.396ZM181.387 14.396C181.387 16.676 181.704 18.6393 182.337 20.286C182.97 21.9327 183.946 23.1993 185.263 24.086C186.606 24.9727 188.29 25.416 190.317 25.416C192.369 25.416 194.041 24.9727 195.333 24.086C196.65 23.1993 197.626 21.9327 198.259 20.286C198.892 18.6393 199.209 16.676 199.209 14.396C199.209 10.976 198.5 8.30333 197.081 6.378C195.662 4.42733 193.42 3.452 190.355 3.452C188.303 3.452 186.606 3.89533 185.263 4.782C183.946 5.64333 182.97 6.89733 182.337 8.544C181.704 10.1653 181.387 12.116 181.387 14.396ZM240.34 28H236.35L221.834 5.466H221.682C221.708 5.922 221.733 6.42867 221.758 6.986C221.809 7.54333 221.847 8.15133 221.872 8.81C221.898 9.44333 221.923 10.102 221.948 10.786C221.974 11.47 221.986 12.154 221.986 12.838V28H218.832V0.867998H222.784L237.262 23.326H237.414C237.389 23.022 237.364 22.604 237.338 22.072C237.313 21.5147 237.288 20.9067 237.262 20.248C237.237 19.564 237.212 18.8673 237.186 18.158C237.161 17.4487 237.148 16.79 237.148 16.182V0.867998H240.34V28ZM272.866 28H257.704V0.867998H272.866V3.87H261.124V12.344H272.182V15.308H261.124V24.998H272.866V28ZM333.543 14.168C333.543 17.208 332.973 19.754 331.833 21.806C330.718 23.858 329.11 25.4033 327.007 26.442C324.904 27.4807 322.358 28 319.369 28H311.807V0.867998H320.167C322.903 0.867998 325.272 1.37467 327.273 2.388C329.274 3.40133 330.82 4.896 331.909 6.872C332.998 8.82267 333.543 11.2547 333.543 14.168ZM329.933 14.282C329.933 11.8753 329.528 9.89933 328.717 8.354C327.932 6.80867 326.766 5.66867 325.221 4.934C323.701 4.174 321.852 3.794 319.673 3.794H315.227V25.074H318.913C322.586 25.074 325.335 24.1747 327.159 22.376C329.008 20.552 329.933 17.854 329.933 14.282ZM365.847 28L362.579 19.602H351.825L348.595 28H345.137L355.739 0.754H358.817L369.381 28H365.847ZM358.513 8.354C358.437 8.15133 358.31 7.784 358.133 7.252C357.955 6.72 357.778 6.17533 357.601 5.618C357.449 5.03533 357.322 4.592 357.221 4.288C357.094 4.79467 356.955 5.314 356.803 5.846C356.676 6.35267 356.537 6.82133 356.385 7.252C356.258 7.68267 356.144 8.05 356.043 8.354L352.965 16.562H361.553L358.513 8.354ZM400.685 0.867998L390.995 28H387.575L377.885 0.867998H381.457L387.575 18.272C387.853 19.0067 388.094 19.716 388.297 20.4C388.499 21.084 388.677 21.7427 388.829 22.376C389.006 22.984 389.158 23.592 389.285 24.2C389.411 23.592 389.551 22.9713 389.703 22.338C389.88 21.7047 390.07 21.046 390.273 20.362C390.501 19.678 390.741 18.956 390.995 18.196L397.075 0.867998H400.685ZM429.518 28H414.356V0.867998H429.518V3.87H417.776V12.344H428.834V15.308H417.776V24.998H429.518V28ZM466.979 28H462.989L448.473 5.466H448.321C448.346 5.922 448.372 6.42867 448.397 6.986C448.448 7.54333 448.486 8.15133 448.511 8.81C448.536 9.44333 448.562 10.102 448.587 10.786C448.612 11.47 448.625 12.154 448.625 12.838V28H445.471V0.867998H449.423L463.901 23.326H464.053C464.028 23.022 464.002 22.604 463.977 22.072C463.952 21.5147 463.926 20.9067 463.901 20.248C463.876 19.564 463.85 18.8673 463.825 18.158C463.8 17.4487 463.787 16.79 463.787 16.182V0.867998H466.979V28ZM491.524 0.867998C495.071 0.867998 497.655 1.56466 499.276 2.958C500.898 4.35133 501.708 6.31467 501.708 8.848C501.708 9.96267 501.518 11.0393 501.138 12.078C500.784 13.0913 500.188 14.0033 499.352 14.814C498.516 15.6247 497.402 16.2707 496.008 16.752C494.615 17.208 492.905 17.436 490.878 17.436H487.762V28H484.342V0.867998H491.524ZM491.22 3.794H487.762V14.51H490.498C492.221 14.51 493.652 14.3327 494.792 13.978C495.932 13.598 496.781 13.0027 497.338 12.192C497.896 11.3813 498.174 10.3173 498.174 9C498.174 7.252 497.617 5.94733 496.502 5.086C495.388 4.22467 493.627 3.794 491.22 3.794ZM541.024 14.396C541.024 16.4987 540.758 18.4113 540.226 20.134C539.694 21.8313 538.896 23.3007 537.832 24.542C536.793 25.7833 535.489 26.7333 533.918 27.392C532.373 28.0507 530.574 28.38 528.522 28.38C526.394 28.38 524.545 28.0507 522.974 27.392C521.403 26.708 520.099 25.758 519.06 24.542C518.021 23.3007 517.249 21.8187 516.742 20.096C516.235 18.3733 515.982 16.4607 515.982 14.358C515.982 11.5713 516.438 9.13933 517.35 7.062C518.262 4.98467 519.643 3.36333 521.492 2.198C523.367 1.03267 525.723 0.449999 528.56 0.449999C531.271 0.449999 533.551 1.03267 535.4 2.198C537.249 3.338 538.643 4.95933 539.58 7.062C540.543 9.13933 541.024 11.584 541.024 14.396ZM519.592 14.396C519.592 16.676 519.909 18.6393 520.542 20.286C521.175 21.9327 522.151 23.1993 523.468 24.086C524.811 24.9727 526.495 25.416 528.522 25.416C530.574 25.416 532.246 24.9727 533.538 24.086C534.855 23.1993 535.831 21.9327 536.464 20.286C537.097 18.6393 537.414 16.676 537.414 14.396C537.414 10.976 536.705 8.30333 535.286 6.378C533.867 4.42733 531.625 3.452 528.56 3.452C526.508 3.452 524.811 3.89533 523.468 4.782C522.151 5.64333 521.175 6.89733 520.542 8.544C519.909 10.1653 519.592 12.116 519.592 14.396ZM564.524 0.867998C566.778 0.867998 568.628 1.15933 570.072 1.742C571.541 2.29933 572.63 3.148 573.34 4.288C574.049 5.428 574.404 6.85933 574.404 8.582C574.404 10.026 574.138 11.2293 573.606 12.192C573.074 13.1547 572.39 13.9273 571.554 14.51C570.743 15.0673 569.882 15.5107 568.97 15.84L576.418 28H572.428L565.854 16.79H560.458V28H557.038V0.867998H564.524ZM564.334 3.832H560.458V13.902H564.524C565.993 13.902 567.196 13.712 568.134 13.332C569.071 12.9267 569.755 12.344 570.186 11.584C570.642 10.824 570.87 9.874 570.87 8.734C570.87 7.54333 570.629 6.59333 570.148 5.884C569.692 5.17467 568.982 4.65533 568.02 4.326C567.057 3.99667 565.828 3.832 564.334 3.832ZM599.264 28H595.844V3.87H587.37V0.867998H607.7V3.87H599.264V28Z" fill="url(#paint0_linear_468_387)"/>
<defs>
<linearGradient id="paint0_linear_468_387" x1="81.5103" y1="38.4998" x2="505.551" y2="38.4999" gradientUnits="userSpaceOnUse">
<stop stop-color="#CF94FE"/>
<stop offset="1" stop-color="#7193C7"/>
</linearGradient>
</defs>
</svg>
