<svg width="24" height="25" viewBox="0 0 24 25" fill="none" xmlns="http://www.w3.org/2000/svg">
<g clip-path="url(#clip0_468_307)">
<path d="M15.4768 19.1102C15.4768 17.8272 14.6688 17.0812 13.1198 15.7662C12.7698 15.4662 12.3918 15.1482 12.0018 14.7942C11.5568 15.2032 11.1338 15.5632 10.7458 15.8942C9.19977 17.2002 8.52277 17.8392 8.52277 19.1102C8.52277 20.0323 8.88909 20.9167 9.54116 21.5688C10.1932 22.2209 11.0776 22.5872 11.9998 22.5872C12.9219 22.5872 13.8063 22.2209 14.4584 21.5688C15.1104 20.9167 15.4768 20.0323 15.4768 19.1102V19.1102Z" fill="#333333"/>
<path d="M16.4081 4.535C15.2081 3.516 13.9681 2.463 12.7141 1.21L12.0001 0.5L11.3001 1.211C9.04612 3.473 7.98012 6.947 7.51812 9.031C7.1636 8.48206 6.90051 7.87922 6.73912 7.246L6.31212 5.609L5.07912 6.766C2.92012 8.794 1.47911 10.805 1.47911 14.025C1.45836 16.3485 2.21467 18.6123 3.6279 20.4568C5.04113 22.3012 7.03021 23.6205 9.27912 24.205C9.84419 24.3482 10.4196 24.4468 11.0001 24.5C9.74139 24.2654 8.60421 23.5983 7.78524 22.6141C6.96627 21.6299 6.51699 20.3904 6.51512 19.11C6.51512 16.86 7.87212 15.71 9.44312 14.368C10.0041 13.891 10.6431 13.35 11.2881 12.701L12.0001 11.993L12.7081 12.701C13.2841 13.277 13.8601 13.765 14.4171 14.239C15.9931 15.576 17.4811 16.839 17.4811 19.11C17.4795 20.3853 17.0339 21.6203 16.2207 22.6028C15.4076 23.5853 14.2777 24.254 13.0251 24.494C15.6257 24.2417 18.039 23.0298 19.7945 21.0946C21.5499 19.1594 22.5216 16.6398 22.5201 14.027C22.5201 9.725 19.6871 7.32 16.4081 4.535Z" fill="#333333"/>
</g>
<defs>
<clipPath id="clip0_468_307">
<rect width="24" height="24" fill="white" transform="translate(0 0.5)"/>
</clipPath>
</defs>
</svg>
