<svg width="400" height="42" viewBox="0 0 400 42" fill="none" xmlns="http://www.w3.org/2000/svg">
<path d="M24.7407 33H20.6907V18.015H4.22066V33H0.170664V0.869998H4.22066V14.46H20.6907V0.869998H24.7407V33ZM61.4802 33H43.5252V0.869998H61.4802V4.425H47.5752V14.46H60.6702V17.97H47.5752V29.445H61.4802V33ZM78.53 33V0.869998H82.58V29.4H96.62V33H78.53ZM112.129 33V0.869998H116.179V29.4H130.219V33H112.129ZM172.883 16.89C172.883 19.38 172.568 21.645 171.938 23.685C171.308 25.695 170.363 27.435 169.103 28.905C167.873 30.375 166.328 31.5 164.468 32.28C162.638 33.06 160.508 33.45 158.078 33.45C155.558 33.45 153.368 33.06 151.508 32.28C149.648 31.47 148.103 30.345 146.873 28.905C145.643 27.435 144.728 25.68 144.128 23.64C143.528 21.6 143.228 19.335 143.228 16.845C143.228 13.545 143.768 10.665 144.848 8.205C145.928 5.745 147.563 3.825 149.753 2.445C151.973 1.065 154.763 0.374999 158.123 0.374999C161.333 0.374999 164.033 1.065 166.223 2.445C168.413 3.795 170.063 5.715 171.173 8.205C172.313 10.665 172.883 13.56 172.883 16.89ZM147.503 16.89C147.503 19.59 147.878 21.915 148.628 23.865C149.378 25.815 150.533 27.315 152.093 28.365C153.683 29.415 155.678 29.94 158.078 29.94C160.508 29.94 162.488 29.415 164.018 28.365C165.578 27.315 166.733 25.815 167.483 23.865C168.233 21.915 168.608 19.59 168.608 16.89C168.608 12.84 167.768 9.675 166.088 7.395C164.408 5.085 161.753 3.93 158.123 3.93C155.693 3.93 153.683 4.455 152.093 5.505C150.533 6.525 149.378 8.01 148.628 9.96C147.878 11.88 147.503 14.19 147.503 16.89ZM192.478 28.275C192.208 29.325 191.863 30.465 191.443 31.695C191.023 32.925 190.558 34.14 190.048 35.34C189.568 36.57 189.088 37.725 188.608 38.805H185.683C185.983 37.665 186.268 36.435 186.538 35.115C186.838 33.825 187.108 32.55 187.348 31.29C187.588 30 187.783 28.83 187.933 27.78H192.163L192.478 28.275ZM235.625 33V0.869998H239.675V29.4H253.715V33H235.625ZM287.178 33H269.223V0.869998H287.178V4.425H273.273V14.46H286.368V17.97H273.273V29.445H287.178V33ZM302.364 41.55C301.644 41.55 301.014 41.49 300.474 41.37C299.934 41.28 299.454 41.145 299.034 40.965V37.545C299.514 37.665 300.024 37.77 300.564 37.86C301.104 37.95 301.674 37.995 302.274 37.995C303.024 37.995 303.729 37.845 304.389 37.545C305.079 37.245 305.634 36.72 306.054 35.97C306.474 35.22 306.684 34.17 306.684 32.82V0.869998H310.734V32.505C310.734 34.575 310.389 36.27 309.699 37.59C309.009 38.94 308.034 39.93 306.774 40.56C305.514 41.22 304.044 41.55 302.364 41.55ZM357.249 16.89C357.249 19.38 356.934 21.645 356.304 23.685C355.674 25.695 354.729 27.435 353.469 28.905C352.239 30.375 350.694 31.5 348.834 32.28C347.004 33.06 344.874 33.45 342.444 33.45C339.924 33.45 337.734 33.06 335.874 32.28C334.014 31.47 332.469 30.345 331.239 28.905C330.009 27.435 329.094 25.68 328.494 23.64C327.894 21.6 327.594 19.335 327.594 16.845C327.594 13.545 328.134 10.665 329.214 8.205C330.294 5.745 331.929 3.825 334.119 2.445C336.339 1.065 339.129 0.374999 342.489 0.374999C345.699 0.374999 348.399 1.065 350.589 2.445C352.779 3.795 354.429 5.715 355.539 8.205C356.679 10.665 357.249 13.56 357.249 16.89ZM331.869 16.89C331.869 19.59 332.244 21.915 332.994 23.865C333.744 25.815 334.899 27.315 336.459 28.365C338.049 29.415 340.044 29.94 342.444 29.94C344.874 29.94 346.854 29.415 348.384 28.365C349.944 27.315 351.099 25.815 351.849 23.865C352.599 21.915 352.974 19.59 352.974 16.89C352.974 12.84 352.134 9.675 350.454 7.395C348.774 5.085 346.119 3.93 342.489 3.93C340.059 3.93 338.049 4.455 336.459 5.505C334.899 6.525 333.744 8.01 332.994 9.96C332.244 11.88 331.869 14.19 331.869 16.89ZM399.84 33H395.115L377.925 6.315H377.745C377.775 6.855 377.805 7.455 377.835 8.115C377.895 8.775 377.94 9.495 377.97 10.275C378 11.025 378.03 11.805 378.06 12.615C378.09 13.425 378.105 14.235 378.105 15.045V33H374.37V0.869998H379.05L396.195 27.465H396.375C396.345 27.105 396.315 26.61 396.285 25.98C396.255 25.32 396.225 24.6 396.195 23.82C396.165 23.01 396.135 22.185 396.105 21.345C396.075 20.505 396.06 19.725 396.06 19.005V0.869998H399.84V33Z" fill="url(#paint0_linear_58_387)"/>
<defs>
<linearGradient id="paint0_linear_58_387" x1="-89.5" y1="41.4998" x2="466" y2="41.4999" gradientUnits="userSpaceOnUse">
<stop stop-color="#CF94FE"/>
<stop offset="1" stop-color="#7193C7"/>
</linearGradient>
</defs>
</svg>
