<svg width="31" height="31" viewBox="0 0 31 31" fill="none" xmlns="http://www.w3.org/2000/svg">
<g clip-path="url(#clip0_58_342)">
<path d="M15 17.9997C14.2044 17.9997 13.4413 18.3157 12.8787 18.8784C12.3161 19.441 12 20.204 12 20.9997V28.0257H18V20.9997C18 20.204 17.6839 19.441 17.1213 18.8784C16.5587 18.3157 15.7956 17.9997 15 17.9997Z" fill="white"/>
<path d="M16.338 4.83312C15.9707 4.50255 15.4941 4.31964 15 4.31964C14.5059 4.31964 14.0293 4.50255 13.662 4.83312L3 14.4291V24.8291C3 25.6778 3.33714 26.4917 3.93726 27.0919C4.53737 27.692 5.35131 28.0291 6.2 28.0291H10V21.0001C10 19.674 10.5268 18.4023 11.4645 17.4646C12.4021 16.5269 13.6739 16.0001 15 16.0001C16.3261 16.0001 17.5979 16.5269 18.5355 17.4646C19.4732 18.4023 20 19.674 20 21.0001V28.0261H23.8C24.6487 28.0261 25.4626 27.689 26.0627 27.0889C26.6629 26.4887 27 25.6748 27 24.8261V14.4261L16.338 4.83312Z" fill="white"/>
</g>
<defs>
<clipPath id="clip0_58_342">
<rect width="24" height="24" fill="white" transform="translate(3 4)"/>
</clipPath>
</defs>
</svg>
