<svg width="529" height="29" viewBox="0 0 529 29" fill="none" xmlns="http://www.w3.org/2000/svg">
<path d="M21.5688 28H18.1488V15.346H4.24077V28H0.820766V0.867998H4.24077V12.344H18.1488V0.867998H21.5688V28ZM62.6608 14.396C62.6608 16.4987 62.3948 18.4113 61.8628 20.134C61.3308 21.8313 60.5328 23.3007 59.4688 24.542C58.4301 25.7833 57.1254 26.7333 55.5548 27.392C54.0094 28.0507 52.2108 28.38 50.1588 28.38C48.0308 28.38 46.1814 28.0507 44.6108 27.392C43.0401 26.708 41.7354 25.758 40.6968 24.542C39.6581 23.3007 38.8854 21.8187 38.3788 20.096C37.8721 18.3733 37.6188 16.4607 37.6188 14.358C37.6188 11.5713 38.0748 9.13933 38.9868 7.062C39.8988 4.98467 41.2794 3.36333 43.1288 2.198C45.0034 1.03267 47.3594 0.449999 50.1968 0.449999C52.9074 0.449999 55.1874 1.03267 57.0368 2.198C58.8861 3.338 60.2794 4.95933 61.2168 7.062C62.1794 9.13933 62.6608 11.584 62.6608 14.396ZM41.2288 14.396C41.2288 16.676 41.5454 18.6393 42.1788 20.286C42.8121 21.9327 43.7874 23.1993 45.1048 24.086C46.4474 24.9727 48.1321 25.416 50.1588 25.416C52.2108 25.416 53.8828 24.9727 55.1748 24.086C56.4921 23.1993 57.4674 21.9327 58.1008 20.286C58.7341 18.6393 59.0508 16.676 59.0508 14.396C59.0508 10.976 58.3414 8.30333 56.9228 6.378C55.5041 4.42733 53.2621 3.452 50.1968 3.452C48.1448 3.452 46.4474 3.89533 45.1048 4.782C43.7874 5.64333 42.8121 6.89733 42.1788 8.544C41.5454 10.1653 41.2288 12.116 41.2288 14.396ZM86.1119 28H82.6919V3.87H74.2179V0.867998H94.5479V3.87H86.1119V28ZM123.801 28H108.639V0.867998H123.801V3.87H112.059V12.344H123.117V15.308H112.059V24.998H123.801V28ZM139.754 28V0.867998H143.174V24.96H155.03V28H139.754ZM207.832 28H192.67V0.867998H207.832V3.87H196.09V12.344H207.148V15.308H196.09V24.998H207.832V28ZM235.756 28L226.826 4.212H226.674C226.724 4.71867 226.762 5.36467 226.788 6.15C226.838 6.93533 226.876 7.79667 226.902 8.734C226.927 9.646 226.94 10.5833 226.94 11.546V28H223.786V0.867998H228.84L237.2 23.098H237.352L245.864 0.867998H250.88V28H247.498V11.318C247.498 10.4313 247.51 9.55733 247.536 8.696C247.561 7.80933 247.599 6.986 247.65 6.226C247.7 5.44067 247.738 4.782 247.764 4.25H247.612L238.568 28H235.756ZM275.898 28H266.094V26.024L269.286 25.302V3.604L266.094 2.844V0.867998H275.898V2.844L272.706 3.604V25.302L275.898 26.024V28ZM291.137 28V0.867998H294.557V24.96H306.413V28H291.137ZM328.703 28H318.899V26.024L322.091 25.302V3.604L318.899 2.844V0.867998H328.703V2.844L325.511 3.604V25.302L328.703 26.024V28ZM359.104 28H343.942V0.867998H359.104V3.87H347.362V12.344H358.42V15.308H347.362V24.998H359.104V28ZM401.465 28H398.045V0.867998H413.207V3.87H401.465V13.484H412.485V16.486H401.465V28ZM451.424 14.396C451.424 16.4987 451.158 18.4113 450.626 20.134C450.094 21.8313 449.296 23.3007 448.232 24.542C447.194 25.7833 445.889 26.7333 444.318 27.392C442.773 28.0507 440.974 28.38 438.922 28.38C436.794 28.38 434.945 28.0507 433.374 27.392C431.804 26.708 430.499 25.758 429.46 24.542C428.422 23.3007 427.649 21.8187 427.142 20.096C426.636 18.3733 426.382 16.4607 426.382 14.358C426.382 11.5713 426.838 9.13933 427.75 7.062C428.662 4.98467 430.043 3.36333 431.892 2.198C433.767 1.03267 436.123 0.449999 438.96 0.449999C441.671 0.449999 443.951 1.03267 445.8 2.198C447.65 3.338 449.043 4.95933 449.98 7.062C450.943 9.13933 451.424 11.584 451.424 14.396ZM429.992 14.396C429.992 16.676 430.309 18.6393 430.942 20.286C431.576 21.9327 432.551 23.1993 433.868 24.086C435.211 24.9727 436.896 25.416 438.922 25.416C440.974 25.416 442.646 24.9727 443.938 24.086C445.256 23.1993 446.231 21.9327 446.864 20.286C447.498 18.6393 447.814 16.676 447.814 14.396C447.814 10.976 447.105 8.30333 445.686 6.378C444.268 4.42733 442.026 3.452 438.96 3.452C436.908 3.452 435.211 3.89533 433.868 4.782C432.551 5.64333 431.576 6.89733 430.942 8.544C430.309 10.1653 429.992 12.116 429.992 14.396ZM474.924 0.867998C477.179 0.867998 479.028 1.15933 480.472 1.742C481.941 2.29933 483.031 3.148 483.74 4.288C484.449 5.428 484.804 6.85933 484.804 8.582C484.804 10.026 484.538 11.2293 484.006 12.192C483.474 13.1547 482.79 13.9273 481.954 14.51C481.143 15.0673 480.282 15.5107 479.37 15.84L486.818 28H482.828L476.254 16.79H470.858V28H467.438V0.867998H474.924ZM474.734 3.832H470.858V13.902H474.924C476.393 13.902 477.597 13.712 478.534 13.332C479.471 12.9267 480.155 12.344 480.586 11.584C481.042 10.824 481.27 9.874 481.27 8.734C481.27 7.54333 481.029 6.59333 480.548 5.884C480.092 5.17467 479.383 4.65533 478.42 4.326C477.457 3.99667 476.229 3.832 474.734 3.832ZM513.047 28L504.117 4.212H503.965C504.015 4.71867 504.053 5.36467 504.079 6.15C504.129 6.93533 504.167 7.79667 504.193 8.734C504.218 9.646 504.231 10.5833 504.231 11.546V28H501.077V0.867998H506.131L514.491 23.098H514.643L523.155 0.867998H528.171V28H524.789V11.318C524.789 10.4313 524.801 9.55733 524.827 8.696C524.852 7.80933 524.89 6.986 524.941 6.226C524.991 5.44067 525.029 4.782 525.055 4.25H524.903L515.859 28H513.047Z" fill="url(#paint0_linear_403_1311)"/>
<defs>
<linearGradient id="paint0_linear_403_1311" x1="43.5103" y1="38.4998" x2="467.551" y2="38.4999" gradientUnits="userSpaceOnUse">
<stop stop-color="#CF94FE"/>
<stop offset="1" stop-color="#7193C7"/>
</linearGradient>
</defs>
</svg>
