<svg width="31" height="31" viewBox="0 0 31 31" fill="none" xmlns="http://www.w3.org/2000/svg">
<g clip-path="url(#clip0_58_343)">
<path d="M25 4.99985H13.037V7.99985H11V4.99985H9V7.99985H6.963V4.99985H5C4.46957 4.99985 3.96086 5.21056 3.58579 5.58563C3.21071 5.96071 3 6.46941 3 6.99985L3 8.99985C3 9.53028 3.21071 10.039 3.58579 10.4141C3.96086 10.7891 4.46957 10.9998 5 10.9998H25C25.5304 10.9998 26.0391 10.7891 26.4142 10.4141C26.7893 10.039 27 9.53028 27 8.99985V6.99985C27 6.46941 26.7893 5.96071 26.4142 5.58563C26.0391 5.21056 25.5304 4.99985 25 4.99985Z" fill="white"/>
<path d="M25 13H13.037V16H11V13H9V16H6.963V13H5C4.46957 13 3.96086 13.2107 3.58579 13.5858C3.21071 13.9609 3 14.4696 3 15L3 17C3 17.5304 3.21071 18.0391 3.58579 18.4142C3.96086 18.7893 4.46957 19 5 19H25C25.5304 19 26.0391 18.7893 26.4142 18.4142C26.7893 18.0391 27 17.5304 27 17V15C27 14.4696 26.7893 13.9609 26.4142 13.5858C26.0391 13.2107 25.5304 13 25 13Z" fill="white"/>
<path d="M25 21.0002H13.037V24.0002H11V21.0002H9V24.0002H6.963V21.0002H5C4.46957 21.0002 3.96086 21.2109 3.58579 21.5859C3.21071 21.961 3 22.4697 3 23.0002L3 25.0002C3 25.5306 3.21071 26.0393 3.58579 26.4144C3.96086 26.7894 4.46957 27.0002 5 27.0002H25C25.5304 27.0002 26.0391 26.7894 26.4142 26.4144C26.7893 26.0393 27 25.5306 27 25.0002V23.0002C27 22.4697 26.7893 21.961 26.4142 21.5859C26.0391 21.2109 25.5304 21.0002 25 21.0002Z" fill="white"/>
</g>
<defs>
<clipPath id="clip0_58_343">
<rect width="24" height="24" fill="white" transform="translate(3 4)"/>
</clipPath>
</defs>
</svg>
