<svg width="31" height="31" viewBox="0 0 31 31" fill="none" xmlns="http://www.w3.org/2000/svg">
<g clip-path="url(#clip0_58_344)">
<path d="M22 6V4H20V6H18V4H16V6H14V4H12V6H10V4H8V6H6V25C6 25.7956 6.31607 26.5587 6.87868 27.1213C7.44129 27.6839 8.20435 28 9 28H21C21.7956 28 22.5587 27.6839 23.1213 27.1213C23.6839 26.5587 24 25.7956 24 25V6H22ZM16 21H10V19H16V21ZM20 17H10V15H20V17ZM20 13H10V11H20V13Z" fill="white"/>
</g>
<defs>
<clipPath id="clip0_58_344">
<rect width="24" height="24" fill="white" transform="translate(3 4)"/>
</clipPath>
</defs>
</svg>
