<svg width="40" height="35" viewBox="0 0 40 35" fill="none" xmlns="http://www.w3.org/2000/svg">
<g clip-path="url(#clip0_58_99)">
<g clip-path="url(#clip1_58_99)">
<path d="M8.33359 8.75018C7.75865 8.75169 7.18911 8.63917 6.65793 8.41914C6.12675 8.19911 5.64448 7.87593 5.23901 7.46831L2.92755 5.15685L4.98963 3.09477L7.30255 5.40623C7.58017 5.67169 7.94948 5.81984 8.33359 5.81984C8.71771 5.81984 9.08702 5.67169 9.36463 5.40623L14.5942 0.178101L16.6563 2.24018L11.4267 7.46831C11.0216 7.87602 10.5396 8.19927 10.0087 8.41931C9.4777 8.63936 8.90834 8.75182 8.33359 8.75018ZM37.5003 4.37518H20.0003V7.29185H37.5003V4.37518ZM11.4267 19.135L16.6563 13.9069L14.5942 11.8448L9.36463 17.0729C9.08702 17.3384 8.71771 17.4865 8.33359 17.4865C7.94948 17.4865 7.58017 17.3384 7.30255 17.0729L4.98963 14.7614L2.92755 16.8235L5.23901 19.135C5.64528 19.5413 6.12761 19.8636 6.65845 20.0835C7.1893 20.3035 7.75827 20.4166 8.33286 20.4166C8.90746 20.4166 9.47643 20.3035 10.0073 20.0835C10.5381 19.8636 11.0205 19.5413 11.4267 19.135ZM37.5003 16.0419H20.0003V18.9585H37.5003V16.0419ZM11.4267 30.8016L16.6563 25.5735L14.5942 23.5114L9.36463 28.7396C9.08702 29.005 8.71771 29.1532 8.33359 29.1532C7.94948 29.1532 7.58017 29.005 7.30255 28.7396L4.98963 26.4281L2.92755 28.4902L5.23901 30.8016C5.64528 31.208 6.12761 31.5303 6.65845 31.7502C7.1893 31.9701 7.75827 32.0833 8.33286 32.0833C8.90746 32.0833 9.47643 31.9701 10.0073 31.7502C10.5381 31.5303 11.0205 31.208 11.4267 30.8016ZM37.5003 27.7085H20.0003V30.6252H37.5003V27.7085Z" fill="white"/>
</g>
</g>
<defs>
<clipPath id="clip0_58_99">
<rect width="39" height="35" fill="white" transform="translate(0.5)"/>
</clipPath>
<clipPath id="clip1_58_99">
<rect width="35" height="35" fill="white" transform="translate(2.5)"/>
</clipPath>
</defs>
</svg>
