<svg width="393" height="29" viewBox="0 0 393 29" fill="none" xmlns="http://www.w3.org/2000/svg">
<path d="M8.4093 0.867998C10.664 0.867998 12.5133 1.15933 13.9573 1.742C15.4266 2.29933 16.516 3.148 17.2253 4.288C17.9346 5.428 18.2893 6.85933 18.2893 8.582C18.2893 10.026 18.0233 11.2293 17.4913 12.192C16.9593 13.1547 16.2753 13.9273 15.4393 14.51C14.6286 15.0673 13.7673 15.5107 12.8553 15.84L20.3033 28H16.3133L9.73931 16.79H4.3433V28H0.923305V0.867998H8.4093ZM8.2193 3.832H4.3433V13.902H8.4093C9.87864 13.902 11.082 13.712 12.0193 13.332C12.9566 12.9267 13.6406 12.344 14.0713 11.584C14.5273 10.824 14.7553 9.874 14.7553 8.734C14.7553 7.54333 14.5146 6.59333 14.0333 5.884C13.5773 5.17467 12.868 4.65533 11.9053 4.326C10.9426 3.99667 9.71397 3.832 8.2193 3.832ZM49.724 28H34.562V0.867998H49.724V3.87H37.982V12.344H49.04V15.308H37.982V24.998H49.724V28ZM77.4572 13.674H86.8432V26.974C85.3739 27.4553 83.8919 27.81 82.3972 28.038C80.9025 28.266 79.2052 28.38 77.3052 28.38C74.4932 28.38 72.1245 27.8227 70.1992 26.708C68.2739 25.568 66.8045 23.9593 65.7912 21.882C64.8032 19.7793 64.3092 17.2967 64.3092 14.434C64.3092 11.5967 64.8665 9.13933 65.9812 7.062C67.0959 4.98467 68.6919 3.376 70.7692 2.236C72.8719 1.07067 75.4052 0.487999 78.3692 0.487999C79.8892 0.487999 81.3205 0.627332 82.6632 0.905998C84.0312 1.18467 85.2979 1.57733 86.4632 2.084L85.1712 5.048C84.2085 4.61733 83.1192 4.25 81.9032 3.946C80.7125 3.642 79.4712 3.49 78.1792 3.49C76.0259 3.49 74.1765 3.93333 72.6312 4.82C71.0859 5.70667 69.9079 6.97333 69.0972 8.62C68.2865 10.2413 67.8812 12.1793 67.8812 14.434C67.8812 16.5873 68.2232 18.5 68.9072 20.172C69.6165 21.8187 70.7185 23.1107 72.2132 24.048C73.7079 24.96 75.6712 25.416 78.1032 25.416C78.9139 25.416 79.6232 25.3907 80.2312 25.34C80.8645 25.264 81.4345 25.1753 81.9412 25.074C82.4732 24.9727 82.9672 24.8713 83.4232 24.77V16.714H77.4572V13.674ZM123.958 18.424C123.958 20.2987 123.578 21.996 122.818 23.516C122.058 25.0107 120.892 26.2013 119.322 27.088C117.776 27.9493 115.8 28.38 113.394 28.38C110.024 28.38 107.453 27.468 105.68 25.644C103.932 23.7947 103.058 21.3627 103.058 18.348V0.867998H106.478V18.462C106.478 20.666 107.06 22.376 108.226 23.592C109.416 24.808 111.202 25.416 113.584 25.416C115.23 25.416 116.56 25.1247 117.574 24.542C118.612 23.934 119.372 23.1107 119.854 22.072C120.335 21.008 120.576 19.792 120.576 18.424V0.867998H123.958V18.424ZM141.119 28V0.867998H144.539V24.96H156.395V28H141.119ZM188.07 28L184.802 19.602H174.048L170.818 28H167.36L177.962 0.754H181.04L191.604 28H188.07ZM180.736 8.354C180.66 8.15133 180.534 7.784 180.356 7.252C180.179 6.72 180.002 6.17533 179.824 5.618C179.672 5.03533 179.546 4.592 179.444 4.288C179.318 4.79467 179.178 5.314 179.026 5.846C178.9 6.35267 178.76 6.82133 178.608 7.252C178.482 7.68267 178.368 8.05 178.266 8.354L175.188 16.562H183.776L180.736 8.354ZM212.802 0.867998C215.057 0.867998 216.906 1.15933 218.35 1.742C219.819 2.29933 220.909 3.148 221.618 4.288C222.327 5.428 222.682 6.85933 222.682 8.582C222.682 10.026 222.416 11.2293 221.884 12.192C221.352 13.1547 220.668 13.9273 219.832 14.51C219.021 15.0673 218.16 15.5107 217.248 15.84L224.696 28H220.706L214.132 16.79H208.736V28H205.316V0.867998H212.802ZM212.612 3.832H208.736V13.902H212.802C214.271 13.902 215.475 13.712 216.412 13.332C217.349 12.9267 218.033 12.344 218.464 11.584C218.92 10.824 219.148 9.874 219.148 8.734C219.148 7.54333 218.907 6.59333 218.426 5.884C217.97 5.17467 217.261 4.65533 216.298 4.326C215.335 3.99667 214.107 3.832 212.612 3.832ZM265.363 28H261.943V0.867998H277.105V3.87H265.363V13.484H276.383V16.486H265.363V28ZM315.322 14.396C315.322 16.4987 315.056 18.4113 314.524 20.134C313.992 21.8313 313.194 23.3007 312.13 24.542C311.091 25.7833 309.787 26.7333 308.216 27.392C306.671 28.0507 304.872 28.38 302.82 28.38C300.692 28.38 298.843 28.0507 297.272 27.392C295.701 26.708 294.397 25.758 293.358 24.542C292.319 23.3007 291.547 21.8187 291.04 20.096C290.533 18.3733 290.28 16.4607 290.28 14.358C290.28 11.5713 290.736 9.13933 291.648 7.062C292.56 4.98467 293.941 3.36333 295.79 2.198C297.665 1.03267 300.021 0.449999 302.858 0.449999C305.569 0.449999 307.849 1.03267 309.698 2.198C311.547 3.338 312.941 4.95933 313.878 7.062C314.841 9.13933 315.322 11.584 315.322 14.396ZM293.89 14.396C293.89 16.676 294.207 18.6393 294.84 20.286C295.473 21.9327 296.449 23.1993 297.766 24.086C299.109 24.9727 300.793 25.416 302.82 25.416C304.872 25.416 306.544 24.9727 307.836 24.086C309.153 23.1993 310.129 21.9327 310.762 20.286C311.395 18.6393 311.712 16.676 311.712 14.396C311.712 10.976 311.003 8.30333 309.584 6.378C308.165 4.42733 305.923 3.452 302.858 3.452C300.806 3.452 299.109 3.89533 297.766 4.782C296.449 5.64333 295.473 6.89733 294.84 8.544C294.207 10.1653 293.89 12.116 293.89 14.396ZM338.821 0.867998C341.076 0.867998 342.925 1.15933 344.369 1.742C345.839 2.29933 346.928 3.148 347.637 4.288C348.347 5.428 348.701 6.85933 348.701 8.582C348.701 10.026 348.435 11.2293 347.903 12.192C347.371 13.1547 346.687 13.9273 345.851 14.51C345.041 15.0673 344.179 15.5107 343.267 15.84L350.715 28H346.725L340.151 16.79H334.755V28H331.335V0.867998H338.821ZM338.631 3.832H334.755V13.902H338.821C340.291 13.902 341.494 13.712 342.431 13.332C343.369 12.9267 344.053 12.344 344.483 11.584C344.939 10.824 345.167 9.874 345.167 8.734C345.167 7.54333 344.927 6.59333 344.445 5.884C343.989 5.17467 343.28 4.65533 342.317 4.326C341.355 3.99667 340.126 3.832 338.631 3.832ZM376.944 28L368.014 4.212H367.862C367.913 4.71867 367.951 5.36467 367.976 6.15C368.027 6.93533 368.065 7.79667 368.09 8.734C368.115 9.646 368.128 10.5833 368.128 11.546V28H364.974V0.867998H370.028L378.388 23.098H378.54L387.052 0.867998H392.068V28H388.686V11.318C388.686 10.4313 388.699 9.55733 388.724 8.696C388.749 7.80933 388.787 6.986 388.838 6.226C388.889 5.44067 388.927 4.782 388.952 4.25H388.8L379.756 28H376.944Z" fill="url(#paint0_linear_300_2248)"/>
<defs>
<linearGradient id="paint0_linear_300_2248" x1="-24.4897" y1="38.4998" x2="399.551" y2="38.4999" gradientUnits="userSpaceOnUse">
<stop stop-color="#CF94FE"/>
<stop offset="1" stop-color="#7193C7"/>
</linearGradient>
</defs>
</svg>
