<svg width="24" height="24" viewBox="0 0 24 24" fill="none" xmlns="http://www.w3.org/2000/svg">
<g clip-path="url(#clip0_58_368)">
<path d="M24.0001 22.5861L17.7431 16.3281C19.3665 14.3416 20.1644 11.8072 19.9718 9.24903C19.7791 6.69082 18.6106 4.30451 16.708 2.58361C14.8054 0.862704 12.3141 -0.061142 9.74947 0.00313065C7.18483 0.0674033 4.74298 1.11488 2.92894 2.92892C1.11489 4.74297 0.0674148 7.18482 0.00314209 9.74946C-0.0611306 12.3141 0.862716 14.8054 2.58362 16.708C4.30452 18.6106 6.69083 19.7791 9.24904 19.9718C11.8072 20.1644 14.3416 19.3665 16.3281 17.7431L22.5861 24.0001L24.0001 22.5861Z" fill="#393939"/>
</g>
<defs>
<clipPath id="clip0_58_368">
<rect width="24" height="24" fill="white"/>
</clipPath>
</defs>
</svg>
