<svg width="1429" height="1126" viewBox="0 0 1429 1126" fill="none" xmlns="http://www.w3.org/2000/svg">
<path fill-rule="evenodd" clip-rule="evenodd" d="M10 855C4.47715 855 0 859.477 0 865V898.829C0 904.352 4.47716 908.829 10 908.829H43.8288C49.3516 908.829 53.8288 904.352 53.8288 898.829V865C53.8288 859.477 49.3516 855 43.8288 855H10ZM10 927.39C4.47715 927.39 0 931.868 0 937.39V971.219C0 976.742 4.47716 981.219 10 981.219H43.8288C49.3516 981.219 53.8288 976.742 53.8288 971.219V937.39C53.8288 931.868 49.3516 927.39 43.8288 927.39H10ZM0 1009.78C0 1004.26 4.47715 999.781 10 999.781H43.8288C49.3516 999.781 53.8288 1004.26 53.8288 1009.78V1043.61C53.8288 1049.13 49.3516 1053.61 43.8288 1053.61H10C4.47716 1053.61 0 1049.13 0 1043.61V1009.78ZM10 1072.17C4.47715 1072.17 0 1076.65 0 1082.17V1116C0 1121.52 4.47716 1126 10 1126H43.8288C49.3516 1126 53.8288 1121.52 53.8288 1116V1082.17C53.8288 1076.65 49.3516 1072.17 43.8288 1072.17H10ZM361.952 937.39C361.952 931.868 366.429 927.39 371.952 927.39H405.781C411.304 927.39 415.781 931.868 415.781 937.39V971.219C415.781 976.742 411.304 981.219 405.781 981.219H371.952C366.429 981.219 361.952 976.742 361.952 971.219V937.39ZM371.952 855C366.429 855 361.952 859.477 361.952 865V898.829C361.952 904.352 366.429 908.829 371.952 908.829H405.781C411.304 908.829 415.781 904.352 415.781 898.829V865C415.781 859.477 411.304 855 405.781 855H371.952ZM72.3904 937.39C72.3904 931.868 76.8676 927.39 82.3904 927.39H116.219C121.742 927.39 126.219 931.868 126.219 937.39V971.219C126.219 976.742 121.742 981.219 116.219 981.219H82.3904C76.8676 981.219 72.3904 976.742 72.3904 971.219V937.39ZM371.952 999.781C366.429 999.781 361.952 1004.26 361.952 1009.78V1043.61C361.952 1049.13 366.429 1053.61 371.952 1053.61H405.781C411.304 1053.61 415.781 1049.13 415.781 1043.61V1009.78C415.781 1004.26 411.304 999.781 405.781 999.781H371.952ZM361.952 1082.17C361.952 1076.65 366.429 1072.17 371.952 1072.17H405.781C411.304 1072.17 415.781 1076.65 415.781 1082.17V1116C415.781 1121.52 411.304 1126 405.781 1126H371.952C366.429 1126 361.952 1121.52 361.952 1116V1082.17ZM444.342 927.39C438.82 927.39 434.342 931.868 434.342 937.39V971.219C434.342 976.742 438.82 981.219 444.342 981.219H478.171C483.694 981.219 488.171 976.742 488.171 971.219V937.39C488.171 931.868 483.694 927.39 478.171 927.39H444.342ZM72.3904 865C72.3904 859.477 76.8676 855 82.3904 855H116.219C121.742 855 126.219 859.477 126.219 865V898.829C126.219 904.352 121.742 908.829 116.219 908.829H82.3904C76.8676 908.829 72.3904 904.352 72.3904 898.829V865ZM154.781 927.39C149.258 927.39 144.781 931.868 144.781 937.39V971.219C144.781 976.742 149.258 981.219 154.781 981.219H188.61C194.132 981.219 198.61 976.742 198.61 971.219V937.39C198.61 931.868 194.132 927.39 188.61 927.39H154.781ZM72.3904 1009.78C72.3904 1004.26 76.8676 999.781 82.3904 999.781H116.219C121.742 999.781 126.219 1004.26 126.219 1009.78V1043.61C126.219 1049.13 121.742 1053.61 116.219 1053.61H82.3904C76.8676 1053.61 72.3904 1049.13 72.3904 1043.61V1009.78ZM82.3904 1072.17C76.8676 1072.17 72.3904 1076.65 72.3904 1082.17V1116C72.3904 1121.52 76.8676 1126 82.3904 1126H116.219C121.742 1126 126.219 1121.52 126.219 1116V1082.17C126.219 1076.65 121.742 1072.17 116.219 1072.17H82.3904ZM506.733 937.39C506.733 931.868 511.21 927.39 516.733 927.39H550.562C556.085 927.39 560.562 931.868 560.562 937.39V971.219C560.562 976.742 556.085 981.219 550.562 981.219H516.733C511.21 981.219 506.733 976.742 506.733 971.219V937.39ZM444.342 855C438.82 855 434.342 859.477 434.342 865V898.829C434.342 904.352 438.82 908.829 444.342 908.829H478.171C483.694 908.829 488.171 904.352 488.171 898.829V865C488.171 859.477 483.694 855 478.171 855H444.342ZM217.171 937.39C217.171 931.868 221.648 927.39 227.171 927.39H261C266.523 927.39 271 931.868 271 937.39V971.219C271 976.742 266.523 981.219 261 981.219H227.171C221.648 981.219 217.171 976.742 217.171 971.219V937.39ZM444.342 999.781C438.82 999.781 434.342 1004.26 434.342 1009.78V1043.61C434.342 1049.13 438.82 1053.61 444.342 1053.61H478.171C483.694 1053.61 488.171 1049.13 488.171 1043.61V1009.78C488.171 1004.26 483.694 999.781 478.171 999.781H444.342ZM434.342 1082.17C434.342 1076.65 438.82 1072.17 444.342 1072.17H478.171C483.694 1072.17 488.171 1076.65 488.171 1082.17V1116C488.171 1121.52 483.694 1126 478.171 1126H444.342C438.82 1126 434.342 1121.52 434.342 1116V1082.17ZM589.123 927.39C583.6 927.39 579.123 931.868 579.123 937.39V971.219C579.123 976.742 583.6 981.219 589.123 981.219H622.952C628.475 981.219 632.952 976.742 632.952 971.219V937.39C632.952 931.868 628.475 927.39 622.952 927.39H589.123ZM144.781 865C144.781 859.477 149.258 855 154.781 855H188.61C194.132 855 198.61 859.477 198.61 865V898.829C198.61 904.352 194.132 908.829 188.61 908.829H154.781C149.258 908.829 144.781 904.352 144.781 898.829V865ZM299.562 927.39C294.039 927.39 289.562 931.868 289.562 937.39V971.219C289.562 976.742 294.039 981.219 299.562 981.219H333.39C338.913 981.219 343.39 976.742 343.39 971.219V937.39C343.39 931.868 338.913 927.39 333.39 927.39H299.562ZM144.781 1009.78C144.781 1004.26 149.258 999.781 154.781 999.781H188.61C194.132 999.781 198.61 1004.26 198.61 1009.78V1043.61C198.61 1049.13 194.132 1053.61 188.61 1053.61H154.781C149.258 1053.61 144.781 1049.13 144.781 1043.61V1009.78ZM154.781 1072.17C149.258 1072.17 144.781 1076.65 144.781 1082.17V1116C144.781 1121.52 149.258 1126 154.781 1126H188.61C194.132 1126 198.61 1121.52 198.61 1116V1082.17C198.61 1076.65 194.132 1072.17 188.61 1072.17H154.781ZM651.514 937.39C651.514 931.868 655.991 927.39 661.514 927.39H695.342C700.865 927.39 705.342 931.868 705.342 937.39V971.219C705.342 976.742 700.865 981.219 695.342 981.219H661.514C655.991 981.219 651.514 976.742 651.514 971.219V937.39ZM516.733 855C511.21 855 506.733 859.477 506.733 865V898.829C506.733 904.352 511.21 908.829 516.733 908.829H550.562C556.085 908.829 560.562 904.352 560.562 898.829V865C560.562 859.477 556.085 855 550.562 855H516.733ZM506.733 1009.78C506.733 1004.26 511.21 999.781 516.733 999.781H550.562C556.085 999.781 560.562 1004.26 560.562 1009.78V1043.61C560.562 1049.13 556.085 1053.61 550.562 1053.61H516.733C511.21 1053.61 506.733 1049.13 506.733 1043.61V1009.78ZM516.733 1072.17C511.21 1072.17 506.733 1076.65 506.733 1082.17V1116C506.733 1121.52 511.21 1126 516.733 1126H550.562C556.085 1126 560.562 1121.52 560.562 1116V1082.17C560.562 1076.65 556.085 1072.17 550.562 1072.17H516.733ZM217.171 865C217.171 859.477 221.648 855 227.171 855H261C266.523 855 271 859.477 271 865V898.829C271 904.352 266.523 908.829 261 908.829H227.171C221.648 908.829 217.171 904.352 217.171 898.829V865ZM227.171 999.781C221.648 999.781 217.171 1004.26 217.171 1009.78V1043.61C217.171 1049.13 221.648 1053.61 227.171 1053.61H261C266.523 1053.61 271 1049.13 271 1043.61V1009.78C271 1004.26 266.523 999.781 261 999.781H227.171ZM217.171 1082.17C217.171 1076.65 221.648 1072.17 227.171 1072.17H261C266.523 1072.17 271 1076.65 271 1082.17V1116C271 1121.52 266.523 1126 261 1126H227.171C221.648 1126 217.171 1121.52 217.171 1116V1082.17ZM589.123 855C583.6 855 579.123 859.477 579.123 865V898.829C579.123 904.352 583.6 908.829 589.123 908.829H622.952C628.475 908.829 632.952 904.352 632.952 898.829V865C632.952 859.477 628.475 855 622.952 855H589.123ZM579.123 1009.78C579.123 1004.26 583.6 999.781 589.123 999.781H622.952C628.475 999.781 632.952 1004.26 632.952 1009.78V1043.61C632.952 1049.13 628.475 1053.61 622.952 1053.61H589.123C583.6 1053.61 579.123 1049.13 579.123 1043.61V1009.78ZM589.123 1072.17C583.6 1072.17 579.123 1076.65 579.123 1082.17V1116C579.123 1121.52 583.6 1126 589.123 1126H622.952C628.475 1126 632.952 1121.52 632.952 1116V1082.17C632.952 1076.65 628.475 1072.17 622.952 1072.17H589.123ZM289.562 865C289.562 859.477 294.039 855 299.562 855H333.39C338.913 855 343.39 859.477 343.39 865V898.829C343.39 904.352 338.913 908.829 333.39 908.829H299.562C294.039 908.829 289.562 904.352 289.562 898.829V865ZM299.562 999.781C294.039 999.781 289.562 1004.26 289.562 1009.78V1043.61C289.562 1049.13 294.039 1053.61 299.562 1053.61H333.39C338.913 1053.61 343.39 1049.13 343.39 1043.61V1009.78C343.39 1004.26 338.913 999.781 333.39 999.781H299.562ZM289.562 1082.17C289.562 1076.65 294.039 1072.17 299.562 1072.17H333.39C338.913 1072.17 343.39 1076.65 343.39 1082.17V1116C343.39 1121.52 338.913 1126 333.39 1126H299.562C294.039 1126 289.562 1121.52 289.562 1116V1082.17ZM661.514 855C655.991 855 651.514 859.477 651.514 865V898.829C651.514 904.352 655.991 908.829 661.514 908.829H695.342C700.865 908.829 705.342 904.352 705.342 898.829V865C705.342 859.477 700.865 855 695.342 855H661.514ZM651.514 1009.78C651.514 1004.26 655.991 999.781 661.514 999.781H695.342C700.865 999.781 705.342 1004.26 705.342 1009.78V1043.61C705.342 1049.13 700.865 1053.61 695.342 1053.61H661.514C655.991 1053.61 651.514 1049.13 651.514 1043.61V1009.78ZM661.514 1072.17C655.991 1072.17 651.514 1076.65 651.514 1082.17V1116C651.514 1121.52 655.991 1126 661.514 1126H695.342C700.865 1126 705.342 1121.52 705.342 1116V1082.17C705.342 1076.65 700.865 1072.17 695.342 1072.17H661.514Z" fill="url(#paint0_linear_243_356)"/>
<path fill-rule="evenodd" clip-rule="evenodd" d="M10 285C4.47715 285 0 289.477 0 295V328.829C0 334.352 4.47716 338.829 10 338.829H43.8288C49.3516 338.829 53.8288 334.352 53.8288 328.829V295C53.8288 289.477 49.3516 285 43.8288 285H10ZM10 357.39C4.47715 357.39 0 361.868 0 367.39V401.219C0 406.742 4.47716 411.219 10 411.219H43.8288C49.3516 411.219 53.8288 406.742 53.8288 401.219V367.39C53.8288 361.868 49.3516 357.39 43.8288 357.39H10ZM0 439.781C0 434.258 4.47715 429.781 10 429.781H43.8288C49.3516 429.781 53.8288 434.258 53.8288 439.781V473.61C53.8288 479.132 49.3516 483.61 43.8288 483.61H10C4.47716 483.61 0 479.132 0 473.61V439.781ZM10 502.171C4.47715 502.171 0 506.648 0 512.171V546C0 551.523 4.47716 556 10 556H43.8288C49.3516 556 53.8288 551.523 53.8288 546V512.171C53.8288 506.648 49.3516 502.171 43.8288 502.171H10ZM361.952 367.39C361.952 361.868 366.429 357.39 371.952 357.39H405.781C411.304 357.39 415.781 361.868 415.781 367.39V401.219C415.781 406.742 411.304 411.219 405.781 411.219H371.952C366.429 411.219 361.952 406.742 361.952 401.219V367.39ZM371.952 285C366.429 285 361.952 289.477 361.952 295V328.829C361.952 334.352 366.429 338.829 371.952 338.829H405.781C411.304 338.829 415.781 334.352 415.781 328.829V295C415.781 289.477 411.304 285 405.781 285H371.952ZM72.3904 367.39C72.3904 361.868 76.8676 357.39 82.3904 357.39H116.219C121.742 357.39 126.219 361.868 126.219 367.39V401.219C126.219 406.742 121.742 411.219 116.219 411.219H82.3904C76.8676 411.219 72.3904 406.742 72.3904 401.219V367.39ZM371.952 429.781C366.429 429.781 361.952 434.258 361.952 439.781V473.61C361.952 479.132 366.429 483.61 371.952 483.61H405.781C411.304 483.61 415.781 479.132 415.781 473.61V439.781C415.781 434.258 411.304 429.781 405.781 429.781H371.952ZM361.952 512.171C361.952 506.648 366.429 502.171 371.952 502.171H405.781C411.304 502.171 415.781 506.648 415.781 512.171V546C415.781 551.523 411.304 556 405.781 556H371.952C366.429 556 361.952 551.523 361.952 546V512.171ZM444.342 357.39C438.82 357.39 434.342 361.868 434.342 367.39V401.219C434.342 406.742 438.82 411.219 444.342 411.219H478.171C483.694 411.219 488.171 406.742 488.171 401.219V367.39C488.171 361.868 483.694 357.39 478.171 357.39H444.342ZM72.3904 295C72.3904 289.477 76.8676 285 82.3904 285H116.219C121.742 285 126.219 289.477 126.219 295V328.829C126.219 334.352 121.742 338.829 116.219 338.829H82.3904C76.8676 338.829 72.3904 334.352 72.3904 328.829V295ZM154.781 357.39C149.258 357.39 144.781 361.868 144.781 367.39V401.219C144.781 406.742 149.258 411.219 154.781 411.219H188.61C194.132 411.219 198.61 406.742 198.61 401.219V367.39C198.61 361.868 194.132 357.39 188.61 357.39H154.781ZM72.3904 439.781C72.3904 434.258 76.8676 429.781 82.3904 429.781H116.219C121.742 429.781 126.219 434.258 126.219 439.781V473.61C126.219 479.132 121.742 483.61 116.219 483.61H82.3904C76.8676 483.61 72.3904 479.132 72.3904 473.61V439.781ZM82.3904 502.171C76.8676 502.171 72.3904 506.648 72.3904 512.171V546C72.3904 551.523 76.8676 556 82.3904 556H116.219C121.742 556 126.219 551.523 126.219 546V512.171C126.219 506.648 121.742 502.171 116.219 502.171H82.3904ZM506.733 367.39C506.733 361.868 511.21 357.39 516.733 357.39H550.562C556.085 357.39 560.562 361.868 560.562 367.39V401.219C560.562 406.742 556.085 411.219 550.562 411.219H516.733C511.21 411.219 506.733 406.742 506.733 401.219V367.39ZM444.342 285C438.82 285 434.342 289.477 434.342 295V328.829C434.342 334.352 438.82 338.829 444.342 338.829H478.171C483.694 338.829 488.171 334.352 488.171 328.829V295C488.171 289.477 483.694 285 478.171 285H444.342ZM217.171 367.39C217.171 361.868 221.648 357.39 227.171 357.39H261C266.523 357.39 271 361.868 271 367.39V401.219C271 406.742 266.523 411.219 261 411.219H227.171C221.648 411.219 217.171 406.742 217.171 401.219V367.39ZM444.342 429.781C438.82 429.781 434.342 434.258 434.342 439.781V473.61C434.342 479.132 438.82 483.61 444.342 483.61H478.171C483.694 483.61 488.171 479.132 488.171 473.61V439.781C488.171 434.258 483.694 429.781 478.171 429.781H444.342ZM434.342 512.171C434.342 506.648 438.82 502.171 444.342 502.171H478.171C483.694 502.171 488.171 506.648 488.171 512.171V546C488.171 551.523 483.694 556 478.171 556H444.342C438.82 556 434.342 551.523 434.342 546V512.171ZM589.123 357.39C583.6 357.39 579.123 361.868 579.123 367.39V401.219C579.123 406.742 583.6 411.219 589.123 411.219H622.952C628.475 411.219 632.952 406.742 632.952 401.219V367.39C632.952 361.868 628.475 357.39 622.952 357.39H589.123ZM144.781 295C144.781 289.477 149.258 285 154.781 285H188.61C194.132 285 198.61 289.477 198.61 295V328.829C198.61 334.352 194.132 338.829 188.61 338.829H154.781C149.258 338.829 144.781 334.352 144.781 328.829V295ZM299.562 357.39C294.039 357.39 289.562 361.868 289.562 367.39V401.219C289.562 406.742 294.039 411.219 299.562 411.219H333.39C338.913 411.219 343.39 406.742 343.39 401.219V367.39C343.39 361.868 338.913 357.39 333.39 357.39H299.562ZM144.781 439.781C144.781 434.258 149.258 429.781 154.781 429.781H188.61C194.132 429.781 198.61 434.258 198.61 439.781V473.61C198.61 479.132 194.132 483.61 188.61 483.61H154.781C149.258 483.61 144.781 479.132 144.781 473.61V439.781ZM154.781 502.171C149.258 502.171 144.781 506.648 144.781 512.171V546C144.781 551.523 149.258 556 154.781 556H188.61C194.132 556 198.61 551.523 198.61 546V512.171C198.61 506.648 194.132 502.171 188.61 502.171H154.781ZM651.514 367.39C651.514 361.868 655.991 357.39 661.514 357.39H695.342C700.865 357.39 705.342 361.868 705.342 367.39V401.219C705.342 406.742 700.865 411.219 695.342 411.219H661.514C655.991 411.219 651.514 406.742 651.514 401.219V367.39ZM516.733 285C511.21 285 506.733 289.477 506.733 295V328.829C506.733 334.352 511.21 338.829 516.733 338.829H550.562C556.085 338.829 560.562 334.352 560.562 328.829V295C560.562 289.477 556.085 285 550.562 285H516.733ZM506.733 439.781C506.733 434.258 511.21 429.781 516.733 429.781H550.562C556.085 429.781 560.562 434.258 560.562 439.781V473.61C560.562 479.132 556.085 483.61 550.562 483.61H516.733C511.21 483.61 506.733 479.132 506.733 473.61V439.781ZM516.733 502.171C511.21 502.171 506.733 506.648 506.733 512.171V546C506.733 551.523 511.21 556 516.733 556H550.562C556.085 556 560.562 551.523 560.562 546V512.171C560.562 506.648 556.085 502.171 550.562 502.171H516.733ZM217.171 295C217.171 289.477 221.648 285 227.171 285H261C266.523 285 271 289.477 271 295V328.829C271 334.352 266.523 338.829 261 338.829H227.171C221.648 338.829 217.171 334.352 217.171 328.829V295ZM227.171 429.781C221.648 429.781 217.171 434.258 217.171 439.781V473.61C217.171 479.132 221.648 483.61 227.171 483.61H261C266.523 483.61 271 479.132 271 473.61V439.781C271 434.258 266.523 429.781 261 429.781H227.171ZM217.171 512.171C217.171 506.648 221.648 502.171 227.171 502.171H261C266.523 502.171 271 506.648 271 512.171V546C271 551.523 266.523 556 261 556H227.171C221.648 556 217.171 551.523 217.171 546V512.171ZM589.123 285C583.6 285 579.123 289.477 579.123 295V328.829C579.123 334.352 583.6 338.829 589.123 338.829H622.952C628.475 338.829 632.952 334.352 632.952 328.829V295C632.952 289.477 628.475 285 622.952 285H589.123ZM579.123 439.781C579.123 434.258 583.6 429.781 589.123 429.781H622.952C628.475 429.781 632.952 434.258 632.952 439.781V473.61C632.952 479.132 628.475 483.61 622.952 483.61H589.123C583.6 483.61 579.123 479.132 579.123 473.61V439.781ZM589.123 502.171C583.6 502.171 579.123 506.648 579.123 512.171V546C579.123 551.523 583.6 556 589.123 556H622.952C628.475 556 632.952 551.523 632.952 546V512.171C632.952 506.648 628.475 502.171 622.952 502.171H589.123ZM289.562 295C289.562 289.477 294.039 285 299.562 285H333.39C338.913 285 343.39 289.477 343.39 295V328.829C343.39 334.352 338.913 338.829 333.39 338.829H299.562C294.039 338.829 289.562 334.352 289.562 328.829V295ZM299.562 429.781C294.039 429.781 289.562 434.258 289.562 439.781V473.61C289.562 479.132 294.039 483.61 299.562 483.61H333.39C338.913 483.61 343.39 479.132 343.39 473.61V439.781C343.39 434.258 338.913 429.781 333.39 429.781H299.562ZM289.562 512.171C289.562 506.648 294.039 502.171 299.562 502.171H333.39C338.913 502.171 343.39 506.648 343.39 512.171V546C343.39 551.523 338.913 556 333.39 556H299.562C294.039 556 289.562 551.523 289.562 546V512.171ZM661.514 285C655.991 285 651.514 289.477 651.514 295V328.829C651.514 334.352 655.991 338.829 661.514 338.829H695.342C700.865 338.829 705.342 334.352 705.342 328.829V295C705.342 289.477 700.865 285 695.342 285H661.514ZM651.514 439.781C651.514 434.258 655.991 429.781 661.514 429.781H695.342C700.865 429.781 705.342 434.258 705.342 439.781V473.61C705.342 479.132 700.865 483.61 695.342 483.61H661.514C655.991 483.61 651.514 479.132 651.514 473.61V439.781ZM661.514 502.171C655.991 502.171 651.514 506.648 651.514 512.171V546C651.514 551.523 655.991 556 661.514 556H695.342C700.865 556 705.342 551.523 705.342 546V512.171C705.342 506.648 700.865 502.171 695.342 502.171H661.514Z" fill="url(#paint1_linear_243_356)"/>
<path fill-rule="evenodd" clip-rule="evenodd" d="M733 855C727.477 855 723 859.477 723 865V898.829C723 904.352 727.477 908.829 733 908.829H766.829C772.352 908.829 776.829 904.352 776.829 898.829V865C776.829 859.477 772.352 855 766.829 855H733ZM733 927.39C727.477 927.39 723 931.868 723 937.39V971.219C723 976.742 727.477 981.219 733 981.219H766.829C772.352 981.219 776.829 976.742 776.829 971.219V937.39C776.829 931.868 772.352 927.39 766.829 927.39H733ZM723 1009.78C723 1004.26 727.477 999.781 733 999.781H766.829C772.352 999.781 776.829 1004.26 776.829 1009.78V1043.61C776.829 1049.13 772.352 1053.61 766.829 1053.61H733C727.477 1053.61 723 1049.13 723 1043.61V1009.78ZM733 1072.17C727.477 1072.17 723 1076.65 723 1082.17V1116C723 1121.52 727.477 1126 733 1126H766.829C772.352 1126 776.829 1121.52 776.829 1116V1082.17C776.829 1076.65 772.352 1072.17 766.829 1072.17H733ZM1084.95 937.39C1084.95 931.868 1089.43 927.39 1094.95 927.39H1128.78C1134.3 927.39 1138.78 931.868 1138.78 937.39V971.219C1138.78 976.742 1134.3 981.219 1128.78 981.219H1094.95C1089.43 981.219 1084.95 976.742 1084.95 971.219V937.39ZM1094.95 855C1089.43 855 1084.95 859.477 1084.95 865V898.829C1084.95 904.352 1089.43 908.829 1094.95 908.829H1128.78C1134.3 908.829 1138.78 904.352 1138.78 898.829V865C1138.78 859.477 1134.3 855 1128.78 855H1094.95ZM795.39 937.39C795.39 931.868 799.868 927.39 805.39 927.39H839.219C844.742 927.39 849.219 931.868 849.219 937.39V971.219C849.219 976.742 844.742 981.219 839.219 981.219H805.39C799.868 981.219 795.39 976.742 795.39 971.219V937.39ZM1094.95 999.781C1089.43 999.781 1084.95 1004.26 1084.95 1009.78V1043.61C1084.95 1049.13 1089.43 1053.61 1094.95 1053.61H1128.78C1134.3 1053.61 1138.78 1049.13 1138.78 1043.61V1009.78C1138.78 1004.26 1134.3 999.781 1128.78 999.781H1094.95ZM1084.95 1082.17C1084.95 1076.65 1089.43 1072.17 1094.95 1072.17H1128.78C1134.3 1072.17 1138.78 1076.65 1138.78 1082.17V1116C1138.78 1121.52 1134.3 1126 1128.78 1126H1094.95C1089.43 1126 1084.95 1121.52 1084.95 1116V1082.17ZM1167.34 927.39C1161.82 927.39 1157.34 931.868 1157.34 937.39V971.219C1157.34 976.742 1161.82 981.219 1167.34 981.219H1201.17C1206.69 981.219 1211.17 976.742 1211.17 971.219V937.39C1211.17 931.868 1206.69 927.39 1201.17 927.39H1167.34ZM795.39 865C795.39 859.477 799.868 855 805.39 855H839.219C844.742 855 849.219 859.477 849.219 865V898.829C849.219 904.352 844.742 908.829 839.219 908.829H805.39C799.868 908.829 795.39 904.352 795.39 898.829V865ZM877.781 927.39C872.258 927.39 867.781 931.868 867.781 937.39V971.219C867.781 976.742 872.258 981.219 877.781 981.219H911.61C917.132 981.219 921.61 976.742 921.61 971.219V937.39C921.61 931.868 917.132 927.39 911.61 927.39H877.781ZM795.39 1009.78C795.39 1004.26 799.868 999.781 805.39 999.781H839.219C844.742 999.781 849.219 1004.26 849.219 1009.78V1043.61C849.219 1049.13 844.742 1053.61 839.219 1053.61H805.39C799.868 1053.61 795.39 1049.13 795.39 1043.61V1009.78ZM805.39 1072.17C799.868 1072.17 795.39 1076.65 795.39 1082.17V1116C795.39 1121.52 799.868 1126 805.39 1126H839.219C844.742 1126 849.219 1121.52 849.219 1116V1082.17C849.219 1076.65 844.742 1072.17 839.219 1072.17H805.39ZM1229.73 937.39C1229.73 931.868 1234.21 927.39 1239.73 927.39H1273.56C1279.08 927.39 1283.56 931.868 1283.56 937.39V971.219C1283.56 976.742 1279.08 981.219 1273.56 981.219H1239.73C1234.21 981.219 1229.73 976.742 1229.73 971.219V937.39ZM1167.34 855C1161.82 855 1157.34 859.477 1157.34 865V898.829C1157.34 904.352 1161.82 908.829 1167.34 908.829H1201.17C1206.69 908.829 1211.17 904.352 1211.17 898.829V865C1211.17 859.477 1206.69 855 1201.17 855H1167.34ZM940.171 937.39C940.171 931.868 944.648 927.39 950.171 927.39H984C989.523 927.39 994 931.868 994 937.39V971.219C994 976.742 989.523 981.219 984 981.219H950.171C944.648 981.219 940.171 976.742 940.171 971.219V937.39ZM1167.34 999.781C1161.82 999.781 1157.34 1004.26 1157.34 1009.78V1043.61C1157.34 1049.13 1161.82 1053.61 1167.34 1053.61H1201.17C1206.69 1053.61 1211.17 1049.13 1211.17 1043.61V1009.78C1211.17 1004.26 1206.69 999.781 1201.17 999.781H1167.34ZM1157.34 1082.17C1157.34 1076.65 1161.82 1072.17 1167.34 1072.17H1201.17C1206.69 1072.17 1211.17 1076.65 1211.17 1082.17V1116C1211.17 1121.52 1206.69 1126 1201.17 1126H1167.34C1161.82 1126 1157.34 1121.52 1157.34 1116V1082.17ZM1312.12 927.39C1306.6 927.39 1302.12 931.868 1302.12 937.39V971.219C1302.12 976.742 1306.6 981.219 1312.12 981.219H1345.95C1351.47 981.219 1355.95 976.742 1355.95 971.219V937.39C1355.95 931.868 1351.47 927.39 1345.95 927.39H1312.12ZM867.781 865C867.781 859.477 872.258 855 877.781 855H911.61C917.132 855 921.61 859.477 921.61 865V898.829C921.61 904.352 917.132 908.829 911.61 908.829H877.781C872.258 908.829 867.781 904.352 867.781 898.829V865ZM1022.56 927.39C1017.04 927.39 1012.56 931.868 1012.56 937.39V971.219C1012.56 976.742 1017.04 981.219 1022.56 981.219H1056.39C1061.91 981.219 1066.39 976.742 1066.39 971.219V937.39C1066.39 931.868 1061.91 927.39 1056.39 927.39H1022.56ZM867.781 1009.78C867.781 1004.26 872.258 999.781 877.781 999.781H911.61C917.132 999.781 921.61 1004.26 921.61 1009.78V1043.61C921.61 1049.13 917.132 1053.61 911.61 1053.61H877.781C872.258 1053.61 867.781 1049.13 867.781 1043.61V1009.78ZM877.781 1072.17C872.258 1072.17 867.781 1076.65 867.781 1082.17V1116C867.781 1121.52 872.258 1126 877.781 1126H911.61C917.132 1126 921.61 1121.52 921.61 1116V1082.17C921.61 1076.65 917.132 1072.17 911.61 1072.17H877.781ZM1374.51 937.39C1374.51 931.868 1378.99 927.39 1384.51 927.39H1418.34C1423.87 927.39 1428.34 931.868 1428.34 937.39V971.219C1428.34 976.742 1423.87 981.219 1418.34 981.219H1384.51C1378.99 981.219 1374.51 976.742 1374.51 971.219V937.39ZM1239.73 855C1234.21 855 1229.73 859.477 1229.73 865V898.829C1229.73 904.352 1234.21 908.829 1239.73 908.829H1273.56C1279.08 908.829 1283.56 904.352 1283.56 898.829V865C1283.56 859.477 1279.08 855 1273.56 855H1239.73ZM1229.73 1009.78C1229.73 1004.26 1234.21 999.781 1239.73 999.781H1273.56C1279.08 999.781 1283.56 1004.26 1283.56 1009.78V1043.61C1283.56 1049.13 1279.08 1053.61 1273.56 1053.61H1239.73C1234.21 1053.61 1229.73 1049.13 1229.73 1043.61V1009.78ZM1239.73 1072.17C1234.21 1072.17 1229.73 1076.65 1229.73 1082.17V1116C1229.73 1121.52 1234.21 1126 1239.73 1126H1273.56C1279.08 1126 1283.56 1121.52 1283.56 1116V1082.17C1283.56 1076.65 1279.08 1072.17 1273.56 1072.17H1239.73ZM940.171 865C940.171 859.477 944.648 855 950.171 855H984C989.523 855 994 859.477 994 865V898.829C994 904.352 989.523 908.829 984 908.829H950.171C944.648 908.829 940.171 904.352 940.171 898.829V865ZM950.171 999.781C944.648 999.781 940.171 1004.26 940.171 1009.78V1043.61C940.171 1049.13 944.648 1053.61 950.171 1053.61H984C989.523 1053.61 994 1049.13 994 1043.61V1009.78C994 1004.26 989.523 999.781 984 999.781H950.171ZM940.171 1082.17C940.171 1076.65 944.648 1072.17 950.171 1072.17H984C989.523 1072.17 994 1076.65 994 1082.17V1116C994 1121.52 989.523 1126 984 1126H950.171C944.648 1126 940.171 1121.52 940.171 1116V1082.17ZM1312.12 855C1306.6 855 1302.12 859.477 1302.12 865V898.829C1302.12 904.352 1306.6 908.829 1312.12 908.829H1345.95C1351.47 908.829 1355.95 904.352 1355.95 898.829V865C1355.95 859.477 1351.47 855 1345.95 855H1312.12ZM1302.12 1009.78C1302.12 1004.26 1306.6 999.781 1312.12 999.781H1345.95C1351.47 999.781 1355.95 1004.26 1355.95 1009.78V1043.61C1355.95 1049.13 1351.47 1053.61 1345.95 1053.61H1312.12C1306.6 1053.61 1302.12 1049.13 1302.12 1043.61V1009.78ZM1312.12 1072.17C1306.6 1072.17 1302.12 1076.65 1302.12 1082.17V1116C1302.12 1121.52 1306.6 1126 1312.12 1126H1345.95C1351.47 1126 1355.95 1121.52 1355.95 1116V1082.17C1355.95 1076.65 1351.47 1072.17 1345.95 1072.17H1312.12ZM1012.56 865C1012.56 859.477 1017.04 855 1022.56 855H1056.39C1061.91 855 1066.39 859.477 1066.39 865V898.829C1066.39 904.352 1061.91 908.829 1056.39 908.829H1022.56C1017.04 908.829 1012.56 904.352 1012.56 898.829V865ZM1022.56 999.781C1017.04 999.781 1012.56 1004.26 1012.56 1009.78V1043.61C1012.56 1049.13 1017.04 1053.61 1022.56 1053.61H1056.39C1061.91 1053.61 1066.39 1049.13 1066.39 1043.61V1009.78C1066.39 1004.26 1061.91 999.781 1056.39 999.781H1022.56ZM1012.56 1082.17C1012.56 1076.65 1017.04 1072.17 1022.56 1072.17H1056.39C1061.91 1072.17 1066.39 1076.65 1066.39 1082.17V1116C1066.39 1121.52 1061.91 1126 1056.39 1126H1022.56C1017.04 1126 1012.56 1121.52 1012.56 1116V1082.17ZM1384.51 855C1378.99 855 1374.51 859.477 1374.51 865V898.829C1374.51 904.352 1378.99 908.829 1384.51 908.829H1418.34C1423.87 908.829 1428.34 904.352 1428.34 898.829V865C1428.34 859.477 1423.87 855 1418.34 855H1384.51ZM1374.51 1009.78C1374.51 1004.26 1378.99 999.781 1384.51 999.781H1418.34C1423.87 999.781 1428.34 1004.26 1428.34 1009.78V1043.61C1428.34 1049.13 1423.87 1053.61 1418.34 1053.61H1384.51C1378.99 1053.61 1374.51 1049.13 1374.51 1043.61V1009.78ZM1384.51 1072.17C1378.99 1072.17 1374.51 1076.65 1374.51 1082.17V1116C1374.51 1121.52 1378.99 1126 1384.51 1126H1418.34C1423.87 1126 1428.34 1121.52 1428.34 1116V1082.17C1428.34 1076.65 1423.87 1072.17 1418.34 1072.17H1384.51Z" fill="url(#paint2_linear_243_356)"/>
<path fill-rule="evenodd" clip-rule="evenodd" d="M733 285C727.477 285 723 289.477 723 295V328.829C723 334.352 727.477 338.829 733 338.829H766.829C772.352 338.829 776.829 334.352 776.829 328.829V295C776.829 289.477 772.352 285 766.829 285H733ZM733 357.39C727.477 357.39 723 361.868 723 367.39V401.219C723 406.742 727.477 411.219 733 411.219H766.829C772.352 411.219 776.829 406.742 776.829 401.219V367.39C776.829 361.868 772.352 357.39 766.829 357.39H733ZM723 439.781C723 434.258 727.477 429.781 733 429.781H766.829C772.352 429.781 776.829 434.258 776.829 439.781V473.61C776.829 479.132 772.352 483.61 766.829 483.61H733C727.477 483.61 723 479.132 723 473.61V439.781ZM733 502.171C727.477 502.171 723 506.648 723 512.171V546C723 551.523 727.477 556 733 556H766.829C772.352 556 776.829 551.523 776.829 546V512.171C776.829 506.648 772.352 502.171 766.829 502.171H733ZM1084.95 367.39C1084.95 361.868 1089.43 357.39 1094.95 357.39H1128.78C1134.3 357.39 1138.78 361.868 1138.78 367.39V401.219C1138.78 406.742 1134.3 411.219 1128.78 411.219H1094.95C1089.43 411.219 1084.95 406.742 1084.95 401.219V367.39ZM1094.95 285C1089.43 285 1084.95 289.477 1084.95 295V328.829C1084.95 334.352 1089.43 338.829 1094.95 338.829H1128.78C1134.3 338.829 1138.78 334.352 1138.78 328.829V295C1138.78 289.477 1134.3 285 1128.78 285H1094.95ZM795.39 367.39C795.39 361.868 799.868 357.39 805.39 357.39H839.219C844.742 357.39 849.219 361.868 849.219 367.39V401.219C849.219 406.742 844.742 411.219 839.219 411.219H805.39C799.868 411.219 795.39 406.742 795.39 401.219V367.39ZM1094.95 429.781C1089.43 429.781 1084.95 434.258 1084.95 439.781V473.61C1084.95 479.132 1089.43 483.61 1094.95 483.61H1128.78C1134.3 483.61 1138.78 479.132 1138.78 473.61V439.781C1138.78 434.258 1134.3 429.781 1128.78 429.781H1094.95ZM1084.95 512.171C1084.95 506.648 1089.43 502.171 1094.95 502.171H1128.78C1134.3 502.171 1138.78 506.648 1138.78 512.171V546C1138.78 551.523 1134.3 556 1128.78 556H1094.95C1089.43 556 1084.95 551.523 1084.95 546V512.171ZM1167.34 357.39C1161.82 357.39 1157.34 361.868 1157.34 367.39V401.219C1157.34 406.742 1161.82 411.219 1167.34 411.219H1201.17C1206.69 411.219 1211.17 406.742 1211.17 401.219V367.39C1211.17 361.868 1206.69 357.39 1201.17 357.39H1167.34ZM795.39 295C795.39 289.477 799.868 285 805.39 285H839.219C844.742 285 849.219 289.477 849.219 295V328.829C849.219 334.352 844.742 338.829 839.219 338.829H805.39C799.868 338.829 795.39 334.352 795.39 328.829V295ZM877.781 357.39C872.258 357.39 867.781 361.868 867.781 367.39V401.219C867.781 406.742 872.258 411.219 877.781 411.219H911.61C917.132 411.219 921.61 406.742 921.61 401.219V367.39C921.61 361.868 917.132 357.39 911.61 357.39H877.781ZM795.39 439.781C795.39 434.258 799.868 429.781 805.39 429.781H839.219C844.742 429.781 849.219 434.258 849.219 439.781V473.61C849.219 479.132 844.742 483.61 839.219 483.61H805.39C799.868 483.61 795.39 479.132 795.39 473.61V439.781ZM805.39 502.171C799.868 502.171 795.39 506.648 795.39 512.171V546C795.39 551.523 799.868 556 805.39 556H839.219C844.742 556 849.219 551.523 849.219 546V512.171C849.219 506.648 844.742 502.171 839.219 502.171H805.39ZM1229.73 367.39C1229.73 361.868 1234.21 357.39 1239.73 357.39H1273.56C1279.08 357.39 1283.56 361.868 1283.56 367.39V401.219C1283.56 406.742 1279.08 411.219 1273.56 411.219H1239.73C1234.21 411.219 1229.73 406.742 1229.73 401.219V367.39ZM1167.34 285C1161.82 285 1157.34 289.477 1157.34 295V328.829C1157.34 334.352 1161.82 338.829 1167.34 338.829H1201.17C1206.69 338.829 1211.17 334.352 1211.17 328.829V295C1211.17 289.477 1206.69 285 1201.17 285H1167.34ZM940.171 367.39C940.171 361.868 944.648 357.39 950.171 357.39H984C989.523 357.39 994 361.868 994 367.39V401.219C994 406.742 989.523 411.219 984 411.219H950.171C944.648 411.219 940.171 406.742 940.171 401.219V367.39ZM1167.34 429.781C1161.82 429.781 1157.34 434.258 1157.34 439.781V473.61C1157.34 479.132 1161.82 483.61 1167.34 483.61H1201.17C1206.69 483.61 1211.17 479.132 1211.17 473.61V439.781C1211.17 434.258 1206.69 429.781 1201.17 429.781H1167.34ZM1157.34 512.171C1157.34 506.648 1161.82 502.171 1167.34 502.171H1201.17C1206.69 502.171 1211.17 506.648 1211.17 512.171V546C1211.17 551.523 1206.69 556 1201.17 556H1167.34C1161.82 556 1157.34 551.523 1157.34 546V512.171ZM1312.12 357.39C1306.6 357.39 1302.12 361.868 1302.12 367.39V401.219C1302.12 406.742 1306.6 411.219 1312.12 411.219H1345.95C1351.47 411.219 1355.95 406.742 1355.95 401.219V367.39C1355.95 361.868 1351.47 357.39 1345.95 357.39H1312.12ZM867.781 295C867.781 289.477 872.258 285 877.781 285H911.61C917.132 285 921.61 289.477 921.61 295V328.829C921.61 334.352 917.132 338.829 911.61 338.829H877.781C872.258 338.829 867.781 334.352 867.781 328.829V295ZM1022.56 357.39C1017.04 357.39 1012.56 361.868 1012.56 367.39V401.219C1012.56 406.742 1017.04 411.219 1022.56 411.219H1056.39C1061.91 411.219 1066.39 406.742 1066.39 401.219V367.39C1066.39 361.868 1061.91 357.39 1056.39 357.39H1022.56ZM867.781 439.781C867.781 434.258 872.258 429.781 877.781 429.781H911.61C917.132 429.781 921.61 434.258 921.61 439.781V473.61C921.61 479.132 917.132 483.61 911.61 483.61H877.781C872.258 483.61 867.781 479.132 867.781 473.61V439.781ZM877.781 502.171C872.258 502.171 867.781 506.648 867.781 512.171V546C867.781 551.523 872.258 556 877.781 556H911.61C917.132 556 921.61 551.523 921.61 546V512.171C921.61 506.648 917.132 502.171 911.61 502.171H877.781ZM1374.51 367.39C1374.51 361.868 1378.99 357.39 1384.51 357.39H1418.34C1423.87 357.39 1428.34 361.868 1428.34 367.39V401.219C1428.34 406.742 1423.87 411.219 1418.34 411.219H1384.51C1378.99 411.219 1374.51 406.742 1374.51 401.219V367.39ZM1239.73 285C1234.21 285 1229.73 289.477 1229.73 295V328.829C1229.73 334.352 1234.21 338.829 1239.73 338.829H1273.56C1279.08 338.829 1283.56 334.352 1283.56 328.829V295C1283.56 289.477 1279.08 285 1273.56 285H1239.73ZM1229.73 439.781C1229.73 434.258 1234.21 429.781 1239.73 429.781H1273.56C1279.08 429.781 1283.56 434.258 1283.56 439.781V473.61C1283.56 479.132 1279.08 483.61 1273.56 483.61H1239.73C1234.21 483.61 1229.73 479.132 1229.73 473.61V439.781ZM1239.73 502.171C1234.21 502.171 1229.73 506.648 1229.73 512.171V546C1229.73 551.523 1234.21 556 1239.73 556H1273.56C1279.08 556 1283.56 551.523 1283.56 546V512.171C1283.56 506.648 1279.08 502.171 1273.56 502.171H1239.73ZM940.171 295C940.171 289.477 944.648 285 950.171 285H984C989.523 285 994 289.477 994 295V328.829C994 334.352 989.523 338.829 984 338.829H950.171C944.648 338.829 940.171 334.352 940.171 328.829V295ZM950.171 429.781C944.648 429.781 940.171 434.258 940.171 439.781V473.61C940.171 479.132 944.648 483.61 950.171 483.61H984C989.523 483.61 994 479.132 994 473.61V439.781C994 434.258 989.523 429.781 984 429.781H950.171ZM940.171 512.171C940.171 506.648 944.648 502.171 950.171 502.171H984C989.523 502.171 994 506.648 994 512.171V546C994 551.523 989.523 556 984 556H950.171C944.648 556 940.171 551.523 940.171 546V512.171ZM1312.12 285C1306.6 285 1302.12 289.477 1302.12 295V328.829C1302.12 334.352 1306.6 338.829 1312.12 338.829H1345.95C1351.47 338.829 1355.95 334.352 1355.95 328.829V295C1355.95 289.477 1351.47 285 1345.95 285H1312.12ZM1302.12 439.781C1302.12 434.258 1306.6 429.781 1312.12 429.781H1345.95C1351.47 429.781 1355.95 434.258 1355.95 439.781V473.61C1355.95 479.132 1351.47 483.61 1345.95 483.61H1312.12C1306.6 483.61 1302.12 479.132 1302.12 473.61V439.781ZM1312.12 502.171C1306.6 502.171 1302.12 506.648 1302.12 512.171V546C1302.12 551.523 1306.6 556 1312.12 556H1345.95C1351.47 556 1355.95 551.523 1355.95 546V512.171C1355.95 506.648 1351.47 502.171 1345.95 502.171H1312.12ZM1012.56 295C1012.56 289.477 1017.04 285 1022.56 285H1056.39C1061.91 285 1066.39 289.477 1066.39 295V328.829C1066.39 334.352 1061.91 338.829 1056.39 338.829H1022.56C1017.04 338.829 1012.56 334.352 1012.56 328.829V295ZM1022.56 429.781C1017.04 429.781 1012.56 434.258 1012.56 439.781V473.61C1012.56 479.132 1017.04 483.61 1022.56 483.61H1056.39C1061.91 483.61 1066.39 479.132 1066.39 473.61V439.781C1066.39 434.258 1061.91 429.781 1056.39 429.781H1022.56ZM1012.56 512.171C1012.56 506.648 1017.04 502.171 1022.56 502.171H1056.39C1061.91 502.171 1066.39 506.648 1066.39 512.171V546C1066.39 551.523 1061.91 556 1056.39 556H1022.56C1017.04 556 1012.56 551.523 1012.56 546V512.171ZM1384.51 285C1378.99 285 1374.51 289.477 1374.51 295V328.829C1374.51 334.352 1378.99 338.829 1384.51 338.829H1418.34C1423.87 338.829 1428.34 334.352 1428.34 328.829V295C1428.34 289.477 1423.87 285 1418.34 285H1384.51ZM1374.51 439.781C1374.51 434.258 1378.99 429.781 1384.51 429.781H1418.34C1423.87 429.781 1428.34 434.258 1428.34 439.781V473.61C1428.34 479.132 1423.87 483.61 1418.34 483.61H1384.51C1378.99 483.61 1374.51 479.132 1374.51 473.61V439.781ZM1384.51 502.171C1378.99 502.171 1374.51 506.648 1374.51 512.171V546C1374.51 551.523 1378.99 556 1384.51 556H1418.34C1423.87 556 1428.34 551.523 1428.34 546V512.171C1428.34 506.648 1423.87 502.171 1418.34 502.171H1384.51Z" fill="url(#paint3_linear_243_356)"/>
<path fill-rule="evenodd" clip-rule="evenodd" d="M10 570C4.47715 570 0 574.477 0 580V613.829C0 619.352 4.47716 623.829 10 623.829H43.8288C49.3516 623.829 53.8288 619.352 53.8288 613.829V580C53.8288 574.477 49.3516 570 43.8288 570H10ZM10 642.39C4.47715 642.39 0 646.868 0 652.39V686.219C0 691.742 4.47716 696.219 10 696.219H43.8288C49.3516 696.219 53.8288 691.742 53.8288 686.219V652.39C53.8288 646.868 49.3516 642.39 43.8288 642.39H10ZM0 724.781C0 719.258 4.47715 714.781 10 714.781H43.8288C49.3516 714.781 53.8288 719.258 53.8288 724.781V758.61C53.8288 764.132 49.3516 768.61 43.8288 768.61H10C4.47716 768.61 0 764.132 0 758.61V724.781ZM10 787.171C4.47715 787.171 0 791.648 0 797.171V831C0 836.523 4.47716 841 10 841H43.8288C49.3516 841 53.8288 836.523 53.8288 831V797.171C53.8288 791.648 49.3516 787.171 43.8288 787.171H10ZM361.952 652.39C361.952 646.868 366.429 642.39 371.952 642.39H405.781C411.304 642.39 415.781 646.868 415.781 652.39V686.219C415.781 691.742 411.304 696.219 405.781 696.219H371.952C366.429 696.219 361.952 691.742 361.952 686.219V652.39ZM371.952 570C366.429 570 361.952 574.477 361.952 580V613.829C361.952 619.352 366.429 623.829 371.952 623.829H405.781C411.304 623.829 415.781 619.352 415.781 613.829V580C415.781 574.477 411.304 570 405.781 570H371.952ZM72.3904 652.39C72.3904 646.868 76.8676 642.39 82.3904 642.39H116.219C121.742 642.39 126.219 646.868 126.219 652.39V686.219C126.219 691.742 121.742 696.219 116.219 696.219H82.3904C76.8676 696.219 72.3904 691.742 72.3904 686.219V652.39ZM371.952 714.781C366.429 714.781 361.952 719.258 361.952 724.781V758.61C361.952 764.132 366.429 768.61 371.952 768.61H405.781C411.304 768.61 415.781 764.132 415.781 758.61V724.781C415.781 719.258 411.304 714.781 405.781 714.781H371.952ZM361.952 797.171C361.952 791.648 366.429 787.171 371.952 787.171H405.781C411.304 787.171 415.781 791.648 415.781 797.171V831C415.781 836.523 411.304 841 405.781 841H371.952C366.429 841 361.952 836.523 361.952 831V797.171ZM444.342 642.39C438.82 642.39 434.342 646.868 434.342 652.39V686.219C434.342 691.742 438.82 696.219 444.342 696.219H478.171C483.694 696.219 488.171 691.742 488.171 686.219V652.39C488.171 646.868 483.694 642.39 478.171 642.39H444.342ZM72.3904 580C72.3904 574.477 76.8676 570 82.3904 570H116.219C121.742 570 126.219 574.477 126.219 580V613.829C126.219 619.352 121.742 623.829 116.219 623.829H82.3904C76.8676 623.829 72.3904 619.352 72.3904 613.829V580ZM154.781 642.39C149.258 642.39 144.781 646.868 144.781 652.39V686.219C144.781 691.742 149.258 696.219 154.781 696.219H188.61C194.132 696.219 198.61 691.742 198.61 686.219V652.39C198.61 646.868 194.132 642.39 188.61 642.39H154.781ZM72.3904 724.781C72.3904 719.258 76.8676 714.781 82.3904 714.781H116.219C121.742 714.781 126.219 719.258 126.219 724.781V758.61C126.219 764.132 121.742 768.61 116.219 768.61H82.3904C76.8676 768.61 72.3904 764.132 72.3904 758.61V724.781ZM82.3904 787.171C76.8676 787.171 72.3904 791.648 72.3904 797.171V831C72.3904 836.523 76.8676 841 82.3904 841H116.219C121.742 841 126.219 836.523 126.219 831V797.171C126.219 791.648 121.742 787.171 116.219 787.171H82.3904ZM506.733 652.39C506.733 646.868 511.21 642.39 516.733 642.39H550.562C556.085 642.39 560.562 646.868 560.562 652.39V686.219C560.562 691.742 556.085 696.219 550.562 696.219H516.733C511.21 696.219 506.733 691.742 506.733 686.219V652.39ZM444.342 570C438.82 570 434.342 574.477 434.342 580V613.829C434.342 619.352 438.82 623.829 444.342 623.829H478.171C483.694 623.829 488.171 619.352 488.171 613.829V580C488.171 574.477 483.694 570 478.171 570H444.342ZM217.171 652.39C217.171 646.868 221.648 642.39 227.171 642.39H261C266.523 642.39 271 646.868 271 652.39V686.219C271 691.742 266.523 696.219 261 696.219H227.171C221.648 696.219 217.171 691.742 217.171 686.219V652.39ZM444.342 714.781C438.82 714.781 434.342 719.258 434.342 724.781V758.61C434.342 764.132 438.82 768.61 444.342 768.61H478.171C483.694 768.61 488.171 764.132 488.171 758.61V724.781C488.171 719.258 483.694 714.781 478.171 714.781H444.342ZM434.342 797.171C434.342 791.648 438.82 787.171 444.342 787.171H478.171C483.694 787.171 488.171 791.648 488.171 797.171V831C488.171 836.523 483.694 841 478.171 841H444.342C438.82 841 434.342 836.523 434.342 831V797.171ZM589.123 642.39C583.6 642.39 579.123 646.868 579.123 652.39V686.219C579.123 691.742 583.6 696.219 589.123 696.219H622.952C628.475 696.219 632.952 691.742 632.952 686.219V652.39C632.952 646.868 628.475 642.39 622.952 642.39H589.123ZM144.781 580C144.781 574.477 149.258 570 154.781 570H188.61C194.132 570 198.61 574.477 198.61 580V613.829C198.61 619.352 194.132 623.829 188.61 623.829H154.781C149.258 623.829 144.781 619.352 144.781 613.829V580ZM299.562 642.39C294.039 642.39 289.562 646.868 289.562 652.39V686.219C289.562 691.742 294.039 696.219 299.562 696.219H333.39C338.913 696.219 343.39 691.742 343.39 686.219V652.39C343.39 646.868 338.913 642.39 333.39 642.39H299.562ZM144.781 724.781C144.781 719.258 149.258 714.781 154.781 714.781H188.61C194.132 714.781 198.61 719.258 198.61 724.781V758.61C198.61 764.132 194.132 768.61 188.61 768.61H154.781C149.258 768.61 144.781 764.132 144.781 758.61V724.781ZM154.781 787.171C149.258 787.171 144.781 791.648 144.781 797.171V831C144.781 836.523 149.258 841 154.781 841H188.61C194.132 841 198.61 836.523 198.61 831V797.171C198.61 791.648 194.132 787.171 188.61 787.171H154.781ZM651.514 652.39C651.514 646.868 655.991 642.39 661.514 642.39H695.342C700.865 642.39 705.342 646.868 705.342 652.39V686.219C705.342 691.742 700.865 696.219 695.342 696.219H661.514C655.991 696.219 651.514 691.742 651.514 686.219V652.39ZM516.733 570C511.21 570 506.733 574.477 506.733 580V613.829C506.733 619.352 511.21 623.829 516.733 623.829H550.562C556.085 623.829 560.562 619.352 560.562 613.829V580C560.562 574.477 556.085 570 550.562 570H516.733ZM506.733 724.781C506.733 719.258 511.21 714.781 516.733 714.781H550.562C556.085 714.781 560.562 719.258 560.562 724.781V758.61C560.562 764.132 556.085 768.61 550.562 768.61H516.733C511.21 768.61 506.733 764.132 506.733 758.61V724.781ZM516.733 787.171C511.21 787.171 506.733 791.648 506.733 797.171V831C506.733 836.523 511.21 841 516.733 841H550.562C556.085 841 560.562 836.523 560.562 831V797.171C560.562 791.648 556.085 787.171 550.562 787.171H516.733ZM217.171 580C217.171 574.477 221.648 570 227.171 570H261C266.523 570 271 574.477 271 580V613.829C271 619.352 266.523 623.829 261 623.829H227.171C221.648 623.829 217.171 619.352 217.171 613.829V580ZM227.171 714.781C221.648 714.781 217.171 719.258 217.171 724.781V758.61C217.171 764.132 221.648 768.61 227.171 768.61H261C266.523 768.61 271 764.132 271 758.61V724.781C271 719.258 266.523 714.781 261 714.781H227.171ZM217.171 797.171C217.171 791.648 221.648 787.171 227.171 787.171H261C266.523 787.171 271 791.648 271 797.171V831C271 836.523 266.523 841 261 841H227.171C221.648 841 217.171 836.523 217.171 831V797.171ZM589.123 570C583.6 570 579.123 574.477 579.123 580V613.829C579.123 619.352 583.6 623.829 589.123 623.829H622.952C628.475 623.829 632.952 619.352 632.952 613.829V580C632.952 574.477 628.475 570 622.952 570H589.123ZM579.123 724.781C579.123 719.258 583.6 714.781 589.123 714.781H622.952C628.475 714.781 632.952 719.258 632.952 724.781V758.61C632.952 764.132 628.475 768.61 622.952 768.61H589.123C583.6 768.61 579.123 764.132 579.123 758.61V724.781ZM589.123 787.171C583.6 787.171 579.123 791.648 579.123 797.171V831C579.123 836.523 583.6 841 589.123 841H622.952C628.475 841 632.952 836.523 632.952 831V797.171C632.952 791.648 628.475 787.171 622.952 787.171H589.123ZM289.562 580C289.562 574.477 294.039 570 299.562 570H333.39C338.913 570 343.39 574.477 343.39 580V613.829C343.39 619.352 338.913 623.829 333.39 623.829H299.562C294.039 623.829 289.562 619.352 289.562 613.829V580ZM299.562 714.781C294.039 714.781 289.562 719.258 289.562 724.781V758.61C289.562 764.132 294.039 768.61 299.562 768.61H333.39C338.913 768.61 343.39 764.132 343.39 758.61V724.781C343.39 719.258 338.913 714.781 333.39 714.781H299.562ZM289.562 797.171C289.562 791.648 294.039 787.171 299.562 787.171H333.39C338.913 787.171 343.39 791.648 343.39 797.171V831C343.39 836.523 338.913 841 333.39 841H299.562C294.039 841 289.562 836.523 289.562 831V797.171ZM661.514 570C655.991 570 651.514 574.477 651.514 580V613.829C651.514 619.352 655.991 623.829 661.514 623.829H695.342C700.865 623.829 705.342 619.352 705.342 613.829V580C705.342 574.477 700.865 570 695.342 570H661.514ZM651.514 724.781C651.514 719.258 655.991 714.781 661.514 714.781H695.342C700.865 714.781 705.342 719.258 705.342 724.781V758.61C705.342 764.132 700.865 768.61 695.342 768.61H661.514C655.991 768.61 651.514 764.132 651.514 758.61V724.781ZM661.514 787.171C655.991 787.171 651.514 791.648 651.514 797.171V831C651.514 836.523 655.991 841 661.514 841H695.342C700.865 841 705.342 836.523 705.342 831V797.171C705.342 791.648 700.865 787.171 695.342 787.171H661.514Z" fill="url(#paint4_linear_243_356)"/>
<path fill-rule="evenodd" clip-rule="evenodd" d="M10 0C4.47715 0 0 4.47716 0 10V43.8288C0 49.3516 4.47716 53.8288 10 53.8288H43.8288C49.3516 53.8288 53.8288 49.3516 53.8288 43.8288V10C53.8288 4.47715 49.3516 0 43.8288 0H10ZM10 72.3904C4.47715 72.3904 0 76.8676 0 82.3904V116.219C0 121.742 4.47716 126.219 10 126.219H43.8288C49.3516 126.219 53.8288 121.742 53.8288 116.219V82.3904C53.8288 76.8676 49.3516 72.3904 43.8288 72.3904H10ZM0 154.781C0 149.258 4.47715 144.781 10 144.781H43.8288C49.3516 144.781 53.8288 149.258 53.8288 154.781V188.61C53.8288 194.132 49.3516 198.61 43.8288 198.61H10C4.47716 198.61 0 194.132 0 188.61V154.781ZM10 217.171C4.47715 217.171 0 221.648 0 227.171V261C0 266.523 4.47716 271 10 271H43.8288C49.3516 271 53.8288 266.523 53.8288 261V227.171C53.8288 221.648 49.3516 217.171 43.8288 217.171H10ZM361.952 82.3904C361.952 76.8676 366.429 72.3904 371.952 72.3904H405.781C411.304 72.3904 415.781 76.8676 415.781 82.3904V116.219C415.781 121.742 411.304 126.219 405.781 126.219H371.952C366.429 126.219 361.952 121.742 361.952 116.219V82.3904ZM371.952 0C366.429 0 361.952 4.47716 361.952 10V43.8288C361.952 49.3516 366.429 53.8288 371.952 53.8288H405.781C411.304 53.8288 415.781 49.3516 415.781 43.8288V10C415.781 4.47715 411.304 0 405.781 0H371.952ZM72.3904 82.3904C72.3904 76.8676 76.8676 72.3904 82.3904 72.3904H116.219C121.742 72.3904 126.219 76.8676 126.219 82.3904V116.219C126.219 121.742 121.742 126.219 116.219 126.219H82.3904C76.8676 126.219 72.3904 121.742 72.3904 116.219V82.3904ZM371.952 144.781C366.429 144.781 361.952 149.258 361.952 154.781V188.61C361.952 194.132 366.429 198.61 371.952 198.61H405.781C411.304 198.61 415.781 194.132 415.781 188.61V154.781C415.781 149.258 411.304 144.781 405.781 144.781H371.952ZM361.952 227.171C361.952 221.648 366.429 217.171 371.952 217.171H405.781C411.304 217.171 415.781 221.648 415.781 227.171V261C415.781 266.523 411.304 271 405.781 271H371.952C366.429 271 361.952 266.523 361.952 261V227.171ZM444.342 72.3904C438.82 72.3904 434.342 76.8676 434.342 82.3904V116.219C434.342 121.742 438.82 126.219 444.342 126.219H478.171C483.694 126.219 488.171 121.742 488.171 116.219V82.3904C488.171 76.8676 483.694 72.3904 478.171 72.3904H444.342ZM72.3904 10C72.3904 4.47716 76.8676 0 82.3904 0H116.219C121.742 0 126.219 4.47715 126.219 10V43.8288C126.219 49.3516 121.742 53.8288 116.219 53.8288H82.3904C76.8676 53.8288 72.3904 49.3516 72.3904 43.8288V10ZM154.781 72.3904C149.258 72.3904 144.781 76.8676 144.781 82.3904V116.219C144.781 121.742 149.258 126.219 154.781 126.219H188.61C194.132 126.219 198.61 121.742 198.61 116.219V82.3904C198.61 76.8676 194.132 72.3904 188.61 72.3904H154.781ZM72.3904 154.781C72.3904 149.258 76.8676 144.781 82.3904 144.781H116.219C121.742 144.781 126.219 149.258 126.219 154.781V188.61C126.219 194.132 121.742 198.61 116.219 198.61H82.3904C76.8676 198.61 72.3904 194.132 72.3904 188.61V154.781ZM82.3904 217.171C76.8676 217.171 72.3904 221.648 72.3904 227.171V261C72.3904 266.523 76.8676 271 82.3904 271H116.219C121.742 271 126.219 266.523 126.219 261V227.171C126.219 221.648 121.742 217.171 116.219 217.171H82.3904ZM506.733 82.3904C506.733 76.8676 511.21 72.3904 516.733 72.3904H550.562C556.085 72.3904 560.562 76.8676 560.562 82.3904V116.219C560.562 121.742 556.085 126.219 550.562 126.219H516.733C511.21 126.219 506.733 121.742 506.733 116.219V82.3904ZM444.342 0C438.82 0 434.342 4.47716 434.342 10V43.8288C434.342 49.3516 438.82 53.8288 444.342 53.8288H478.171C483.694 53.8288 488.171 49.3516 488.171 43.8288V10C488.171 4.47715 483.694 0 478.171 0H444.342ZM217.171 82.3904C217.171 76.8676 221.648 72.3904 227.171 72.3904H261C266.523 72.3904 271 76.8676 271 82.3904V116.219C271 121.742 266.523 126.219 261 126.219H227.171C221.648 126.219 217.171 121.742 217.171 116.219V82.3904ZM444.342 144.781C438.82 144.781 434.342 149.258 434.342 154.781V188.61C434.342 194.132 438.82 198.61 444.342 198.61H478.171C483.694 198.61 488.171 194.132 488.171 188.61V154.781C488.171 149.258 483.694 144.781 478.171 144.781H444.342ZM434.342 227.171C434.342 221.648 438.82 217.171 444.342 217.171H478.171C483.694 217.171 488.171 221.648 488.171 227.171V261C488.171 266.523 483.694 271 478.171 271H444.342C438.82 271 434.342 266.523 434.342 261V227.171ZM589.123 72.3904C583.6 72.3904 579.123 76.8676 579.123 82.3904V116.219C579.123 121.742 583.6 126.219 589.123 126.219H622.952C628.475 126.219 632.952 121.742 632.952 116.219V82.3904C632.952 76.8676 628.475 72.3904 622.952 72.3904H589.123ZM144.781 10C144.781 4.47716 149.258 0 154.781 0H188.61C194.132 0 198.61 4.47715 198.61 10V43.8288C198.61 49.3516 194.132 53.8288 188.61 53.8288H154.781C149.258 53.8288 144.781 49.3516 144.781 43.8288V10ZM299.562 72.3904C294.039 72.3904 289.562 76.8676 289.562 82.3904V116.219C289.562 121.742 294.039 126.219 299.562 126.219H333.39C338.913 126.219 343.39 121.742 343.39 116.219V82.3904C343.39 76.8676 338.913 72.3904 333.39 72.3904H299.562ZM144.781 154.781C144.781 149.258 149.258 144.781 154.781 144.781H188.61C194.132 144.781 198.61 149.258 198.61 154.781V188.61C198.61 194.132 194.132 198.61 188.61 198.61H154.781C149.258 198.61 144.781 194.132 144.781 188.61V154.781ZM154.781 217.171C149.258 217.171 144.781 221.648 144.781 227.171V261C144.781 266.523 149.258 271 154.781 271H188.61C194.132 271 198.61 266.523 198.61 261V227.171C198.61 221.648 194.132 217.171 188.61 217.171H154.781ZM651.514 82.3904C651.514 76.8676 655.991 72.3904 661.514 72.3904H695.342C700.865 72.3904 705.342 76.8676 705.342 82.3904V116.219C705.342 121.742 700.865 126.219 695.342 126.219H661.514C655.991 126.219 651.514 121.742 651.514 116.219V82.3904ZM516.733 0C511.21 0 506.733 4.47716 506.733 10V43.8288C506.733 49.3516 511.21 53.8288 516.733 53.8288H550.562C556.085 53.8288 560.562 49.3516 560.562 43.8288V10C560.562 4.47715 556.085 0 550.562 0H516.733ZM506.733 154.781C506.733 149.258 511.21 144.781 516.733 144.781H550.562C556.085 144.781 560.562 149.258 560.562 154.781V188.61C560.562 194.132 556.085 198.61 550.562 198.61H516.733C511.21 198.61 506.733 194.132 506.733 188.61V154.781ZM516.733 217.171C511.21 217.171 506.733 221.648 506.733 227.171V261C506.733 266.523 511.21 271 516.733 271H550.562C556.085 271 560.562 266.523 560.562 261V227.171C560.562 221.648 556.085 217.171 550.562 217.171H516.733ZM217.171 10C217.171 4.47716 221.648 0 227.171 0H261C266.523 0 271 4.47715 271 10V43.8288C271 49.3516 266.523 53.8288 261 53.8288H227.171C221.648 53.8288 217.171 49.3516 217.171 43.8288V10ZM227.171 144.781C221.648 144.781 217.171 149.258 217.171 154.781V188.61C217.171 194.132 221.648 198.61 227.171 198.61H261C266.523 198.61 271 194.132 271 188.61V154.781C271 149.258 266.523 144.781 261 144.781H227.171ZM217.171 227.171C217.171 221.648 221.648 217.171 227.171 217.171H261C266.523 217.171 271 221.648 271 227.171V261C271 266.523 266.523 271 261 271H227.171C221.648 271 217.171 266.523 217.171 261V227.171ZM589.123 0C583.6 0 579.123 4.47716 579.123 10V43.8288C579.123 49.3516 583.6 53.8288 589.123 53.8288H622.952C628.475 53.8288 632.952 49.3516 632.952 43.8288V10C632.952 4.47715 628.475 0 622.952 0H589.123ZM579.123 154.781C579.123 149.258 583.6 144.781 589.123 144.781H622.952C628.475 144.781 632.952 149.258 632.952 154.781V188.61C632.952 194.132 628.475 198.61 622.952 198.61H589.123C583.6 198.61 579.123 194.132 579.123 188.61V154.781ZM589.123 217.171C583.6 217.171 579.123 221.648 579.123 227.171V261C579.123 266.523 583.6 271 589.123 271H622.952C628.475 271 632.952 266.523 632.952 261V227.171C632.952 221.648 628.475 217.171 622.952 217.171H589.123ZM289.562 10C289.562 4.47716 294.039 0 299.562 0H333.39C338.913 0 343.39 4.47715 343.39 10V43.8288C343.39 49.3516 338.913 53.8288 333.39 53.8288H299.562C294.039 53.8288 289.562 49.3516 289.562 43.8288V10ZM299.562 144.781C294.039 144.781 289.562 149.258 289.562 154.781V188.61C289.562 194.132 294.039 198.61 299.562 198.61H333.39C338.913 198.61 343.39 194.132 343.39 188.61V154.781C343.39 149.258 338.913 144.781 333.39 144.781H299.562ZM289.562 227.171C289.562 221.648 294.039 217.171 299.562 217.171H333.39C338.913 217.171 343.39 221.648 343.39 227.171V261C343.39 266.523 338.913 271 333.39 271H299.562C294.039 271 289.562 266.523 289.562 261V227.171ZM661.514 0C655.991 0 651.514 4.47716 651.514 10V43.8288C651.514 49.3516 655.991 53.8288 661.514 53.8288H695.342C700.865 53.8288 705.342 49.3516 705.342 43.8288V10C705.342 4.47715 700.865 0 695.342 0H661.514ZM651.514 154.781C651.514 149.258 655.991 144.781 661.514 144.781H695.342C700.865 144.781 705.342 149.258 705.342 154.781V188.61C705.342 194.132 700.865 198.61 695.342 198.61H661.514C655.991 198.61 651.514 194.132 651.514 188.61V154.781ZM661.514 217.171C655.991 217.171 651.514 221.648 651.514 227.171V261C651.514 266.523 655.991 271 661.514 271H695.342C700.865 271 705.342 266.523 705.342 261V227.171C705.342 221.648 700.865 217.171 695.342 217.171H661.514Z" fill="url(#paint5_linear_243_356)"/>
<path fill-rule="evenodd" clip-rule="evenodd" d="M733 570C727.477 570 723 574.477 723 580V613.829C723 619.352 727.477 623.829 733 623.829H766.829C772.352 623.829 776.829 619.352 776.829 613.829V580C776.829 574.477 772.352 570 766.829 570H733ZM733 642.39C727.477 642.39 723 646.868 723 652.39V686.219C723 691.742 727.477 696.219 733 696.219H766.829C772.352 696.219 776.829 691.742 776.829 686.219V652.39C776.829 646.868 772.352 642.39 766.829 642.39H733ZM723 724.781C723 719.258 727.477 714.781 733 714.781H766.829C772.352 714.781 776.829 719.258 776.829 724.781V758.61C776.829 764.132 772.352 768.61 766.829 768.61H733C727.477 768.61 723 764.132 723 758.61V724.781ZM733 787.171C727.477 787.171 723 791.648 723 797.171V831C723 836.523 727.477 841 733 841H766.829C772.352 841 776.829 836.523 776.829 831V797.171C776.829 791.648 772.352 787.171 766.829 787.171H733ZM1084.95 652.39C1084.95 646.868 1089.43 642.39 1094.95 642.39H1128.78C1134.3 642.39 1138.78 646.868 1138.78 652.39V686.219C1138.78 691.742 1134.3 696.219 1128.78 696.219H1094.95C1089.43 696.219 1084.95 691.742 1084.95 686.219V652.39ZM1094.95 570C1089.43 570 1084.95 574.477 1084.95 580V613.829C1084.95 619.352 1089.43 623.829 1094.95 623.829H1128.78C1134.3 623.829 1138.78 619.352 1138.78 613.829V580C1138.78 574.477 1134.3 570 1128.78 570H1094.95ZM795.39 652.39C795.39 646.868 799.868 642.39 805.39 642.39H839.219C844.742 642.39 849.219 646.868 849.219 652.39V686.219C849.219 691.742 844.742 696.219 839.219 696.219H805.39C799.868 696.219 795.39 691.742 795.39 686.219V652.39ZM1094.95 714.781C1089.43 714.781 1084.95 719.258 1084.95 724.781V758.61C1084.95 764.132 1089.43 768.61 1094.95 768.61H1128.78C1134.3 768.61 1138.78 764.132 1138.78 758.61V724.781C1138.78 719.258 1134.3 714.781 1128.78 714.781H1094.95ZM1084.95 797.171C1084.95 791.648 1089.43 787.171 1094.95 787.171H1128.78C1134.3 787.171 1138.78 791.648 1138.78 797.171V831C1138.78 836.523 1134.3 841 1128.78 841H1094.95C1089.43 841 1084.95 836.523 1084.95 831V797.171ZM1167.34 642.39C1161.82 642.39 1157.34 646.868 1157.34 652.39V686.219C1157.34 691.742 1161.82 696.219 1167.34 696.219H1201.17C1206.69 696.219 1211.17 691.742 1211.17 686.219V652.39C1211.17 646.868 1206.69 642.39 1201.17 642.39H1167.34ZM795.39 580C795.39 574.477 799.868 570 805.39 570H839.219C844.742 570 849.219 574.477 849.219 580V613.829C849.219 619.352 844.742 623.829 839.219 623.829H805.39C799.868 623.829 795.39 619.352 795.39 613.829V580ZM877.781 642.39C872.258 642.39 867.781 646.868 867.781 652.39V686.219C867.781 691.742 872.258 696.219 877.781 696.219H911.61C917.132 696.219 921.61 691.742 921.61 686.219V652.39C921.61 646.868 917.132 642.39 911.61 642.39H877.781ZM795.39 724.781C795.39 719.258 799.868 714.781 805.39 714.781H839.219C844.742 714.781 849.219 719.258 849.219 724.781V758.61C849.219 764.132 844.742 768.61 839.219 768.61H805.39C799.868 768.61 795.39 764.132 795.39 758.61V724.781ZM805.39 787.171C799.868 787.171 795.39 791.648 795.39 797.171V831C795.39 836.523 799.868 841 805.39 841H839.219C844.742 841 849.219 836.523 849.219 831V797.171C849.219 791.648 844.742 787.171 839.219 787.171H805.39ZM1229.73 652.39C1229.73 646.868 1234.21 642.39 1239.73 642.39H1273.56C1279.08 642.39 1283.56 646.868 1283.56 652.39V686.219C1283.56 691.742 1279.08 696.219 1273.56 696.219H1239.73C1234.21 696.219 1229.73 691.742 1229.73 686.219V652.39ZM1167.34 570C1161.82 570 1157.34 574.477 1157.34 580V613.829C1157.34 619.352 1161.82 623.829 1167.34 623.829H1201.17C1206.69 623.829 1211.17 619.352 1211.17 613.829V580C1211.17 574.477 1206.69 570 1201.17 570H1167.34ZM940.171 652.39C940.171 646.868 944.648 642.39 950.171 642.39H984C989.523 642.39 994 646.868 994 652.39V686.219C994 691.742 989.523 696.219 984 696.219H950.171C944.648 696.219 940.171 691.742 940.171 686.219V652.39ZM1167.34 714.781C1161.82 714.781 1157.34 719.258 1157.34 724.781V758.61C1157.34 764.132 1161.82 768.61 1167.34 768.61H1201.17C1206.69 768.61 1211.17 764.132 1211.17 758.61V724.781C1211.17 719.258 1206.69 714.781 1201.17 714.781H1167.34ZM1157.34 797.171C1157.34 791.648 1161.82 787.171 1167.34 787.171H1201.17C1206.69 787.171 1211.17 791.648 1211.17 797.171V831C1211.17 836.523 1206.69 841 1201.17 841H1167.34C1161.82 841 1157.34 836.523 1157.34 831V797.171ZM1312.12 642.39C1306.6 642.39 1302.12 646.868 1302.12 652.39V686.219C1302.12 691.742 1306.6 696.219 1312.12 696.219H1345.95C1351.47 696.219 1355.95 691.742 1355.95 686.219V652.39C1355.95 646.868 1351.47 642.39 1345.95 642.39H1312.12ZM867.781 580C867.781 574.477 872.258 570 877.781 570H911.61C917.132 570 921.61 574.477 921.61 580V613.829C921.61 619.352 917.132 623.829 911.61 623.829H877.781C872.258 623.829 867.781 619.352 867.781 613.829V580ZM1022.56 642.39C1017.04 642.39 1012.56 646.868 1012.56 652.39V686.219C1012.56 691.742 1017.04 696.219 1022.56 696.219H1056.39C1061.91 696.219 1066.39 691.742 1066.39 686.219V652.39C1066.39 646.868 1061.91 642.39 1056.39 642.39H1022.56ZM867.781 724.781C867.781 719.258 872.258 714.781 877.781 714.781H911.61C917.132 714.781 921.61 719.258 921.61 724.781V758.61C921.61 764.132 917.132 768.61 911.61 768.61H877.781C872.258 768.61 867.781 764.132 867.781 758.61V724.781ZM877.781 787.171C872.258 787.171 867.781 791.648 867.781 797.171V831C867.781 836.523 872.258 841 877.781 841H911.61C917.132 841 921.61 836.523 921.61 831V797.171C921.61 791.648 917.132 787.171 911.61 787.171H877.781ZM1374.51 652.39C1374.51 646.868 1378.99 642.39 1384.51 642.39H1418.34C1423.87 642.39 1428.34 646.868 1428.34 652.39V686.219C1428.34 691.742 1423.87 696.219 1418.34 696.219H1384.51C1378.99 696.219 1374.51 691.742 1374.51 686.219V652.39ZM1239.73 570C1234.21 570 1229.73 574.477 1229.73 580V613.829C1229.73 619.352 1234.21 623.829 1239.73 623.829H1273.56C1279.08 623.829 1283.56 619.352 1283.56 613.829V580C1283.56 574.477 1279.08 570 1273.56 570H1239.73ZM1229.73 724.781C1229.73 719.258 1234.21 714.781 1239.73 714.781H1273.56C1279.08 714.781 1283.56 719.258 1283.56 724.781V758.61C1283.56 764.132 1279.08 768.61 1273.56 768.61H1239.73C1234.21 768.61 1229.73 764.132 1229.73 758.61V724.781ZM1239.73 787.171C1234.21 787.171 1229.73 791.648 1229.73 797.171V831C1229.73 836.523 1234.21 841 1239.73 841H1273.56C1279.08 841 1283.56 836.523 1283.56 831V797.171C1283.56 791.648 1279.08 787.171 1273.56 787.171H1239.73ZM940.171 580C940.171 574.477 944.648 570 950.171 570H984C989.523 570 994 574.477 994 580V613.829C994 619.352 989.523 623.829 984 623.829H950.171C944.648 623.829 940.171 619.352 940.171 613.829V580ZM950.171 714.781C944.648 714.781 940.171 719.258 940.171 724.781V758.61C940.171 764.132 944.648 768.61 950.171 768.61H984C989.523 768.61 994 764.132 994 758.61V724.781C994 719.258 989.523 714.781 984 714.781H950.171ZM940.171 797.171C940.171 791.648 944.648 787.171 950.171 787.171H984C989.523 787.171 994 791.648 994 797.171V831C994 836.523 989.523 841 984 841H950.171C944.648 841 940.171 836.523 940.171 831V797.171ZM1312.12 570C1306.6 570 1302.12 574.477 1302.12 580V613.829C1302.12 619.352 1306.6 623.829 1312.12 623.829H1345.95C1351.47 623.829 1355.95 619.352 1355.95 613.829V580C1355.95 574.477 1351.47 570 1345.95 570H1312.12ZM1302.12 724.781C1302.12 719.258 1306.6 714.781 1312.12 714.781H1345.95C1351.47 714.781 1355.95 719.258 1355.95 724.781V758.61C1355.95 764.132 1351.47 768.61 1345.95 768.61H1312.12C1306.6 768.61 1302.12 764.132 1302.12 758.61V724.781ZM1312.12 787.171C1306.6 787.171 1302.12 791.648 1302.12 797.171V831C1302.12 836.523 1306.6 841 1312.12 841H1345.95C1351.47 841 1355.95 836.523 1355.95 831V797.171C1355.95 791.648 1351.47 787.171 1345.95 787.171H1312.12ZM1012.56 580C1012.56 574.477 1017.04 570 1022.56 570H1056.39C1061.91 570 1066.39 574.477 1066.39 580V613.829C1066.39 619.352 1061.91 623.829 1056.39 623.829H1022.56C1017.04 623.829 1012.56 619.352 1012.56 613.829V580ZM1022.56 714.781C1017.04 714.781 1012.56 719.258 1012.56 724.781V758.61C1012.56 764.132 1017.04 768.61 1022.56 768.61H1056.39C1061.91 768.61 1066.39 764.132 1066.39 758.61V724.781C1066.39 719.258 1061.91 714.781 1056.39 714.781H1022.56ZM1012.56 797.171C1012.56 791.648 1017.04 787.171 1022.56 787.171H1056.39C1061.91 787.171 1066.39 791.648 1066.39 797.171V831C1066.39 836.523 1061.91 841 1056.39 841H1022.56C1017.04 841 1012.56 836.523 1012.56 831V797.171ZM1384.51 570C1378.99 570 1374.51 574.477 1374.51 580V613.829C1374.51 619.352 1378.99 623.829 1384.51 623.829H1418.34C1423.87 623.829 1428.34 619.352 1428.34 613.829V580C1428.34 574.477 1423.87 570 1418.34 570H1384.51ZM1374.51 724.781C1374.51 719.258 1378.99 714.781 1384.51 714.781H1418.34C1423.87 714.781 1428.34 719.258 1428.34 724.781V758.61C1428.34 764.132 1423.87 768.61 1418.34 768.61H1384.51C1378.99 768.61 1374.51 764.132 1374.51 758.61V724.781ZM1384.51 787.171C1378.99 787.171 1374.51 791.648 1374.51 797.171V831C1374.51 836.523 1378.99 841 1384.51 841H1418.34C1423.87 841 1428.34 836.523 1428.34 831V797.171C1428.34 791.648 1423.87 787.171 1418.34 787.171H1384.51Z" fill="url(#paint6_linear_243_356)"/>
<path fill-rule="evenodd" clip-rule="evenodd" d="M733 0C727.477 0 723 4.47716 723 10V43.8288C723 49.3516 727.477 53.8288 733 53.8288H766.829C772.352 53.8288 776.829 49.3516 776.829 43.8288V10C776.829 4.47715 772.352 0 766.829 0H733ZM733 72.3904C727.477 72.3904 723 76.8676 723 82.3904V116.219C723 121.742 727.477 126.219 733 126.219H766.829C772.352 126.219 776.829 121.742 776.829 116.219V82.3904C776.829 76.8676 772.352 72.3904 766.829 72.3904H733ZM723 154.781C723 149.258 727.477 144.781 733 144.781H766.829C772.352 144.781 776.829 149.258 776.829 154.781V188.61C776.829 194.132 772.352 198.61 766.829 198.61H733C727.477 198.61 723 194.132 723 188.61V154.781ZM733 217.171C727.477 217.171 723 221.648 723 227.171V261C723 266.523 727.477 271 733 271H766.829C772.352 271 776.829 266.523 776.829 261V227.171C776.829 221.648 772.352 217.171 766.829 217.171H733ZM1084.95 82.3904C1084.95 76.8676 1089.43 72.3904 1094.95 72.3904H1128.78C1134.3 72.3904 1138.78 76.8676 1138.78 82.3904V116.219C1138.78 121.742 1134.3 126.219 1128.78 126.219H1094.95C1089.43 126.219 1084.95 121.742 1084.95 116.219V82.3904ZM1094.95 0C1089.43 0 1084.95 4.47716 1084.95 10V43.8288C1084.95 49.3516 1089.43 53.8288 1094.95 53.8288H1128.78C1134.3 53.8288 1138.78 49.3516 1138.78 43.8288V10C1138.78 4.47715 1134.3 0 1128.78 0H1094.95ZM795.39 82.3904C795.39 76.8676 799.868 72.3904 805.39 72.3904H839.219C844.742 72.3904 849.219 76.8676 849.219 82.3904V116.219C849.219 121.742 844.742 126.219 839.219 126.219H805.39C799.868 126.219 795.39 121.742 795.39 116.219V82.3904ZM1094.95 144.781C1089.43 144.781 1084.95 149.258 1084.95 154.781V188.61C1084.95 194.132 1089.43 198.61 1094.95 198.61H1128.78C1134.3 198.61 1138.78 194.132 1138.78 188.61V154.781C1138.78 149.258 1134.3 144.781 1128.78 144.781H1094.95ZM1084.95 227.171C1084.95 221.648 1089.43 217.171 1094.95 217.171H1128.78C1134.3 217.171 1138.78 221.648 1138.78 227.171V261C1138.78 266.523 1134.3 271 1128.78 271H1094.95C1089.43 271 1084.95 266.523 1084.95 261V227.171ZM1167.34 72.3904C1161.82 72.3904 1157.34 76.8676 1157.34 82.3904V116.219C1157.34 121.742 1161.82 126.219 1167.34 126.219H1201.17C1206.69 126.219 1211.17 121.742 1211.17 116.219V82.3904C1211.17 76.8676 1206.69 72.3904 1201.17 72.3904H1167.34ZM795.39 10C795.39 4.47716 799.868 0 805.39 0H839.219C844.742 0 849.219 4.47715 849.219 10V43.8288C849.219 49.3516 844.742 53.8288 839.219 53.8288H805.39C799.868 53.8288 795.39 49.3516 795.39 43.8288V10ZM877.781 72.3904C872.258 72.3904 867.781 76.8676 867.781 82.3904V116.219C867.781 121.742 872.258 126.219 877.781 126.219H911.61C917.132 126.219 921.61 121.742 921.61 116.219V82.3904C921.61 76.8676 917.132 72.3904 911.61 72.3904H877.781ZM795.39 154.781C795.39 149.258 799.868 144.781 805.39 144.781H839.219C844.742 144.781 849.219 149.258 849.219 154.781V188.61C849.219 194.132 844.742 198.61 839.219 198.61H805.39C799.868 198.61 795.39 194.132 795.39 188.61V154.781ZM805.39 217.171C799.868 217.171 795.39 221.648 795.39 227.171V261C795.39 266.523 799.868 271 805.39 271H839.219C844.742 271 849.219 266.523 849.219 261V227.171C849.219 221.648 844.742 217.171 839.219 217.171H805.39ZM1229.73 82.3904C1229.73 76.8676 1234.21 72.3904 1239.73 72.3904H1273.56C1279.08 72.3904 1283.56 76.8676 1283.56 82.3904V116.219C1283.56 121.742 1279.08 126.219 1273.56 126.219H1239.73C1234.21 126.219 1229.73 121.742 1229.73 116.219V82.3904ZM1167.34 0C1161.82 0 1157.34 4.47716 1157.34 10V43.8288C1157.34 49.3516 1161.82 53.8288 1167.34 53.8288H1201.17C1206.69 53.8288 1211.17 49.3516 1211.17 43.8288V10C1211.17 4.47715 1206.69 0 1201.17 0H1167.34ZM940.171 82.3904C940.171 76.8676 944.648 72.3904 950.171 72.3904H984C989.523 72.3904 994 76.8676 994 82.3904V116.219C994 121.742 989.523 126.219 984 126.219H950.171C944.648 126.219 940.171 121.742 940.171 116.219V82.3904ZM1167.34 144.781C1161.82 144.781 1157.34 149.258 1157.34 154.781V188.61C1157.34 194.132 1161.82 198.61 1167.34 198.61H1201.17C1206.69 198.61 1211.17 194.132 1211.17 188.61V154.781C1211.17 149.258 1206.69 144.781 1201.17 144.781H1167.34ZM1157.34 227.171C1157.34 221.648 1161.82 217.171 1167.34 217.171H1201.17C1206.69 217.171 1211.17 221.648 1211.17 227.171V261C1211.17 266.523 1206.69 271 1201.17 271H1167.34C1161.82 271 1157.34 266.523 1157.34 261V227.171ZM1312.12 72.3904C1306.6 72.3904 1302.12 76.8676 1302.12 82.3904V116.219C1302.12 121.742 1306.6 126.219 1312.12 126.219H1345.95C1351.47 126.219 1355.95 121.742 1355.95 116.219V82.3904C1355.95 76.8676 1351.47 72.3904 1345.95 72.3904H1312.12ZM867.781 10C867.781 4.47716 872.258 0 877.781 0H911.61C917.132 0 921.61 4.47715 921.61 10V43.8288C921.61 49.3516 917.132 53.8288 911.61 53.8288H877.781C872.258 53.8288 867.781 49.3516 867.781 43.8288V10ZM1022.56 72.3904C1017.04 72.3904 1012.56 76.8676 1012.56 82.3904V116.219C1012.56 121.742 1017.04 126.219 1022.56 126.219H1056.39C1061.91 126.219 1066.39 121.742 1066.39 116.219V82.3904C1066.39 76.8676 1061.91 72.3904 1056.39 72.3904H1022.56ZM867.781 154.781C867.781 149.258 872.258 144.781 877.781 144.781H911.61C917.132 144.781 921.61 149.258 921.61 154.781V188.61C921.61 194.132 917.132 198.61 911.61 198.61H877.781C872.258 198.61 867.781 194.132 867.781 188.61V154.781ZM877.781 217.171C872.258 217.171 867.781 221.648 867.781 227.171V261C867.781 266.523 872.258 271 877.781 271H911.61C917.132 271 921.61 266.523 921.61 261V227.171C921.61 221.648 917.132 217.171 911.61 217.171H877.781ZM1374.51 82.3904C1374.51 76.8676 1378.99 72.3904 1384.51 72.3904H1418.34C1423.87 72.3904 1428.34 76.8676 1428.34 82.3904V116.219C1428.34 121.742 1423.87 126.219 1418.34 126.219H1384.51C1378.99 126.219 1374.51 121.742 1374.51 116.219V82.3904ZM1239.73 0C1234.21 0 1229.73 4.47716 1229.73 10V43.8288C1229.73 49.3516 1234.21 53.8288 1239.73 53.8288H1273.56C1279.08 53.8288 1283.56 49.3516 1283.56 43.8288V10C1283.56 4.47715 1279.08 0 1273.56 0H1239.73ZM1229.73 154.781C1229.73 149.258 1234.21 144.781 1239.73 144.781H1273.56C1279.08 144.781 1283.56 149.258 1283.56 154.781V188.61C1283.56 194.132 1279.08 198.61 1273.56 198.61H1239.73C1234.21 198.61 1229.73 194.132 1229.73 188.61V154.781ZM1239.73 217.171C1234.21 217.171 1229.73 221.648 1229.73 227.171V261C1229.73 266.523 1234.21 271 1239.73 271H1273.56C1279.08 271 1283.56 266.523 1283.56 261V227.171C1283.56 221.648 1279.08 217.171 1273.56 217.171H1239.73ZM940.171 10C940.171 4.47716 944.648 0 950.171 0H984C989.523 0 994 4.47715 994 10V43.8288C994 49.3516 989.523 53.8288 984 53.8288H950.171C944.648 53.8288 940.171 49.3516 940.171 43.8288V10ZM950.171 144.781C944.648 144.781 940.171 149.258 940.171 154.781V188.61C940.171 194.132 944.648 198.61 950.171 198.61H984C989.523 198.61 994 194.132 994 188.61V154.781C994 149.258 989.523 144.781 984 144.781H950.171ZM940.171 227.171C940.171 221.648 944.648 217.171 950.171 217.171H984C989.523 217.171 994 221.648 994 227.171V261C994 266.523 989.523 271 984 271H950.171C944.648 271 940.171 266.523 940.171 261V227.171ZM1312.12 0C1306.6 0 1302.12 4.47716 1302.12 10V43.8288C1302.12 49.3516 1306.6 53.8288 1312.12 53.8288H1345.95C1351.47 53.8288 1355.95 49.3516 1355.95 43.8288V10C1355.95 4.47715 1351.47 0 1345.95 0H1312.12ZM1302.12 154.781C1302.12 149.258 1306.6 144.781 1312.12 144.781H1345.95C1351.47 144.781 1355.95 149.258 1355.95 154.781V188.61C1355.95 194.132 1351.47 198.61 1345.95 198.61H1312.12C1306.6 198.61 1302.12 194.132 1302.12 188.61V154.781ZM1312.12 217.171C1306.6 217.171 1302.12 221.648 1302.12 227.171V261C1302.12 266.523 1306.6 271 1312.12 271H1345.95C1351.47 271 1355.95 266.523 1355.95 261V227.171C1355.95 221.648 1351.47 217.171 1345.95 217.171H1312.12ZM1012.56 10C1012.56 4.47716 1017.04 0 1022.56 0H1056.39C1061.91 0 1066.39 4.47715 1066.39 10V43.8288C1066.39 49.3516 1061.91 53.8288 1056.39 53.8288H1022.56C1017.04 53.8288 1012.56 49.3516 1012.56 43.8288V10ZM1022.56 144.781C1017.04 144.781 1012.56 149.258 1012.56 154.781V188.61C1012.56 194.132 1017.04 198.61 1022.56 198.61H1056.39C1061.91 198.61 1066.39 194.132 1066.39 188.61V154.781C1066.39 149.258 1061.91 144.781 1056.39 144.781H1022.56ZM1012.56 227.171C1012.56 221.648 1017.04 217.171 1022.56 217.171H1056.39C1061.91 217.171 1066.39 221.648 1066.39 227.171V261C1066.39 266.523 1061.91 271 1056.39 271H1022.56C1017.04 271 1012.56 266.523 1012.56 261V227.171ZM1384.51 0C1378.99 0 1374.51 4.47716 1374.51 10V43.8288C1374.51 49.3516 1378.99 53.8288 1384.51 53.8288H1418.34C1423.87 53.8288 1428.34 49.3516 1428.34 43.8288V10C1428.34 4.47715 1423.87 0 1418.34 0H1384.51ZM1374.51 154.781C1374.51 149.258 1378.99 144.781 1384.51 144.781H1418.34C1423.87 144.781 1428.34 149.258 1428.34 154.781V188.61C1428.34 194.132 1423.87 198.61 1418.34 198.61H1384.51C1378.99 198.61 1374.51 194.132 1374.51 188.61V154.781ZM1384.51 217.171C1378.99 217.171 1374.51 221.648 1374.51 227.171V261C1374.51 266.523 1378.99 271 1384.51 271H1418.34C1423.87 271 1428.34 266.523 1428.34 261V227.171C1428.34 221.648 1423.87 217.171 1418.34 217.171H1384.51Z" fill="url(#paint7_linear_243_356)"/>
<defs>
<linearGradient id="paint0_linear_243_356" x1="129.932" y1="905.116" x2="352.671" y2="1126" gradientUnits="userSpaceOnUse">
<stop stop-color="#333333"/>
<stop offset="1" stop-color="#333333"/>
</linearGradient>
<linearGradient id="paint1_linear_243_356" x1="129.932" y1="335.116" x2="352.671" y2="556" gradientUnits="userSpaceOnUse">
<stop stop-color="#333333"/>
<stop offset="1" stop-color="#333333"/>
</linearGradient>
<linearGradient id="paint2_linear_243_356" x1="852.932" y1="905.116" x2="1075.67" y2="1126" gradientUnits="userSpaceOnUse">
<stop stop-color="#333333"/>
<stop offset="1" stop-color="#333333"/>
</linearGradient>
<linearGradient id="paint3_linear_243_356" x1="852.932" y1="335.116" x2="1075.67" y2="556" gradientUnits="userSpaceOnUse">
<stop stop-color="#333333"/>
<stop offset="1" stop-color="#333333"/>
</linearGradient>
<linearGradient id="paint4_linear_243_356" x1="129.932" y1="620.116" x2="352.671" y2="841" gradientUnits="userSpaceOnUse">
<stop stop-color="#333333"/>
<stop offset="1" stop-color="#333333"/>
</linearGradient>
<linearGradient id="paint5_linear_243_356" x1="129.932" y1="50.1164" x2="352.671" y2="271" gradientUnits="userSpaceOnUse">
<stop stop-color="#333333"/>
<stop offset="1" stop-color="#333333"/>
</linearGradient>
<linearGradient id="paint6_linear_243_356" x1="852.932" y1="620.116" x2="1075.67" y2="841" gradientUnits="userSpaceOnUse">
<stop stop-color="#333333"/>
<stop offset="1" stop-color="#333333"/>
</linearGradient>
<linearGradient id="paint7_linear_243_356" x1="852.932" y1="50.1164" x2="1075.67" y2="271" gradientUnits="userSpaceOnUse">
<stop stop-color="#333333"/>
<stop offset="1" stop-color="#333333"/>
</linearGradient>
</defs>
</svg>
