<svg width="1837" height="1679" viewBox="0 0 1837 1679" fill="none" xmlns="http://www.w3.org/2000/svg">
<rect x="10" y="10" width="53" height="53" rx="6" fill="#333333"/>
<rect x="83" y="10" width="53" height="53" rx="6" fill="#333333"/>
<rect x="156" y="10" width="53" height="53" rx="6" fill="#333333"/>
<rect x="229" y="10" width="53" height="53" rx="6" fill="#333333"/>
<rect x="302" y="10" width="53" height="53" rx="6" fill="#333333"/>
<rect x="375" y="10" width="53" height="53" rx="6" fill="#333333"/>
<rect x="448" y="10" width="53" height="53" rx="6" fill="#333333"/>
<rect x="521" y="10" width="53" height="53" rx="6" fill="#333333"/>
<rect x="594" y="10" width="53" height="53" rx="6" fill="#333333"/>
<rect x="667" y="10" width="53" height="53" rx="6" fill="#333333"/>
<rect x="740" y="10" width="53" height="53" rx="6" fill="#333333"/>
<rect x="813" y="10" width="53" height="53" rx="6" fill="#333333"/>
<rect x="886" y="10" width="53" height="53" rx="6" fill="#333333"/>
<rect x="959" y="10" width="53" height="53" rx="6" fill="#333333"/>
<rect x="1032" y="10" width="53" height="53" rx="6" fill="#333333"/>
<rect x="1105" y="10" width="53" height="53" rx="6" fill="#333333"/>
<rect x="1178" y="10" width="53" height="53" rx="6" fill="#333333"/>
<rect x="1251" y="10" width="53" height="53" rx="6" fill="#333333"/>
<rect x="1324" y="10" width="53" height="53" rx="6" fill="#333333"/>
<rect x="1397" y="10" width="53" height="53" rx="6" fill="#333333"/>
<rect x="1470" y="10" width="53" height="53" rx="6" fill="#333333"/>
<rect x="1543" y="10" width="53" height="53" rx="6" fill="#333333"/>
<rect x="1616" y="10" width="53" height="53" rx="6" fill="#333333"/>
<rect x="1689" y="10" width="53" height="53" rx="6" fill="#333333"/>
<rect x="1762" y="10" width="53" height="53" rx="6" fill="#333333"/>
<rect x="10" y="83" width="53" height="53" rx="6" fill="#333333"/>
<rect x="83" y="83" width="53" height="53" rx="6" fill="#333333"/>
<rect x="156" y="83" width="53" height="53" rx="6" fill="#333333"/>
<rect x="229" y="83" width="53" height="53" rx="6" fill="#333333"/>
<rect x="302" y="83" width="53" height="53" rx="6" fill="#333333"/>
<rect x="375" y="83" width="53" height="53" rx="6" fill="#333333"/>
<rect x="448" y="83" width="53" height="53" rx="6" fill="#333333"/>
<rect x="521" y="83" width="53" height="53" rx="6" fill="#333333"/>
<rect x="594" y="83" width="53" height="53" rx="6" fill="#333333"/>
<rect x="667" y="83" width="53" height="53" rx="6" fill="#333333"/>
<rect x="740" y="83" width="53" height="53" rx="6" fill="#333333"/>
<rect x="813" y="83" width="53" height="53" rx="6" fill="#333333"/>
<rect x="886" y="83" width="53" height="53" rx="6" fill="#333333"/>
<rect x="959" y="83" width="53" height="53" rx="6" fill="#333333"/>
<rect x="1032" y="83" width="53" height="53" rx="6" fill="#333333"/>
<rect x="1105" y="83" width="53" height="53" rx="6" fill="#8C6FB1"/>
<rect x="1178" y="83" width="53" height="53" rx="6" fill="#333333"/>
<rect x="1251" y="83" width="53" height="53" rx="6" fill="#333333"/>
<rect x="1324" y="83" width="53" height="53" rx="6" fill="#333333"/>
<rect x="1397" y="83" width="53" height="53" rx="6" fill="#333333"/>
<rect x="1470" y="83" width="53" height="53" rx="6" fill="#333333"/>
<rect x="1543" y="83" width="53" height="53" rx="6" fill="#333333"/>
<rect x="1616" y="83" width="53" height="53" rx="6" fill="#333333"/>
<rect x="1689" y="83" width="53" height="53" rx="6" fill="#333333"/>
<rect x="1762" y="83" width="53" height="53" rx="6" fill="#333333"/>
<rect x="10" y="156" width="53" height="53" rx="6" fill="#333333"/>
<rect x="83" y="156" width="53" height="53" rx="6" fill="#333333"/>
<rect x="156" y="156" width="53" height="53" rx="6" fill="#6BA8B0"/>
<rect x="229" y="156" width="53" height="53" rx="6" fill="#333333"/>
<rect x="302" y="156" width="53" height="53" rx="6" fill="#333333"/>
<rect x="375" y="156" width="53" height="53" rx="6" fill="#333333"/>
<rect x="448" y="156" width="53" height="53" rx="6" fill="#333333"/>
<rect x="521" y="156" width="53" height="53" rx="6" fill="#333333"/>
<rect x="594" y="156" width="53" height="53" rx="6" fill="#333333"/>
<rect x="667" y="156" width="53" height="53" rx="6" fill="#333333"/>
<rect x="740" y="156" width="53" height="53" rx="6" fill="#67A2AA"/>
<rect x="813" y="156" width="53" height="53" rx="6" fill="#333333"/>
<rect x="886" y="156" width="53" height="53" rx="6" fill="#333333"/>
<rect x="959" y="156" width="53" height="53" rx="6" fill="#333333"/>
<rect x="1032" y="156" width="53" height="53" rx="6" fill="#333333"/>
<rect x="1105" y="156" width="53" height="53" rx="6" fill="#333333"/>
<rect x="1178" y="156" width="53" height="53" rx="6" fill="#333333"/>
<rect x="1251" y="156" width="53" height="53" rx="6" fill="#333333"/>
<rect x="1324" y="156" width="53" height="53" rx="6" fill="#333333"/>
<rect x="1397" y="156" width="53" height="53" rx="6" fill="#333333"/>
<rect x="1470" y="156" width="53" height="53" rx="6" fill="#333333"/>
<rect x="1543" y="156" width="53" height="53" rx="6" fill="#333333"/>
<rect x="1616" y="156" width="53" height="53" rx="6" fill="#333333"/>
<rect x="1689" y="156" width="53" height="53" rx="6" fill="#333333"/>
<rect x="1762" y="156" width="53" height="53" rx="6" fill="#333333"/>
<rect x="10" y="229" width="53" height="53" rx="6" fill="#333333"/>
<rect x="83" y="229" width="53" height="53" rx="6" fill="#333333"/>
<rect x="156" y="229" width="53" height="53" rx="6" fill="#333333"/>
<rect x="229" y="229" width="53" height="53" rx="6" fill="#333333"/>
<rect x="302" y="229" width="53" height="53" rx="6" fill="#333333"/>
<rect x="375" y="229" width="53" height="53" rx="6" fill="#333333"/>
<rect x="448" y="229" width="53" height="53" rx="6" fill="#333333"/>
<rect x="521" y="229" width="53" height="53" rx="6" fill="#8C6FB1"/>
<rect x="594" y="229" width="53" height="53" rx="6" fill="#333333"/>
<rect x="667" y="229" width="53" height="53" rx="6" fill="#333333"/>
<rect x="740" y="229" width="53" height="53" rx="6" fill="#333333"/>
<rect x="813" y="229" width="53" height="53" rx="6" fill="#333333"/>
<rect x="886" y="229" width="53" height="53" rx="6" fill="#333333"/>
<rect x="959" y="229" width="53" height="53" rx="6" fill="#333333"/>
<rect x="1032" y="229" width="53" height="53" rx="6" fill="#333333"/>
<rect x="1105" y="229" width="53" height="53" rx="6" fill="#333333"/>
<rect x="1178" y="229" width="53" height="53" rx="6" fill="#333333"/>
<rect x="1251" y="229" width="53" height="53" rx="6" fill="#333333"/>
<rect x="1324" y="229" width="53" height="53" rx="6" fill="#333333"/>
<rect x="1397" y="229" width="53" height="53" rx="6" fill="#333333"/>
<rect x="1470" y="229" width="53" height="53" rx="6" fill="#333333"/>
<rect x="1543" y="229" width="53" height="53" rx="6" fill="#333333"/>
<rect x="1616" y="229" width="53" height="53" rx="6" fill="#333333"/>
<rect x="1689" y="229" width="53" height="53" rx="6" fill="#333333"/>
<rect x="1762" y="229" width="53" height="53" rx="6" fill="#333333"/>
<rect x="10" y="302" width="53" height="53" rx="6" fill="#333333"/>
<rect x="83" y="302" width="53" height="53" rx="6" fill="#333333"/>
<rect x="156" y="302" width="53" height="53" rx="6" fill="#333333"/>
<rect x="229" y="302" width="53" height="53" rx="6" fill="#333333"/>
<rect x="302" y="302" width="53" height="53" rx="6" fill="#333333"/>
<rect x="375" y="302" width="53" height="53" rx="6" fill="#333333"/>
<rect x="448" y="302" width="53" height="53" rx="6" fill="#333333"/>
<rect x="521" y="302" width="53" height="53" rx="6" fill="#333333"/>
<rect x="594" y="302" width="53" height="53" rx="6" fill="#333333"/>
<rect x="667" y="302" width="53" height="53" rx="6" fill="#333333"/>
<rect x="740" y="302" width="53" height="53" rx="6" fill="#333333"/>
<rect x="813" y="302" width="53" height="53" rx="6" fill="#333333"/>
<rect x="886" y="302" width="53" height="53" rx="6" fill="#333333"/>
<rect x="959" y="302" width="53" height="53" rx="6" fill="#333333"/>
<rect x="1032" y="302" width="53" height="53" rx="6" fill="#333333"/>
<rect x="1105" y="302" width="53" height="53" rx="6" fill="#333333"/>
<rect x="1178" y="302" width="53" height="53" rx="6" fill="#333333"/>
<rect x="1251" y="302" width="53" height="53" rx="6" fill="#333333"/>
<rect x="1324" y="302" width="53" height="53" rx="6" fill="#333333"/>
<rect x="1397" y="302" width="53" height="53" rx="6" fill="#333333"/>
<rect x="1470" y="302" width="53" height="53" rx="6" fill="#333333"/>
<rect x="1543" y="302" width="53" height="53" rx="6" fill="#333333"/>
<rect x="1616" y="302" width="53" height="53" rx="6" fill="#333333"/>
<rect x="1689" y="302" width="53" height="53" rx="6" fill="#333333"/>
<rect x="1762" y="302" width="53" height="53" rx="6" fill="#333333"/>
<rect x="10" y="375" width="53" height="53" rx="6" fill="#333333"/>
<rect x="83" y="375" width="53" height="53" rx="6" fill="#333333"/>
<rect x="156" y="375" width="53" height="53" rx="6" fill="#333333"/>
<rect x="229" y="375" width="53" height="53" rx="6" fill="#333333"/>
<rect x="302" y="375" width="53" height="53" rx="6" fill="#333333"/>
<rect x="375" y="375" width="53" height="53" rx="6" fill="#333333"/>
<rect x="448" y="375" width="53" height="53" rx="6" fill="#333333"/>
<rect x="521" y="375" width="53" height="53" rx="6" fill="#333333"/>
<rect x="594" y="375" width="53" height="53" rx="6" fill="#333333"/>
<rect x="667" y="375" width="53" height="53" rx="6" fill="#333333"/>
<rect x="740" y="375" width="53" height="53" rx="6" fill="#333333"/>
<rect x="813" y="375" width="53" height="53" rx="6" fill="#333333"/>
<rect x="886" y="375" width="53" height="53" rx="6" fill="#333333"/>
<rect x="959" y="375" width="53" height="53" rx="6" fill="#333333"/>
<rect x="1032" y="375" width="53" height="53" rx="6" fill="#333333"/>
<rect x="1105" y="375" width="53" height="53" rx="6" fill="#333333"/>
<rect x="1178" y="375" width="53" height="53" rx="6" fill="#9077B1"/>
<rect x="1251" y="375" width="53" height="53" rx="6" fill="#333333"/>
<rect x="1324" y="375" width="53" height="53" rx="6" fill="#333333"/>
<rect x="1397" y="375" width="53" height="53" rx="6" fill="#333333"/>
<rect x="1470" y="375" width="53" height="53" rx="6" fill="#333333"/>
<rect x="1543" y="375" width="53" height="53" rx="6" fill="#333333"/>
<rect x="1616" y="375" width="53" height="53" rx="6" fill="#333333"/>
<rect x="1689" y="375" width="53" height="53" rx="6" fill="#333333"/>
<rect x="1762" y="375" width="53" height="53" rx="6" fill="#333333"/>
<rect x="10" y="448" width="53" height="53" rx="6" fill="#333333"/>
<rect x="83" y="448" width="53" height="53" rx="6" fill="#333333"/>
<rect x="156" y="448" width="53" height="53" rx="6" fill="#333333"/>
<rect x="229" y="448" width="53" height="53" rx="6" fill="#333333"/>
<rect x="302" y="448" width="53" height="53" rx="6" fill="#333333"/>
<rect x="375" y="448" width="53" height="53" rx="6" fill="#333333"/>
<rect x="448" y="448" width="53" height="53" rx="6" fill="#333333"/>
<rect x="521" y="448" width="53" height="53" rx="6" fill="#333333"/>
<rect x="594" y="448" width="53" height="53" rx="6" fill="#333333"/>
<rect x="667" y="448" width="53" height="53" rx="6" fill="#333333"/>
<rect x="740" y="448" width="53" height="53" rx="6" fill="#61819F"/>
<rect x="813" y="448" width="53" height="53" rx="6" fill="#333333"/>
<rect x="886" y="448" width="53" height="53" rx="6" fill="#333333"/>
<rect x="959" y="448" width="53" height="53" rx="6" fill="#333333"/>
<rect x="1032" y="448" width="53" height="53" rx="6" fill="#333333"/>
<rect x="1105" y="448" width="53" height="53" rx="6" fill="#333333"/>
<rect x="1178" y="448" width="53" height="53" rx="6" fill="#333333"/>
<rect x="1251" y="448" width="53" height="53" rx="6" fill="#333333"/>
<rect x="1324" y="448" width="53" height="53" rx="6" fill="#333333"/>
<rect x="1397" y="448" width="53" height="53" rx="6" fill="#333333"/>
<rect x="1470" y="448" width="53" height="53" rx="6" fill="#67A2AA"/>
<rect x="1543" y="448" width="53" height="53" rx="6" fill="#333333"/>
<rect x="1616" y="448" width="53" height="53" rx="6" fill="#333333"/>
<rect x="1689" y="448" width="53" height="53" rx="6" fill="#333333"/>
<rect x="1762" y="448" width="53" height="53" rx="6" fill="#333333"/>
<rect x="10" y="521" width="53" height="53" rx="6" fill="#333333"/>
<rect x="83" y="521" width="53" height="53" rx="6" fill="#333333"/>
<rect x="156" y="521" width="53" height="53" rx="6" fill="#333333"/>
<rect x="229" y="521" width="53" height="53" rx="6" fill="#333333"/>
<rect x="302" y="521" width="53" height="53" rx="6" fill="#333333"/>
<rect x="375" y="521" width="53" height="53" rx="6" fill="#9077B1"/>
<g filter="url(#filter0_d_244_378)">
<rect x="448" y="521" width="53" height="53" rx="6" fill="#333333"/>
</g>
<rect x="521" y="521" width="53" height="53" rx="6" fill="#333333"/>
<rect x="594" y="521" width="53" height="53" rx="6" fill="#333333"/>
<rect x="667" y="521" width="53" height="53" rx="6" fill="#333333"/>
<rect x="740" y="521" width="53" height="53" rx="6" fill="#333333"/>
<rect x="813" y="521" width="53" height="53" rx="6" fill="#333333"/>
<rect x="886" y="521" width="53" height="53" rx="6" fill="#333333"/>
<rect x="959" y="521" width="53" height="53" rx="6" fill="#333333"/>
<rect x="1032" y="521" width="53" height="53" rx="6" fill="#639CA3"/>
<rect x="1105" y="521" width="53" height="53" rx="6" fill="#333333"/>
<rect x="1178" y="521" width="53" height="53" rx="6" fill="#333333"/>
<rect x="1251" y="521" width="53" height="53" rx="6" fill="#333333"/>
<rect x="1324" y="521" width="53" height="53" rx="6" fill="#333333"/>
<rect x="1397" y="521" width="53" height="53" rx="6" fill="#333333"/>
<rect x="1470" y="521" width="53" height="53" rx="6" fill="#333333"/>
<rect x="1543" y="521" width="53" height="53" rx="6" fill="#333333"/>
<rect x="1616" y="521" width="53" height="53" rx="6" fill="#333333"/>
<rect x="1689" y="521" width="53" height="53" rx="6" fill="#333333"/>
<rect x="1762" y="521" width="53" height="53" rx="6" fill="#333333"/>
<rect x="10" y="594" width="53" height="53" rx="6" fill="#333333"/>
<rect x="83" y="594" width="53" height="53" rx="6" fill="#333333"/>
<rect x="156" y="594" width="53" height="53" rx="6" fill="#333333"/>
<rect x="229" y="594" width="53" height="53" rx="6" fill="#333333"/>
<rect x="302" y="594" width="53" height="53" rx="6" fill="#333333"/>
<rect x="375" y="594" width="53" height="53" rx="6" fill="#333333"/>
<rect x="448" y="594" width="53" height="53" rx="6" fill="#333333"/>
<rect x="521" y="594" width="53" height="53" rx="6" fill="#333333"/>
<rect x="594" y="594" width="53" height="53" rx="6" fill="#333333"/>
<rect x="667" y="594" width="53" height="53" rx="6" fill="#333333"/>
<rect x="740" y="594" width="53" height="53" rx="6" fill="#333333"/>
<rect x="813" y="594" width="53" height="53" rx="6" fill="#333333"/>
<rect x="886" y="594" width="53" height="53" rx="6" fill="#333333"/>
<rect x="959" y="594" width="53" height="53" rx="6" fill="#333333"/>
<rect x="1032" y="594" width="53" height="53" rx="6" fill="#333333"/>
<rect x="1105" y="594" width="53" height="53" rx="6" fill="#333333"/>
<rect x="1178" y="594" width="53" height="53" rx="6" fill="#333333"/>
<rect x="1251" y="594" width="53" height="53" rx="6" fill="#333333"/>
<rect x="1324" y="594" width="53" height="53" rx="6" fill="#333333"/>
<rect x="1397" y="594" width="53" height="53" rx="6" fill="#333333"/>
<rect x="1470" y="594" width="53" height="53" rx="6" fill="#333333"/>
<rect x="1543" y="594" width="53" height="53" rx="6" fill="#333333"/>
<rect x="1616" y="594" width="53" height="53" rx="6" fill="#333333"/>
<rect x="1689" y="594" width="53" height="53" rx="6" fill="#333333"/>
<rect x="1762" y="594" width="53" height="53" rx="6" fill="#333333"/>
<rect x="10" y="667" width="53" height="53" rx="6" fill="#333333"/>
<rect x="83" y="667" width="53" height="53" rx="6" fill="#333333"/>
<rect x="156" y="667" width="53" height="53" rx="6" fill="#333333"/>
<rect x="229" y="667" width="53" height="53" rx="6" fill="#333333"/>
<rect x="302" y="667" width="53" height="53" rx="6" fill="#333333"/>
<rect x="375" y="667" width="53" height="53" rx="6" fill="#333333"/>
<rect x="448" y="667" width="53" height="53" rx="6" fill="#333333"/>
<rect x="521" y="667" width="53" height="53" rx="6" fill="#333333"/>
<rect x="594" y="667" width="53" height="53" rx="6" fill="#67A2AA"/>
<rect x="667" y="667" width="53" height="53" rx="6" fill="#333333"/>
<rect x="740" y="667" width="53" height="53" rx="6" fill="#333333"/>
<rect x="813" y="667" width="53" height="53" rx="6" fill="#333333"/>
<rect x="886" y="667" width="53" height="53" rx="6" fill="#333333"/>
<rect x="959" y="667" width="53" height="53" rx="6" fill="#333333"/>
<rect x="1032" y="667" width="53" height="53" rx="6" fill="#333333"/>
<rect x="1105" y="667" width="53" height="53" rx="6" fill="#333333"/>
<rect x="1178" y="667" width="53" height="53" rx="6" fill="#333333"/>
<rect x="1251" y="667" width="53" height="53" rx="6" fill="#5B7A96"/>
<rect x="1324" y="667" width="53" height="53" rx="6" fill="#333333"/>
<rect x="1397" y="667" width="53" height="53" rx="6" fill="#333333"/>
<rect x="1470" y="667" width="53" height="53" rx="6" fill="#333333"/>
<rect x="1543" y="667" width="53" height="53" rx="6" fill="#333333"/>
<rect x="1616" y="667" width="53" height="53" rx="6" fill="#333333"/>
<rect x="1689" y="667" width="53" height="53" rx="6" fill="#333333"/>
<rect x="1762" y="667" width="53" height="53" rx="6" fill="#333333"/>
<rect x="10" y="740" width="53" height="53" rx="6" fill="#333333"/>
<rect x="83" y="740" width="53" height="53" rx="6" fill="#333333"/>
<rect x="156" y="740" width="53" height="53" rx="6" fill="#333333"/>
<rect x="229" y="740" width="53" height="53" rx="6" fill="#5B7A96"/>
<rect x="302" y="740" width="53" height="53" rx="6" fill="#333333"/>
<rect x="375" y="740" width="53" height="53" rx="6" fill="#333333"/>
<rect x="448" y="740" width="53" height="53" rx="6" fill="#333333"/>
<rect x="521" y="740" width="53" height="53" rx="6" fill="#333333"/>
<rect x="594" y="740" width="53" height="53" rx="6" fill="#333333"/>
<rect x="667" y="740" width="53" height="53" rx="6" fill="#333333"/>
<rect x="740" y="740" width="53" height="53" rx="6" fill="#333333"/>
<rect x="813" y="740" width="53" height="53" rx="6" fill="#8C6FB1"/>
<rect x="886" y="740" width="53" height="53" rx="6" fill="#333333"/>
<rect x="959" y="740" width="53" height="53" rx="6" fill="#333333"/>
<rect x="1032" y="740" width="53" height="53" rx="6" fill="#333333"/>
<rect x="1105" y="740" width="53" height="53" rx="6" fill="#333333"/>
<rect x="1178" y="740" width="53" height="53" rx="6" fill="#333333"/>
<rect x="1251" y="740" width="53" height="53" rx="6" fill="#333333"/>
<rect x="1324" y="740" width="53" height="53" rx="6" fill="#333333"/>
<rect x="1397" y="740" width="53" height="53" rx="6" fill="#333333"/>
<rect x="1470" y="740" width="53" height="53" rx="6" fill="#333333"/>
<rect x="1543" y="740" width="53" height="53" rx="6" fill="#8C6FB1"/>
<rect x="1616" y="740" width="53" height="53" rx="6" fill="#333333"/>
<rect x="1689" y="740" width="53" height="53" rx="6" fill="#333333"/>
<rect x="1762" y="740" width="53" height="53" rx="6" fill="#333333"/>
<rect x="10" y="813" width="53" height="53" rx="6" fill="#333333"/>
<rect x="83" y="813" width="53" height="53" rx="6" fill="#333333"/>
<rect x="156" y="813" width="53" height="53" rx="6" fill="#333333"/>
<rect x="229" y="813" width="53" height="53" rx="6" fill="#333333"/>
<rect x="302" y="813" width="53" height="53" rx="6" fill="#333333"/>
<rect x="375" y="813" width="53" height="53" rx="6" fill="#333333"/>
<rect x="448" y="813" width="53" height="53" rx="6" fill="#333333"/>
<rect x="521" y="813" width="53" height="53" rx="6" fill="#333333"/>
<rect x="594" y="813" width="53" height="53" rx="6" fill="#333333"/>
<rect x="667" y="813" width="53" height="53" rx="6" fill="#333333"/>
<rect x="740" y="813" width="53" height="53" rx="6" fill="#333333"/>
<rect x="813" y="813" width="53" height="53" rx="6" fill="#333333"/>
<rect x="886" y="813" width="53" height="53" rx="6" fill="#333333"/>
<rect x="959" y="813" width="53" height="53" rx="6" fill="#333333"/>
<rect x="1032" y="813" width="53" height="53" rx="6" fill="#333333"/>
<rect x="1105" y="813" width="53" height="53" rx="6" fill="#333333"/>
<rect x="1178" y="813" width="53" height="53" rx="6" fill="#333333"/>
<rect x="1251" y="813" width="53" height="53" rx="6" fill="#333333"/>
<rect x="1324" y="813" width="53" height="53" rx="6" fill="#333333"/>
<rect x="1397" y="813" width="53" height="53" rx="6" fill="#333333"/>
<rect x="1470" y="813" width="53" height="53" rx="6" fill="#333333"/>
<rect x="1543" y="813" width="53" height="53" rx="6" fill="#333333"/>
<rect x="1616" y="813" width="53" height="53" rx="6" fill="#333333"/>
<rect x="1689" y="813" width="53" height="53" rx="6" fill="#333333"/>
<rect x="1762" y="813" width="53" height="53" rx="6" fill="#333333"/>
<rect x="10" y="886" width="53" height="53" rx="6" fill="#333333"/>
<rect x="83" y="886" width="53" height="53" rx="6" fill="#333333"/>
<rect x="156" y="886" width="53" height="53" rx="6" fill="#333333"/>
<rect x="229" y="886" width="53" height="53" rx="6" fill="#333333"/>
<rect x="302" y="886" width="53" height="53" rx="6" fill="#333333"/>
<rect x="375" y="886" width="53" height="53" rx="6" fill="#333333"/>
<rect x="448" y="886" width="53" height="53" rx="6" fill="#67A2AA"/>
<rect x="521" y="886" width="53" height="53" rx="6" fill="#333333"/>
<rect x="594" y="886" width="53" height="53" rx="6" fill="#333333"/>
<rect x="667" y="886" width="53" height="53" rx="6" fill="#333333"/>
<rect x="740" y="886" width="53" height="53" rx="6" fill="#333333"/>
<rect x="813" y="886" width="53" height="53" rx="6" fill="#333333"/>
<rect x="886" y="886" width="53" height="53" rx="6" fill="#333333"/>
<rect x="959" y="886" width="53" height="53" rx="6" fill="#333333"/>
<rect x="1032" y="886" width="53" height="53" rx="6" fill="#333333"/>
<rect x="1105" y="886" width="53" height="53" rx="6" fill="#8C6FB1"/>
<rect x="1178" y="886" width="53" height="53" rx="6" fill="#333333"/>
<rect x="1251" y="886" width="53" height="53" rx="6" fill="#333333"/>
<rect x="1324" y="886" width="53" height="53" rx="6" fill="#333333"/>
<rect x="1397" y="886" width="53" height="53" rx="6" fill="#5B7A96"/>
<rect x="1470" y="886" width="53" height="53" rx="6" fill="#333333"/>
<rect x="1543" y="886" width="53" height="53" rx="6" fill="#333333"/>
<rect x="1616" y="886" width="53" height="53" rx="6" fill="#333333"/>
<rect x="1689" y="886" width="53" height="53" rx="6" fill="#333333"/>
<rect x="1762" y="886" width="53" height="53" rx="6" fill="#333333"/>
<rect x="10" y="959" width="53" height="53" rx="6" fill="#333333"/>
<rect x="83" y="959" width="53" height="53" rx="6" fill="#333333"/>
<rect x="156" y="959" width="53" height="53" rx="6" fill="#333333"/>
<rect x="229" y="959" width="53" height="53" rx="6" fill="#333333"/>
<rect x="302" y="959" width="53" height="53" rx="6" fill="#333333"/>
<rect x="375" y="959" width="53" height="53" rx="6" fill="#333333"/>
<rect x="448" y="959" width="53" height="53" rx="6" fill="#333333"/>
<rect x="521" y="959" width="53" height="53" rx="6" fill="#333333"/>
<rect x="594" y="959" width="53" height="53" rx="6" fill="#333333"/>
<rect x="667" y="959" width="53" height="53" rx="6" fill="#333333"/>
<rect x="740" y="959" width="53" height="53" rx="6" fill="#333333"/>
<rect x="813" y="959" width="53" height="53" rx="6" fill="#333333"/>
<rect x="886" y="959" width="53" height="53" rx="6" fill="#333333"/>
<rect x="959" y="959" width="53" height="53" rx="6" fill="#333333"/>
<rect x="1032" y="959" width="53" height="53" rx="6" fill="#333333"/>
<rect x="1105" y="959" width="53" height="53" rx="6" fill="#333333"/>
<rect x="1178" y="959" width="53" height="53" rx="6" fill="#333333"/>
<rect x="1251" y="959" width="53" height="53" rx="6" fill="#333333"/>
<rect x="1324" y="959" width="53" height="53" rx="6" fill="#333333"/>
<rect x="1397" y="959" width="53" height="53" rx="6" fill="#333333"/>
<rect x="1470" y="959" width="53" height="53" rx="6" fill="#333333"/>
<rect x="1543" y="959" width="53" height="53" rx="6" fill="#333333"/>
<rect x="1616" y="959" width="53" height="53" rx="6" fill="#333333"/>
<rect x="1689" y="959" width="53" height="53" rx="6" fill="#639CA3"/>
<rect x="1762" y="959" width="53" height="53" rx="6" fill="#333333"/>
<rect x="10" y="1032" width="53" height="53" rx="6" fill="#333333"/>
<rect x="83" y="1032" width="53" height="53" rx="6" fill="#333333"/>
<rect x="156" y="1032" width="53" height="53" rx="6" fill="#333333"/>
<rect x="229" y="1032" width="53" height="53" rx="6" fill="#333333"/>
<rect x="302" y="1032" width="53" height="53" rx="6" fill="#333333"/>
<rect x="375" y="1032" width="53" height="53" rx="6" fill="#333333"/>
<rect x="448" y="1032" width="53" height="53" rx="6" fill="#333333"/>
<rect x="521" y="1032" width="53" height="53" rx="6" fill="#333333"/>
<rect x="594" y="1032" width="53" height="53" rx="6" fill="#333333"/>
<rect x="667" y="1032" width="53" height="53" rx="6" fill="#333333"/>
<rect x="740" y="1032" width="53" height="53" rx="6" fill="#333333"/>
<rect x="813" y="1032" width="53" height="53" rx="6" fill="#5B7A96"/>
<rect x="886" y="1032" width="53" height="53" rx="6" fill="#333333"/>
<rect x="959" y="1032" width="53" height="53" rx="6" fill="#333333"/>
<rect x="1032" y="1032" width="53" height="53" rx="6" fill="#333333"/>
<rect x="1105" y="1032" width="53" height="53" rx="6" fill="#333333"/>
<rect x="1178" y="1032" width="53" height="53" rx="6" fill="#333333"/>
<rect x="1251" y="1032" width="53" height="53" rx="6" fill="#333333"/>
<rect x="1324" y="1032" width="53" height="53" rx="6" fill="#333333"/>
<rect x="1397" y="1032" width="53" height="53" rx="6" fill="#333333"/>
<rect x="1470" y="1032" width="53" height="53" rx="6" fill="#333333"/>
<rect x="1543" y="1032" width="53" height="53" rx="6" fill="#333333"/>
<rect x="1616" y="1032" width="53" height="53" rx="6" fill="#333333"/>
<rect x="1689" y="1032" width="53" height="53" rx="6" fill="#333333"/>
<rect x="1762" y="1032" width="53" height="53" rx="6" fill="#333333"/>
<rect x="10" y="1105" width="53" height="53" rx="6" fill="#333333"/>
<rect x="83" y="1105" width="53" height="53" rx="6" fill="#333333"/>
<rect x="156" y="1105" width="53" height="53" rx="6" fill="#333333"/>
<rect x="229" y="1105" width="53" height="53" rx="6" fill="#333333"/>
<rect x="302" y="1105" width="53" height="53" rx="6" fill="#6486A4"/>
<rect x="375" y="1105" width="53" height="53" rx="6" fill="#333333"/>
<rect x="448" y="1105" width="53" height="53" rx="6" fill="#333333"/>
<rect x="521" y="1105" width="53" height="53" rx="6" fill="#333333"/>
<rect x="594" y="1105" width="53" height="53" rx="6" fill="#333333"/>
<rect x="667" y="1105" width="53" height="53" rx="6" fill="#333333"/>
<rect x="740" y="1105" width="53" height="53" rx="6" fill="#333333"/>
<rect x="813" y="1105" width="53" height="53" rx="6" fill="#333333"/>
<rect x="886" y="1105" width="53" height="53" rx="6" fill="#333333"/>
<rect x="959" y="1105" width="53" height="53" rx="6" fill="#333333"/>
<rect x="1032" y="1105" width="53" height="53" rx="6" fill="#639CA3"/>
<rect x="1105" y="1105" width="53" height="53" rx="6" fill="#333333"/>
<rect x="1178" y="1105" width="53" height="53" rx="6" fill="#333333"/>
<rect x="1251" y="1105" width="53" height="53" rx="6" fill="#333333"/>
<rect x="1324" y="1105" width="53" height="53" rx="6" fill="#333333"/>
<rect x="1397" y="1105" width="53" height="53" rx="6" fill="#333333"/>
<rect x="1470" y="1105" width="53" height="53" rx="6" fill="#333333"/>
<rect x="1543" y="1105" width="53" height="53" rx="6" fill="#333333"/>
<rect x="1616" y="1105" width="53" height="53" rx="6" fill="#333333"/>
<rect x="1689" y="1105" width="53" height="53" rx="6" fill="#333333"/>
<rect x="1762" y="1105" width="53" height="53" rx="6" fill="#333333"/>
<rect x="10" y="1178" width="53" height="53" rx="6" fill="#333333"/>
<rect x="83" y="1178" width="53" height="53" rx="6" fill="#333333"/>
<rect x="156" y="1178" width="53" height="53" rx="6" fill="#333333"/>
<rect x="229" y="1178" width="53" height="53" rx="6" fill="#333333"/>
<rect x="302" y="1178" width="53" height="53" rx="6" fill="#333333"/>
<rect x="375" y="1178" width="53" height="53" rx="6" fill="#333333"/>
<rect x="448" y="1178" width="53" height="53" rx="6" fill="#333333"/>
<rect x="521" y="1178" width="53" height="53" rx="6" fill="#333333"/>
<rect x="594" y="1178" width="53" height="53" rx="6" fill="#8C6FB1"/>
<rect x="667" y="1178" width="53" height="53" rx="6" fill="#333333"/>
<rect x="740" y="1178" width="53" height="53" rx="6" fill="#333333"/>
<rect x="813" y="1178" width="53" height="53" rx="6" fill="#333333"/>
<rect x="886" y="1178" width="53" height="53" rx="6" fill="#333333"/>
<rect x="959" y="1178" width="53" height="53" rx="6" fill="#333333"/>
<rect x="1032" y="1178" width="53" height="53" rx="6" fill="#333333"/>
<rect x="1105" y="1178" width="53" height="53" rx="6" fill="#333333"/>
<rect x="1178" y="1178" width="53" height="53" rx="6" fill="#333333"/>
<rect x="1251" y="1178" width="53" height="53" rx="6" fill="#639CA3"/>
<rect x="1324" y="1178" width="53" height="53" rx="6" fill="#333333"/>
<rect x="1397" y="1178" width="53" height="53" rx="6" fill="#333333"/>
<rect x="1470" y="1178" width="53" height="53" rx="6" fill="#333333"/>
<rect x="1543" y="1178" width="53" height="53" rx="6" fill="#333333"/>
<rect x="1616" y="1178" width="53" height="53" rx="6" fill="#333333"/>
<rect x="1689" y="1178" width="53" height="53" rx="6" fill="#333333"/>
<rect x="1762" y="1178" width="53" height="53" rx="6" fill="#333333"/>
<rect x="10" y="1251" width="53" height="53" rx="6" fill="#333333"/>
<rect x="83" y="1251" width="53" height="53" rx="6" fill="#333333"/>
<rect x="156" y="1251" width="53" height="53" rx="6" fill="#333333"/>
<rect x="229" y="1251" width="53" height="53" rx="6" fill="#333333"/>
<rect x="302" y="1251" width="53" height="53" rx="6" fill="#333333"/>
<rect x="375" y="1251" width="53" height="53" rx="6" fill="#333333"/>
<rect x="448" y="1251" width="53" height="53" rx="6" fill="#333333"/>
<rect x="521" y="1251" width="53" height="53" rx="6" fill="#333333"/>
<rect x="594" y="1251" width="53" height="53" rx="6" fill="#333333"/>
<rect x="667" y="1251" width="53" height="53" rx="6" fill="#333333"/>
<rect x="740" y="1251" width="53" height="53" rx="6" fill="#333333"/>
<rect x="813" y="1251" width="53" height="53" rx="6" fill="#333333"/>
<rect x="886" y="1251" width="53" height="53" rx="6" fill="#333333"/>
<rect x="959" y="1251" width="53" height="53" rx="6" fill="#333333"/>
<rect x="1032" y="1251" width="53" height="53" rx="6" fill="#333333"/>
<rect x="1105" y="1251" width="53" height="53" rx="6" fill="#333333"/>
<rect x="1178" y="1251" width="53" height="53" rx="6" fill="#333333"/>
<rect x="1251" y="1251" width="53" height="53" rx="6" fill="#333333"/>
<rect x="1324" y="1251" width="53" height="53" rx="6" fill="#333333"/>
<rect x="1397" y="1251" width="53" height="53" rx="6" fill="#333333"/>
<rect x="1470" y="1251" width="53" height="53" rx="6" fill="#8C6FB1"/>
<rect x="1543" y="1251" width="53" height="53" rx="6" fill="#333333"/>
<rect x="1616" y="1251" width="53" height="53" rx="6" fill="#333333"/>
<rect x="1689" y="1251" width="53" height="53" rx="6" fill="#333333"/>
<rect x="1762" y="1251" width="53" height="53" rx="6" fill="#333333"/>
<rect x="10" y="1324" width="53" height="53" rx="6" fill="#333333"/>
<rect x="83" y="1324" width="53" height="53" rx="6" fill="#333333"/>
<rect x="156" y="1324" width="53" height="53" rx="6" fill="#333333"/>
<rect x="229" y="1324" width="53" height="53" rx="6" fill="#333333"/>
<rect x="302" y="1324" width="53" height="53" rx="6" fill="#333333"/>
<rect x="375" y="1324" width="53" height="53" rx="6" fill="#333333"/>
<rect x="448" y="1324" width="53" height="53" rx="6" fill="#333333"/>
<rect x="521" y="1324" width="53" height="53" rx="6" fill="#333333"/>
<rect x="594" y="1324" width="53" height="53" rx="6" fill="#333333"/>
<rect x="667" y="1324" width="53" height="53" rx="6" fill="#333333"/>
<rect x="740" y="1324" width="53" height="53" rx="6" fill="#333333"/>
<rect x="813" y="1324" width="53" height="53" rx="6" fill="#333333"/>
<rect x="886" y="1324" width="53" height="53" rx="6" fill="#61819F"/>
<rect x="959" y="1324" width="53" height="53" rx="6" fill="#333333"/>
<rect x="1032" y="1324" width="53" height="53" rx="6" fill="#333333"/>
<rect x="1105" y="1324" width="53" height="53" rx="6" fill="#333333"/>
<rect x="1178" y="1324" width="53" height="53" rx="6" fill="#333333"/>
<rect x="1251" y="1324" width="53" height="53" rx="6" fill="#333333"/>
<rect x="1324" y="1324" width="53" height="53" rx="6" fill="#333333"/>
<rect x="1397" y="1324" width="53" height="53" rx="6" fill="#333333"/>
<rect x="1470" y="1324" width="53" height="53" rx="6" fill="#333333"/>
<rect x="1543" y="1324" width="53" height="53" rx="6" fill="#333333"/>
<rect x="1616" y="1324" width="53" height="53" rx="6" fill="#333333"/>
<rect x="1689" y="1324" width="53" height="53" rx="6" fill="#333333"/>
<rect x="1762" y="1324" width="53" height="53" rx="6" fill="#333333"/>
<rect x="10" y="1397" width="53" height="53" rx="6" fill="#333333"/>
<rect x="83" y="1397" width="53" height="53" rx="6" fill="#333333"/>
<rect x="156" y="1397" width="53" height="53" rx="6" fill="#333333"/>
<rect x="229" y="1397" width="53" height="53" rx="6" fill="#333333"/>
<rect x="302" y="1397" width="53" height="53" rx="6" fill="#333333"/>
<rect x="375" y="1397" width="53" height="53" rx="6" fill="#333333"/>
<rect x="448" y="1397" width="53" height="53" rx="6" fill="#333333"/>
<rect x="521" y="1397" width="53" height="53" rx="6" fill="#333333"/>
<rect x="594" y="1397" width="53" height="53" rx="6" fill="#333333"/>
<rect x="667" y="1397" width="53" height="53" rx="6" fill="#333333"/>
<rect x="740" y="1397" width="53" height="53" rx="6" fill="#333333"/>
<rect x="813" y="1397" width="53" height="53" rx="6" fill="#333333"/>
<rect x="886" y="1397" width="53" height="53" rx="6" fill="#333333"/>
<rect x="959" y="1397" width="53" height="53" rx="6" fill="#333333"/>
<rect x="1032" y="1397" width="53" height="53" rx="6" fill="#333333"/>
<rect x="1105" y="1397" width="53" height="53" rx="6" fill="#333333"/>
<rect x="1178" y="1397" width="53" height="53" rx="6" fill="#333333"/>
<rect x="1251" y="1397" width="53" height="53" rx="6" fill="#333333"/>
<rect x="1324" y="1397" width="53" height="53" rx="6" fill="#333333"/>
<rect x="1397" y="1397" width="53" height="53" rx="6" fill="#333333"/>
<rect x="1470" y="1397" width="53" height="53" rx="6" fill="#333333"/>
<rect x="1543" y="1397" width="53" height="53" rx="6" fill="#333333"/>
<rect x="1616" y="1397" width="53" height="53" rx="6" fill="#333333"/>
<rect x="1689" y="1397" width="53" height="53" rx="6" fill="#333333"/>
<rect x="1762" y="1397" width="53" height="53" rx="6" fill="#333333"/>
<rect x="10" y="1470" width="53" height="53" rx="6" fill="#333333"/>
<rect x="83" y="1470" width="53" height="53" rx="6" fill="#333333"/>
<rect x="156" y="1470" width="53" height="53" rx="6" fill="#333333"/>
<rect x="229" y="1470" width="53" height="53" rx="6" fill="#333333"/>
<rect x="302" y="1470" width="53" height="53" rx="6" fill="#333333"/>
<rect x="375" y="1470" width="53" height="53" rx="6" fill="#333333"/>
<rect x="448" y="1470" width="53" height="53" rx="6" fill="#333333"/>
<rect x="521" y="1470" width="53" height="53" rx="6" fill="#333333"/>
<rect x="594" y="1470" width="53" height="53" rx="6" fill="#333333"/>
<rect x="667" y="1470" width="53" height="53" rx="6" fill="#333333"/>
<rect x="740" y="1470" width="53" height="53" rx="6" fill="#5C7B97"/>
<rect x="813" y="1470" width="53" height="53" rx="6" fill="#333333"/>
<rect x="886" y="1470" width="53" height="53" rx="6" fill="#333333"/>
<rect x="959" y="1470" width="53" height="53" rx="6" fill="#333333"/>
<rect x="1032" y="1470" width="53" height="53" rx="6" fill="#333333"/>
<rect x="1105" y="1470" width="53" height="53" rx="6" fill="#927AB1"/>
<rect x="1178" y="1470" width="53" height="53" rx="6" fill="#333333"/>
<rect x="1251" y="1470" width="53" height="53" rx="6" fill="#333333"/>
<rect x="1324" y="1470" width="53" height="53" rx="6" fill="#333333"/>
<rect x="1397" y="1470" width="53" height="53" rx="6" fill="#333333"/>
<rect x="1470" y="1470" width="53" height="53" rx="6" fill="#333333"/>
<rect x="1543" y="1470" width="53" height="53" rx="6" fill="#333333"/>
<rect x="1616" y="1470" width="53" height="53" rx="6" fill="#333333"/>
<rect x="1689" y="1470" width="53" height="53" rx="6" fill="#333333"/>
<rect x="1762" y="1470" width="53" height="53" rx="6" fill="#333333"/>
<rect x="10" y="1543" width="53" height="53" rx="6" fill="#333333"/>
<rect x="83" y="1543" width="53" height="53" rx="6" fill="#333333"/>
<rect x="156" y="1543" width="53" height="53" rx="6" fill="#333333"/>
<rect x="229" y="1543" width="53" height="53" rx="6" fill="#333333"/>
<rect x="302" y="1543" width="53" height="53" rx="6" fill="#927AB1"/>
<rect x="375" y="1543" width="53" height="53" rx="6" fill="#333333"/>
<rect x="448" y="1543" width="53" height="53" rx="6" fill="#333333"/>
<rect x="521" y="1543" width="53" height="53" rx="6" fill="#333333"/>
<rect x="594" y="1543" width="53" height="53" rx="6" fill="#333333"/>
<rect x="667" y="1543" width="53" height="53" rx="6" fill="#333333"/>
<rect x="740" y="1543" width="53" height="53" rx="6" fill="#333333"/>
<rect x="813" y="1543" width="53" height="53" rx="6" fill="#333333"/>
<rect x="886" y="1543" width="53" height="53" rx="6" fill="#333333"/>
<rect x="959" y="1543" width="53" height="53" rx="6" fill="#333333"/>
<rect x="1032" y="1543" width="53" height="53" rx="6" fill="#333333"/>
<rect x="1105" y="1543" width="53" height="53" rx="6" fill="#333333"/>
<rect x="1178" y="1543" width="53" height="53" rx="6" fill="#333333"/>
<rect x="1251" y="1543" width="53" height="53" rx="6" fill="#333333"/>
<rect x="1324" y="1543" width="53" height="53" rx="6" fill="#333333"/>
<rect x="1397" y="1543" width="53" height="53" rx="6" fill="#333333"/>
<rect x="1470" y="1543" width="53" height="53" rx="6" fill="#333333"/>
<rect x="1543" y="1543" width="53" height="53" rx="6" fill="#333333"/>
<rect x="1616" y="1543" width="53" height="53" rx="6" fill="#333333"/>
<rect x="1689" y="1543" width="53" height="53" rx="6" fill="#333333"/>
<rect x="1762" y="1543" width="53" height="53" rx="6" fill="#333333"/>
<rect x="10" y="1616" width="53" height="53" rx="6" fill="#333333"/>
<defs>
<filter id="filter0_d_244_378" x="444" y="521" width="61" height="61" filterUnits="userSpaceOnUse" color-interpolation-filters="sRGB">
<feFlood flood-opacity="0" result="BackgroundImageFix"/>
<feColorMatrix in="SourceAlpha" type="matrix" values="0 0 0 0 0 0 0 0 0 0 0 0 0 0 0 0 0 0 127 0" result="hardAlpha"/>
<feOffset dy="4"/>
<feGaussianBlur stdDeviation="2"/>
<feComposite in2="hardAlpha" operator="out"/>
<feColorMatrix type="matrix" values="0 0 0 0 0 0 0 0 0 0 0 0 0 0 0 0 0 0 0.25 0"/>
<feBlend mode="normal" in2="BackgroundImageFix" result="effect1_dropShadow_244_378"/>
<feBlend mode="normal" in="SourceGraphic" in2="effect1_dropShadow_244_378" result="shape"/>
</filter>
</defs>
</svg>
