<svg width="31" height="31" viewBox="0 0 31 31" fill="none" xmlns="http://www.w3.org/2000/svg">
<g clip-path="url(#clip0_98_123)">
<path d="M26.7319 26.237L20.9529 28.037L20.3589 26.127L22.2889 25.527L21.4889 22.971C20.3182 23.0913 19.1428 22.793 18.1711 22.129C17.1994 21.465 16.4943 20.4784 16.1809 19.344L16.0459 18.944L17.0059 16H25.5999L25.7999 16.607C26.1195 17.6974 26.0556 18.8643 25.6188 19.9132C25.1821 20.9622 24.3989 21.8297 23.3999 22.371L24.1999 24.929L26.1389 24.329L26.7319 26.237ZM13.5719 10.184L9.71892 9.11C8.96899 8.90314 8.16808 8.99486 7.48433 9.36592C6.80059 9.73697 6.28719 10.3585 6.05192 11.1L5.07792 14H15.6189L15.6389 13.941C15.7544 13.5586 15.7923 13.1571 15.7505 12.7599C15.7086 12.3627 15.5879 11.9778 15.3954 11.6279C15.2029 11.2779 14.9424 10.97 14.6293 10.722C14.3162 10.4741 13.9567 10.2912 13.5719 10.184ZM4.18492 16.657C3.87921 17.7395 3.95018 18.8937 4.38621 19.9305C4.82224 20.9673 5.59748 21.8254 6.58492 22.364L5.76792 24.932L3.82092 24.332L3.22992 26.237L9.01092 28.037L9.60392 26.127L7.68092 25.527L8.49992 22.966C8.66922 22.9861 8.83945 22.9975 9.00992 23C10.0911 22.9973 11.1423 22.6443 12.0059 21.9938C12.8694 21.3433 13.4989 20.4304 13.7999 19.392L14.9449 16H4.40592L4.18492 16.657ZM20.7069 5.707L19.2929 4.293L17.0049 6.582L18.4189 8L20.7069 5.707ZM12.9569 6.543L10.7069 4.293L9.29292 5.707L11.5429 7.957L12.9569 6.543ZM13.9999 7H15.9999V4H13.9999V7ZM17.6559 14H24.9259L23.9599 11.132C23.728 10.3846 23.2152 9.75619 22.5294 9.37909C21.8436 9.00198 21.0384 8.90552 20.2829 9.11L16.7559 10.093C16.8995 10.2736 17.0301 10.464 17.1469 10.663C17.7035 11.681 17.8837 12.8624 17.6559 14Z" fill="#374957"/>
</g>
<defs>
<clipPath id="clip0_98_123">
<rect width="24" height="24" fill="white" transform="translate(3 4)"/>
</clipPath>
</defs>
</svg>
