<svg width="479" height="69" viewBox="0 0 479 69" fill="none" xmlns="http://www.w3.org/2000/svg">
<path d="M12.481 28H9.06103V3.87H0.587031V0.867998H20.917V3.87H12.481V28ZM57.9401 14.396C57.9401 16.4987 57.6741 18.4113 57.1421 20.134C56.6101 21.8313 55.8121 23.3007 54.7481 24.542C53.7094 25.7833 52.4047 26.7333 50.8341 27.392C49.2887 28.0507 47.4901 28.38 45.4381 28.38C43.3101 28.38 41.4607 28.0507 39.8901 27.392C38.3194 26.708 37.0147 25.758 35.9761 24.542C34.9374 23.3007 34.1647 21.8187 33.6581 20.096C33.1514 18.3733 32.8981 16.4607 32.8981 14.358C32.8981 11.5713 33.3541 9.13933 34.2661 7.062C35.1781 4.98467 36.5587 3.36333 38.4081 2.198C40.2827 1.03267 42.6387 0.449999 45.4761 0.449999C48.1867 0.449999 50.4667 1.03267 52.3161 2.198C54.1654 3.338 55.5587 4.95933 56.4961 7.062C57.4587 9.13933 57.9401 11.584 57.9401 14.396ZM36.5081 14.396C36.5081 16.676 36.8247 18.6393 37.4581 20.286C38.0914 21.9327 39.0667 23.1993 40.3841 24.086C41.7267 24.9727 43.4114 25.416 45.4381 25.416C47.4901 25.416 49.1621 24.9727 50.4541 24.086C51.7714 23.1993 52.7467 21.9327 53.3801 20.286C54.0134 18.6393 54.3301 16.676 54.3301 14.396C54.3301 10.976 53.6207 8.30333 52.2021 6.378C50.7834 4.42733 48.5414 3.452 45.4761 3.452C43.4241 3.452 41.7267 3.89533 40.3841 4.782C39.0667 5.64333 38.0914 6.89733 37.4581 8.544C36.8247 10.1653 36.5081 12.116 36.5081 14.396ZM85.9236 28L76.9936 4.212H76.8416C76.8922 4.71867 76.9302 5.36467 76.9556 6.15C77.0062 6.93533 77.0442 7.79667 77.0696 8.734C77.0949 9.646 77.1076 10.5833 77.1076 11.546V28H73.9536V0.867998H79.0076L87.3676 23.098H87.5196L96.0316 0.867998H101.048V28H97.6656V11.318C97.6656 10.4313 97.6782 9.55733 97.7036 8.696C97.7289 7.80933 97.7669 6.986 97.8176 6.226C97.8682 5.44067 97.9062 4.782 97.9316 4.25H97.7796L88.7356 28H85.9236ZM120.936 1.286C120.708 2.17267 120.417 3.13533 120.062 4.174C119.708 5.21267 119.315 6.25133 118.884 7.29C118.479 8.30333 118.074 9.266 117.668 10.178H115.198C115.376 9.46867 115.553 8.70867 115.73 7.898C115.933 7.08733 116.11 6.27666 116.262 5.466C116.44 4.63 116.592 3.81933 116.718 3.034C116.87 2.24867 116.997 1.52667 117.098 0.867998H120.67L120.936 1.286ZM150.461 20.742C150.461 22.3633 150.068 23.744 149.283 24.884C148.497 25.9987 147.37 26.86 145.901 27.468C144.457 28.076 142.747 28.38 140.771 28.38C139.757 28.38 138.782 28.3293 137.845 28.228C136.933 28.1267 136.097 27.9873 135.337 27.81C134.577 27.6073 133.905 27.3667 133.323 27.088V23.82C134.235 24.2253 135.362 24.5927 136.705 24.922C138.073 25.2513 139.479 25.416 140.923 25.416C142.265 25.416 143.393 25.2387 144.305 24.884C145.217 24.5293 145.901 24.0227 146.357 23.364C146.813 22.7053 147.041 21.9327 147.041 21.046C147.041 20.1593 146.851 19.412 146.471 18.804C146.091 18.196 145.432 17.6387 144.495 17.132C143.583 16.6 142.303 16.0427 140.657 15.46C139.491 15.0293 138.465 14.5733 137.579 14.092C136.717 13.5853 135.995 13.0153 135.413 12.382C134.83 11.7487 134.387 11.0267 134.083 10.216C133.804 9.40533 133.665 8.468 133.665 7.404C133.665 5.96 134.032 4.73133 134.767 3.718C135.501 2.67933 136.515 1.88133 137.807 1.324C139.124 0.766665 140.631 0.487999 142.329 0.487999C143.823 0.487999 145.191 0.627332 146.433 0.905998C147.674 1.18467 148.801 1.552 149.815 2.008L148.751 4.934C147.813 4.52867 146.787 4.18667 145.673 3.908C144.583 3.62933 143.443 3.49 142.253 3.49C141.113 3.49 140.163 3.65467 139.403 3.984C138.643 4.31333 138.073 4.782 137.693 5.39C137.313 5.97267 137.123 6.65667 137.123 7.442C137.123 8.354 137.313 9.114 137.693 9.722C138.073 10.33 138.693 10.8747 139.555 11.356C140.416 11.8373 141.581 12.3567 143.051 12.914C144.647 13.4967 145.989 14.13 147.079 14.814C148.193 15.4727 149.029 16.2707 149.587 17.208C150.169 18.1453 150.461 19.3233 150.461 20.742ZM220.075 0.867998L212.855 28H209.397L204.115 10.216C203.963 9.684 203.811 9.13933 203.659 8.582C203.507 8.02466 203.367 7.49266 203.241 6.986C203.114 6.47933 203 6.04867 202.899 5.694C202.823 5.314 202.772 5.03533 202.747 4.858C202.721 5.03533 202.671 5.314 202.595 5.694C202.544 6.04867 202.455 6.47933 202.329 6.986C202.202 7.49266 202.063 8.03733 201.911 8.62C201.784 9.17733 201.632 9.74733 201.455 10.33L196.325 28H192.867L185.685 0.867998H189.257L193.475 17.436C193.627 18.0187 193.766 18.6013 193.893 19.184C194.019 19.7413 194.133 20.2987 194.235 20.856C194.361 21.388 194.463 21.9073 194.539 22.414C194.615 22.9207 194.691 23.4147 194.767 23.896C194.843 23.3893 194.919 22.87 194.995 22.338C195.096 21.806 195.21 21.2613 195.337 20.704C195.463 20.1213 195.603 19.5387 195.755 18.956C195.907 18.3733 196.059 17.8033 196.211 17.246L200.999 0.867998H204.533L209.511 17.36C209.688 17.9427 209.853 18.538 210.005 19.146C210.157 19.7287 210.296 20.2987 210.423 20.856C210.549 21.4133 210.651 21.958 210.727 22.49C210.828 22.9967 210.917 23.4653 210.993 23.896C211.069 23.2627 211.17 22.604 211.297 21.92C211.423 21.2107 211.575 20.476 211.753 19.716C211.93 18.956 212.12 18.1833 212.323 17.398L216.503 0.867998H220.075ZM249.745 28L246.477 19.602H235.723L232.493 28H229.035L239.637 0.754H242.715L253.279 28H249.745ZM242.411 8.354C242.335 8.15133 242.208 7.784 242.031 7.252C241.854 6.72 241.676 6.17533 241.499 5.618C241.347 5.03533 241.22 4.592 241.119 4.288C240.992 4.79467 240.853 5.314 240.701 5.846C240.574 6.35267 240.435 6.82133 240.283 7.252C240.156 7.68267 240.042 8.05 239.941 8.354L236.863 16.562H245.451L242.411 8.354ZM272.907 28H269.487V3.87H261.013V0.867998H281.343V3.87H272.907V28ZM306.32 3.49C304.876 3.49 303.571 3.74333 302.406 4.25C301.241 4.73133 300.253 5.45333 299.442 6.416C298.631 7.35333 298.011 8.506 297.58 9.874C297.149 11.2167 296.934 12.7367 296.934 14.434C296.934 16.6633 297.276 18.6013 297.96 20.248C298.669 21.8947 299.708 23.1613 301.076 24.048C302.469 24.9347 304.205 25.378 306.282 25.378C307.473 25.378 308.6 25.2767 309.664 25.074C310.728 24.8713 311.767 24.618 312.78 24.314V27.278C311.767 27.658 310.715 27.9367 309.626 28.114C308.562 28.2913 307.283 28.38 305.788 28.38C303.027 28.38 300.721 27.81 298.872 26.67C297.023 25.53 295.629 23.9087 294.692 21.806C293.78 19.7033 293.324 17.2333 293.324 14.396C293.324 12.344 293.603 10.4693 294.16 8.772C294.743 7.07467 295.579 5.60533 296.668 4.364C297.783 3.12267 299.151 2.17267 300.772 1.514C302.393 0.829999 304.255 0.487999 306.358 0.487999C307.751 0.487999 309.094 0.627332 310.386 0.905998C311.678 1.18467 312.831 1.57733 313.844 2.084L312.476 4.972C311.64 4.592 310.703 4.25 309.664 3.946C308.651 3.642 307.536 3.49 306.32 3.49ZM349.45 28H346.03V15.346H332.122V28H328.702V0.867998H332.122V12.344H346.03V0.867998H349.45V28ZM397.608 0.867998C399.863 0.867998 401.75 1.08333 403.27 1.514C404.815 1.94467 405.968 2.654 406.728 3.642C407.513 4.63 407.906 5.94733 407.906 7.594C407.906 8.658 407.703 9.608 407.298 10.444C406.918 11.2547 406.335 11.9387 405.55 12.496C404.79 13.028 403.853 13.3953 402.738 13.598V13.788C403.878 13.9653 404.904 14.2947 405.816 14.776C406.753 15.2573 407.488 15.9413 408.02 16.828C408.552 17.7147 408.818 18.8673 408.818 20.286C408.818 21.9327 408.438 23.3387 407.678 24.504C406.918 25.644 405.829 26.518 404.41 27.126C403.017 27.7087 401.345 28 399.394 28H389.856V0.867998H397.608ZM398.292 12.42C400.623 12.42 402.219 12.0527 403.08 11.318C403.941 10.558 404.372 9.44333 404.372 7.974C404.372 6.47933 403.84 5.41533 402.776 4.782C401.737 4.12333 400.065 3.794 397.76 3.794H393.276V12.42H398.292ZM393.276 15.27V25.112H398.748C401.155 25.112 402.827 24.6433 403.764 23.706C404.701 22.7687 405.17 21.54 405.17 20.02C405.17 19.0573 404.955 18.2213 404.524 17.512C404.119 16.8027 403.422 16.258 402.434 15.878C401.471 15.4727 400.154 15.27 398.482 15.27H393.276ZM441.595 28L438.327 19.602H427.573L424.343 28H420.885L431.487 0.754H434.565L445.129 28H441.595ZM434.261 8.354C434.185 8.15133 434.058 7.784 433.881 7.252C433.703 6.72 433.526 6.17533 433.349 5.618C433.197 5.03533 433.07 4.592 432.969 4.288C432.842 4.79467 432.703 5.314 432.551 5.846C432.424 6.35267 432.285 6.82133 432.133 7.252C432.006 7.68267 431.892 8.05 431.791 8.354L428.713 16.562H437.301L434.261 8.354ZM466.326 0.867998C468.581 0.867998 470.43 1.15933 471.874 1.742C473.344 2.29933 474.433 3.148 475.142 4.288C475.852 5.428 476.206 6.85933 476.206 8.582C476.206 10.026 475.94 11.2293 475.408 12.192C474.876 13.1547 474.192 13.9273 473.356 14.51C472.546 15.0673 471.684 15.5107 470.772 15.84L478.22 28H474.23L467.656 16.79H462.26V28H458.84V0.867998H466.326ZM466.136 3.832H462.26V13.902H466.326C467.796 13.902 468.999 13.712 469.936 13.332C470.874 12.9267 471.558 12.344 471.988 11.584C472.444 10.824 472.672 9.874 472.672 8.734C472.672 7.54333 472.432 6.59333 471.95 5.884C471.494 5.17467 470.785 4.65533 469.822 4.326C468.86 3.99667 467.631 3.832 466.136 3.832ZM182.853 68H179.433V40.868H194.595V43.87H182.853V53.484H193.873V56.486H182.853V68ZM232.812 54.396C232.812 56.4987 232.546 58.4113 232.014 60.134C231.482 61.8313 230.684 63.3007 229.62 64.542C228.581 65.7833 227.277 66.7333 225.706 67.392C224.161 68.0507 222.362 68.38 220.31 68.38C218.182 68.38 216.333 68.0507 214.762 67.392C213.191 66.708 211.887 65.758 210.848 64.542C209.809 63.3007 209.037 61.8187 208.53 60.096C208.023 58.3733 207.77 56.4607 207.77 54.358C207.77 51.5713 208.226 49.1393 209.138 47.062C210.05 44.9847 211.431 43.3633 213.28 42.198C215.155 41.0327 217.511 40.45 220.348 40.45C223.059 40.45 225.339 41.0327 227.188 42.198C229.037 43.338 230.431 44.9593 231.368 47.062C232.331 49.1393 232.812 51.584 232.812 54.396ZM211.38 54.396C211.38 56.676 211.697 58.6393 212.33 60.286C212.963 61.9327 213.939 63.1993 215.256 64.086C216.599 64.9727 218.283 65.416 220.31 65.416C222.362 65.416 224.034 64.9727 225.326 64.086C226.643 63.1993 227.619 61.9327 228.252 60.286C228.885 58.6393 229.202 56.676 229.202 54.396C229.202 50.976 228.493 48.3033 227.074 46.378C225.655 44.4273 223.413 43.452 220.348 43.452C218.296 43.452 216.599 43.8953 215.256 44.782C213.939 45.6433 212.963 46.8973 212.33 48.544C211.697 50.1653 211.38 52.116 211.38 54.396ZM256.312 40.868C258.566 40.868 260.416 41.1593 261.86 41.742C263.329 42.2993 264.418 43.148 265.128 44.288C265.837 45.428 266.192 46.8593 266.192 48.582C266.192 50.026 265.926 51.2293 265.394 52.192C264.862 53.1547 264.178 53.9273 263.342 54.51C262.531 55.0673 261.67 55.5107 260.758 55.84L268.206 68H264.216L257.642 56.79H252.246V68H248.826V40.868H256.312ZM256.122 43.832H252.246V53.902H256.312C257.781 53.902 258.984 53.712 259.922 53.332C260.859 52.9267 261.543 52.344 261.974 51.584C262.43 50.824 262.658 49.874 262.658 48.734C262.658 47.5433 262.417 46.5933 261.936 45.884C261.48 45.1747 260.77 44.6553 259.808 44.326C258.845 43.9967 257.616 43.832 256.122 43.832ZM294.434 68L285.504 44.212H285.352C285.403 44.7187 285.441 45.3647 285.466 46.15C285.517 46.9353 285.555 47.7967 285.58 48.734C285.606 49.646 285.618 50.5833 285.618 51.546V68H282.464V40.868H287.518L295.878 63.098H296.03L304.542 40.868H309.558V68H306.176V51.318C306.176 50.4313 306.189 49.5573 306.214 48.696C306.24 47.8093 306.278 46.986 306.328 46.226C306.379 45.4407 306.417 44.782 306.442 44.25H306.29L297.246 68H294.434Z" fill="url(#paint0_linear_414_536)"/>
<defs>
<linearGradient id="paint0_linear_414_536" x1="23.5103" y1="78.9997" x2="447.551" y2="78.9997" gradientUnits="userSpaceOnUse">
<stop stop-color="#CF94FE"/>
<stop offset="1" stop-color="#7193C7"/>
</linearGradient>
</defs>
</svg>
