<svg width="488" height="69" viewBox="0 0 488 69" fill="none" xmlns="http://www.w3.org/2000/svg">
<path d="M34.47 0.867998L27.25 28H23.792L18.51 10.216C18.358 9.684 18.206 9.13933 18.054 8.582C17.902 8.02466 17.7627 7.49266 17.636 6.986C17.5094 6.47933 17.3954 6.04867 17.294 5.694C17.218 5.314 17.1674 5.03533 17.142 4.858C17.1167 5.03533 17.066 5.314 16.99 5.694C16.9394 6.04867 16.8507 6.47933 16.724 6.986C16.5974 7.49266 16.458 8.03733 16.306 8.62C16.1794 9.17733 16.0274 9.74733 15.85 10.33L10.72 28H7.26202L0.0800234 0.867998H3.65202L7.87002 17.436C8.02202 18.0187 8.16136 18.6013 8.28802 19.184C8.41469 19.7413 8.52869 20.2987 8.63002 20.856C8.75669 21.388 8.85802 21.9073 8.93402 22.414C9.01002 22.9207 9.08602 23.4147 9.16202 23.896C9.23802 23.3893 9.31402 22.87 9.39002 22.338C9.49136 21.806 9.60536 21.2613 9.73202 20.704C9.85869 20.1213 9.99802 19.5387 10.15 18.956C10.302 18.3733 10.454 17.8033 10.606 17.246L15.394 0.867998H18.928L23.906 17.36C24.0834 17.9427 24.248 18.538 24.4 19.146C24.552 19.7287 24.6914 20.2987 24.818 20.856C24.9447 21.4133 25.046 21.958 25.122 22.49C25.2234 22.9967 25.312 23.4653 25.388 23.896C25.464 23.2627 25.5654 22.604 25.692 21.92C25.8187 21.2107 25.9707 20.476 26.148 19.716C26.3254 18.956 26.5154 18.1833 26.718 17.398L30.898 0.867998H34.47ZM64.1407 28L60.8727 19.602H50.1187L46.8887 28H43.4307L54.0327 0.754H57.1107L67.6747 28H64.1407ZM56.8067 8.354C56.7307 8.15133 56.604 7.784 56.4267 7.252C56.2493 6.72 56.072 6.17533 55.8947 5.618C55.7427 5.03533 55.616 4.592 55.5147 4.288C55.388 4.79467 55.2487 5.314 55.0967 5.846C54.97 6.35267 54.8307 6.82133 54.6787 7.252C54.552 7.68267 54.438 8.05 54.3367 8.354L51.2587 16.562H59.8467L56.8067 8.354ZM81.3862 28V0.867998H84.8062V24.96H96.6622V28H81.3862ZM133.05 14.168C133.05 17.208 132.48 19.754 131.34 21.806C130.225 23.858 128.617 25.4033 126.514 26.442C124.411 27.4807 121.865 28 118.876 28H111.314V0.867998H119.674C122.41 0.867998 124.779 1.37467 126.78 2.388C128.781 3.40133 130.327 4.896 131.416 6.872C132.505 8.82267 133.05 11.2547 133.05 14.168ZM129.44 14.282C129.44 11.8753 129.035 9.89933 128.224 8.354C127.439 6.80867 126.273 5.66867 124.728 4.934C123.208 4.174 121.359 3.794 119.18 3.794H114.734V25.074H118.42C122.093 25.074 124.842 24.1747 126.666 22.376C128.515 20.552 129.44 17.854 129.44 14.282ZM172.746 14.396C172.746 16.4987 172.48 18.4113 171.948 20.134C171.416 21.8313 170.618 23.3007 169.554 24.542C168.515 25.7833 167.21 26.7333 165.64 27.392C164.094 28.0507 162.296 28.38 160.244 28.38C158.116 28.38 156.266 28.0507 154.696 27.392C153.125 26.708 151.82 25.758 150.782 24.542C149.743 23.3007 148.97 21.8187 148.464 20.096C147.957 18.3733 147.704 16.4607 147.704 14.358C147.704 11.5713 148.16 9.13933 149.072 7.062C149.984 4.98467 151.364 3.36333 153.214 2.198C155.088 1.03267 157.444 0.449999 160.282 0.449999C162.992 0.449999 165.272 1.03267 167.122 2.198C168.971 3.338 170.364 4.95933 171.302 7.062C172.264 9.13933 172.746 11.584 172.746 14.396ZM151.314 14.396C151.314 16.676 151.63 18.6393 152.264 20.286C152.897 21.9327 153.872 23.1993 155.19 24.086C156.532 24.9727 158.217 25.416 160.244 25.416C162.296 25.416 163.968 24.9727 165.26 24.086C166.577 23.1993 167.552 21.9327 168.186 20.286C168.819 18.6393 169.136 16.676 169.136 14.396C169.136 10.976 168.426 8.30333 167.008 6.378C165.589 4.42733 163.347 3.452 160.282 3.452C158.23 3.452 156.532 3.89533 155.19 4.782C153.872 5.64333 152.897 6.89733 152.264 8.544C151.63 10.1653 151.314 12.116 151.314 14.396ZM196.245 0.867998C198.5 0.867998 200.349 1.15933 201.793 1.742C203.263 2.29933 204.352 3.148 205.061 4.288C205.771 5.428 206.125 6.85933 206.125 8.582C206.125 10.026 205.859 11.2293 205.327 12.192C204.795 13.1547 204.111 13.9273 203.275 14.51C202.465 15.0673 201.603 15.5107 200.691 15.84L208.139 28H204.149L197.575 16.79H192.179V28H188.759V0.867998H196.245ZM196.055 3.832H192.179V13.902H196.245C197.715 13.902 198.918 13.712 199.855 13.332C200.793 12.9267 201.477 12.344 201.907 11.584C202.363 10.824 202.591 9.874 202.591 8.734C202.591 7.54333 202.351 6.59333 201.869 5.884C201.413 5.17467 200.704 4.65533 199.741 4.326C198.779 3.99667 197.55 3.832 196.055 3.832ZM225.818 28H222.398V0.867998H237.56V3.87H225.818V13.484H236.838V16.486H225.818V28ZM292.115 28L288.847 19.602H278.093L274.863 28H271.405L282.007 0.754H285.085L295.649 28H292.115ZM284.781 8.354C284.705 8.15133 284.579 7.784 284.401 7.252C284.224 6.72 284.047 6.17533 283.869 5.618C283.717 5.03533 283.591 4.592 283.489 4.288C283.363 4.79467 283.223 5.314 283.071 5.846C282.945 6.35267 282.805 6.82133 282.653 7.252C282.527 7.68267 282.413 8.05 282.311 8.354L279.233 16.562H287.821L284.781 8.354ZM324.751 20.742C324.751 22.3633 324.358 23.744 323.573 24.884C322.787 25.9987 321.66 26.86 320.191 27.468C318.747 28.076 317.037 28.38 315.061 28.38C314.047 28.38 313.072 28.3293 312.135 28.228C311.223 28.1267 310.387 27.9873 309.627 27.81C308.867 27.6073 308.195 27.3667 307.613 27.088V23.82C308.525 24.2253 309.652 24.5927 310.995 24.922C312.363 25.2513 313.769 25.416 315.213 25.416C316.555 25.416 317.683 25.2387 318.595 24.884C319.507 24.5293 320.191 24.0227 320.647 23.364C321.103 22.7053 321.331 21.9327 321.331 21.046C321.331 20.1593 321.141 19.412 320.761 18.804C320.381 18.196 319.722 17.6387 318.785 17.132C317.873 16.6 316.593 16.0427 314.947 15.46C313.781 15.0293 312.755 14.5733 311.869 14.092C311.007 13.5853 310.285 13.0153 309.703 12.382C309.12 11.7487 308.677 11.0267 308.373 10.216C308.094 9.40533 307.955 8.468 307.955 7.404C307.955 5.96 308.322 4.73133 309.057 3.718C309.791 2.67933 310.805 1.88133 312.097 1.324C313.414 0.766665 314.921 0.487999 316.619 0.487999C318.113 0.487999 319.481 0.627332 320.723 0.905998C321.964 1.18467 323.091 1.552 324.105 2.008L323.041 4.934C322.103 4.52867 321.077 4.18667 319.963 3.908C318.873 3.62933 317.733 3.49 316.543 3.49C315.403 3.49 314.453 3.65467 313.693 3.984C312.933 4.31333 312.363 4.782 311.983 5.39C311.603 5.97267 311.413 6.65667 311.413 7.442C311.413 8.354 311.603 9.114 311.983 9.722C312.363 10.33 312.983 10.8747 313.845 11.356C314.706 11.8373 315.871 12.3567 317.341 12.914C318.937 13.4967 320.279 14.13 321.369 14.814C322.483 15.4727 323.319 16.2707 323.877 17.208C324.459 18.1453 324.751 19.3233 324.751 20.742ZM348.804 28H345.384V3.87H336.91V0.867998H357.24V3.87H348.804V28ZM394.263 14.396C394.263 16.4987 393.997 18.4113 393.465 20.134C392.933 21.8313 392.135 23.3007 391.071 24.542C390.033 25.7833 388.728 26.7333 387.157 27.392C385.612 28.0507 383.813 28.38 381.761 28.38C379.633 28.38 377.784 28.0507 376.213 27.392C374.643 26.708 373.338 25.758 372.299 24.542C371.261 23.3007 370.488 21.8187 369.981 20.096C369.475 18.3733 369.221 16.4607 369.221 14.358C369.221 11.5713 369.677 9.13933 370.589 7.062C371.501 4.98467 372.882 3.36333 374.731 2.198C376.606 1.03267 378.962 0.449999 381.799 0.449999C384.51 0.449999 386.79 1.03267 388.639 2.198C390.489 3.338 391.882 4.95933 392.819 7.062C393.782 9.13933 394.263 11.584 394.263 14.396ZM372.831 14.396C372.831 16.676 373.148 18.6393 373.781 20.286C374.415 21.9327 375.39 23.1993 376.707 24.086C378.05 24.9727 379.735 25.416 381.761 25.416C383.813 25.416 385.485 24.9727 386.777 24.086C388.095 23.1993 389.07 21.9327 389.703 20.286C390.337 18.6393 390.653 16.676 390.653 14.396C390.653 10.976 389.944 8.30333 388.525 6.378C387.107 4.42733 384.865 3.452 381.799 3.452C379.747 3.452 378.05 3.89533 376.707 4.782C375.39 5.64333 374.415 6.89733 373.781 8.544C373.148 10.1653 372.831 12.116 372.831 14.396ZM417.763 0.867998C420.017 0.867998 421.867 1.15933 423.311 1.742C424.78 2.29933 425.869 3.148 426.579 4.288C427.288 5.428 427.643 6.85933 427.643 8.582C427.643 10.026 427.377 11.2293 426.845 12.192C426.313 13.1547 425.629 13.9273 424.793 14.51C423.982 15.0673 423.121 15.5107 422.209 15.84L429.657 28H425.667L419.093 16.79H413.697V28H410.277V0.867998H417.763ZM417.573 3.832H413.697V13.902H417.763C419.232 13.902 420.435 13.712 421.373 13.332C422.31 12.9267 422.994 12.344 423.425 11.584C423.881 10.824 424.109 9.874 424.109 8.734C424.109 7.54333 423.868 6.59333 423.387 5.884C422.931 5.17467 422.221 4.65533 421.259 4.326C420.296 3.99667 419.067 3.832 417.573 3.832ZM451.553 28H441.749V26.024L444.941 25.302V3.604L441.749 2.844V0.867998H451.553V2.844L448.361 3.604V25.302L451.553 26.024V28ZM483.816 28L480.548 19.602H469.794L466.564 28H463.106L473.708 0.754H476.786L487.35 28H483.816ZM476.482 8.354C476.406 8.15133 476.28 7.784 476.102 7.252C475.925 6.72 475.748 6.17533 475.57 5.618C475.418 5.03533 475.292 4.592 475.19 4.288C475.064 4.79467 474.924 5.314 474.772 5.846C474.646 6.35267 474.506 6.82133 474.354 7.252C474.228 7.68267 474.114 8.05 474.012 8.354L470.934 16.562H479.522L476.482 8.354ZM186.853 68H183.433V40.868H198.595V43.87H186.853V53.484H197.873V56.486H186.853V68ZM236.812 54.396C236.812 56.4987 236.546 58.4113 236.014 60.134C235.482 61.8313 234.684 63.3007 233.62 64.542C232.581 65.7833 231.277 66.7333 229.706 67.392C228.161 68.0507 226.362 68.38 224.31 68.38C222.182 68.38 220.333 68.0507 218.762 67.392C217.191 66.708 215.887 65.758 214.848 64.542C213.809 63.3007 213.037 61.8187 212.53 60.096C212.023 58.3733 211.77 56.4607 211.77 54.358C211.77 51.5713 212.226 49.1393 213.138 47.062C214.05 44.9847 215.431 43.3633 217.28 42.198C219.155 41.0327 221.511 40.45 224.348 40.45C227.059 40.45 229.339 41.0327 231.188 42.198C233.037 43.338 234.431 44.9593 235.368 47.062C236.331 49.1393 236.812 51.584 236.812 54.396ZM215.38 54.396C215.38 56.676 215.697 58.6393 216.33 60.286C216.963 61.9327 217.939 63.1993 219.256 64.086C220.599 64.9727 222.283 65.416 224.31 65.416C226.362 65.416 228.034 64.9727 229.326 64.086C230.643 63.1993 231.619 61.9327 232.252 60.286C232.885 58.6393 233.202 56.676 233.202 54.396C233.202 50.976 232.493 48.3033 231.074 46.378C229.655 44.4273 227.413 43.452 224.348 43.452C222.296 43.452 220.599 43.8953 219.256 44.782C217.939 45.6433 216.963 46.8973 216.33 48.544C215.697 50.1653 215.38 52.116 215.38 54.396ZM260.312 40.868C262.566 40.868 264.416 41.1593 265.86 41.742C267.329 42.2993 268.418 43.148 269.128 44.288C269.837 45.428 270.192 46.8593 270.192 48.582C270.192 50.026 269.926 51.2293 269.394 52.192C268.862 53.1547 268.178 53.9273 267.342 54.51C266.531 55.0673 265.67 55.5107 264.758 55.84L272.206 68H268.216L261.642 56.79H256.246V68H252.826V40.868H260.312ZM260.122 43.832H256.246V53.902H260.312C261.781 53.902 262.984 53.712 263.922 53.332C264.859 52.9267 265.543 52.344 265.974 51.584C266.43 50.824 266.658 49.874 266.658 48.734C266.658 47.5433 266.417 46.5933 265.936 45.884C265.48 45.1747 264.77 44.6553 263.808 44.326C262.845 43.9967 261.616 43.832 260.122 43.832ZM298.434 68L289.504 44.212H289.352C289.403 44.7187 289.441 45.3647 289.466 46.15C289.517 46.9353 289.555 47.7967 289.58 48.734C289.606 49.646 289.618 50.5833 289.618 51.546V68H286.464V40.868H291.518L299.878 63.098H300.03L308.542 40.868H313.558V68H310.176V51.318C310.176 50.4313 310.189 49.5573 310.214 48.696C310.24 47.8093 310.278 46.986 310.328 46.226C310.379 45.4407 310.417 44.782 310.442 44.25H310.29L301.246 68H298.434Z" fill="url(#paint0_linear_453_873)"/>
<defs>
<linearGradient id="paint0_linear_453_873" x1="27.5103" y1="78.9997" x2="451.551" y2="78.9997" gradientUnits="userSpaceOnUse">
<stop stop-color="#CF94FE"/>
<stop offset="1" stop-color="#7193C7"/>
</linearGradient>
</defs>
</svg>
