<svg width="32" height="31" viewBox="0 0 32 31" fill="none" xmlns="http://www.w3.org/2000/svg">
<g clip-path="url(#clip0_98_116)">
<path d="M22.92 17C22.8418 17.5526 22.6974 18.0938 22.49 18.612L26.875 21.165L25.875 22.894L21.487 20.339C21.1571 20.7561 20.7806 21.1342 20.365 21.466L22.923 25.866L21.19 26.871L18.637 22.48C18.1114 22.6933 17.5616 22.841 17 22.92V28H15V22.92C14.4433 22.8418 13.8982 22.6957 13.377 22.485L10.827 26.871L9.1 25.865L11.653 21.475C11.2352 21.1429 10.8567 20.7641 10.525 20.346L6.147 22.894L5.141 21.165L9.513 18.619C9.30391 18.0988 9.15852 17.5552 9.08 17H4V15H9.08C9.15905 14.442 9.30545 13.8957 9.516 13.373L5.134 10.822L6.14 9.094L10.527 11.648C10.8642 11.2251 11.2491 10.8426 11.674 10.508L9.126 6.127L10.854 5.121L13.4 9.505C13.9144 9.29976 14.4516 9.15707 15 9.08V4H17V9.08C17.552 9.15824 18.0925 9.30261 18.61 9.51L21.162 5.121L22.89 6.127L20.338 10.517C20.76 10.8515 21.1424 11.2329 21.478 11.654L25.878 9.094L26.884 10.822L22.484 13.381C22.6941 13.9011 22.8405 14.4447 22.92 15H28V17H22.92Z" fill="#333333"/>
</g>
<defs>
<clipPath id="clip0_98_116">
<rect width="24" height="24" fill="white" transform="translate(4 4)"/>
</clipPath>
</defs>
</svg>
